<?xml version="1.0" encoding="utf-8" standalone="no"?>
<!DOCTYPE svg PUBLIC "-//W3C//DTD SVG 1.1//EN"
  "http://www.w3.org/Graphics/SVG/1.1/DTD/svg11.dtd">
<!-- Created with matplotlib (https://matplotlib.org/) -->
<svg height="504pt" version="1.1" viewBox="0 0 559.44 504" width="559.44pt" xmlns="http://www.w3.org/2000/svg" xmlns:xlink="http://www.w3.org/1999/xlink">
 <defs>
  <style type="text/css">
*{stroke-linecap:butt;stroke-linejoin:round;}
  </style>
 </defs>
 <g id="figure_1">
  <g id="patch_1">
   <path d="M 0 504 
L 559.44 504 
L 559.44 0 
L 0 0 
z
" style="fill:#ffffff;"/>
  </g>
  <g id="axes_1">
   <g id="patch_2">
    <path d="M 69.93 325.08 
L 426.24 325.08 
L 426.24 60.48 
L 69.93 60.48 
z
" style="fill:#ffffff;"/>
   </g>
   <g id="matplotlib.axis_1">
    <g id="xtick_1">
     <g id="line2d_1">
      <defs>
       <path d="M 0 0 
L 0 3.5 
" id="mcb11b54e53" style="stroke:#000000;stroke-width:0.8;"/>
      </defs>
      <g>
       <use style="stroke:#000000;stroke-width:0.8;" x="83.860747" xlink:href="#mcb11b54e53" y="325.08"/>
      </g>
     </g>
     <g id="text_1">
      <!-- 0 -->
      <defs>
       <path d="M 31.78125 66.40625 
Q 24.171875 66.40625 20.328125 58.90625 
Q 16.5 51.421875 16.5 36.375 
Q 16.5 21.390625 20.328125 13.890625 
Q 24.171875 6.390625 31.78125 6.390625 
Q 39.453125 6.390625 43.28125 13.890625 
Q 47.125 21.390625 47.125 36.375 
Q 47.125 51.421875 43.28125 58.90625 
Q 39.453125 66.40625 31.78125 66.40625 
z
M 31.78125 74.21875 
Q 44.046875 74.21875 50.515625 64.515625 
Q 56.984375 54.828125 56.984375 36.375 
Q 56.984375 17.96875 50.515625 8.265625 
Q 44.046875 -1.421875 31.78125 -1.421875 
Q 19.53125 -1.421875 13.0625 8.265625 
Q 6.59375 17.96875 6.59375 36.375 
Q 6.59375 54.828125 13.0625 64.515625 
Q 19.53125 74.21875 31.78125 74.21875 
z
" id="DejaVuSans-48"/>
      </defs>
      <g transform="translate(80.679497 339.678437)scale(0.1 -0.1)">
       <use xlink:href="#DejaVuSans-48"/>
      </g>
     </g>
    </g>
    <g id="xtick_2">
     <g id="line2d_2">
      <g>
       <use style="stroke:#000000;stroke-width:0.8;" x="139.162556" xlink:href="#mcb11b54e53" y="325.08"/>
      </g>
     </g>
     <g id="text_2">
      <!-- 100000 -->
      <defs>
       <path d="M 12.40625 8.296875 
L 28.515625 8.296875 
L 28.515625 63.921875 
L 10.984375 60.40625 
L 10.984375 69.390625 
L 28.421875 72.90625 
L 38.28125 72.90625 
L 38.28125 8.296875 
L 54.390625 8.296875 
L 54.390625 0 
L 12.40625 0 
z
" id="DejaVuSans-49"/>
      </defs>
      <g transform="translate(120.075056 339.678437)scale(0.1 -0.1)">
       <use xlink:href="#DejaVuSans-49"/>
       <use x="63.623047" xlink:href="#DejaVuSans-48"/>
       <use x="127.246094" xlink:href="#DejaVuSans-48"/>
       <use x="190.869141" xlink:href="#DejaVuSans-48"/>
       <use x="254.492188" xlink:href="#DejaVuSans-48"/>
       <use x="318.115234" xlink:href="#DejaVuSans-48"/>
      </g>
     </g>
    </g>
    <g id="xtick_3">
     <g id="line2d_3">
      <g>
       <use style="stroke:#000000;stroke-width:0.8;" x="194.464366" xlink:href="#mcb11b54e53" y="325.08"/>
      </g>
     </g>
     <g id="text_3">
      <!-- 200000 -->
      <defs>
       <path d="M 19.1875 8.296875 
L 53.609375 8.296875 
L 53.609375 0 
L 7.328125 0 
L 7.328125 8.296875 
Q 12.9375 14.109375 22.625 23.890625 
Q 32.328125 33.6875 34.8125 36.53125 
Q 39.546875 41.84375 41.421875 45.53125 
Q 43.3125 49.21875 43.3125 52.78125 
Q 43.3125 58.59375 39.234375 62.25 
Q 35.15625 65.921875 28.609375 65.921875 
Q 23.96875 65.921875 18.8125 64.3125 
Q 13.671875 62.703125 7.8125 59.421875 
L 7.8125 69.390625 
Q 13.765625 71.78125 18.9375 73 
Q 24.125 74.21875 28.421875 74.21875 
Q 39.75 74.21875 46.484375 68.546875 
Q 53.21875 62.890625 53.21875 53.421875 
Q 53.21875 48.921875 51.53125 44.890625 
Q 49.859375 40.875 45.40625 35.40625 
Q 44.1875 33.984375 37.640625 27.21875 
Q 31.109375 20.453125 19.1875 8.296875 
z
" id="DejaVuSans-50"/>
      </defs>
      <g transform="translate(175.376866 339.678437)scale(0.1 -0.1)">
       <use xlink:href="#DejaVuSans-50"/>
       <use x="63.623047" xlink:href="#DejaVuSans-48"/>
       <use x="127.246094" xlink:href="#DejaVuSans-48"/>
       <use x="190.869141" xlink:href="#DejaVuSans-48"/>
       <use x="254.492188" xlink:href="#DejaVuSans-48"/>
       <use x="318.115234" xlink:href="#DejaVuSans-48"/>
      </g>
     </g>
    </g>
    <g id="xtick_4">
     <g id="line2d_4">
      <g>
       <use style="stroke:#000000;stroke-width:0.8;" x="249.766175" xlink:href="#mcb11b54e53" y="325.08"/>
      </g>
     </g>
     <g id="text_4">
      <!-- 300000 -->
      <defs>
       <path d="M 40.578125 39.3125 
Q 47.65625 37.796875 51.625 33 
Q 55.609375 28.21875 55.609375 21.1875 
Q 55.609375 10.40625 48.1875 4.484375 
Q 40.765625 -1.421875 27.09375 -1.421875 
Q 22.515625 -1.421875 17.65625 -0.515625 
Q 12.796875 0.390625 7.625 2.203125 
L 7.625 11.71875 
Q 11.71875 9.328125 16.59375 8.109375 
Q 21.484375 6.890625 26.8125 6.890625 
Q 36.078125 6.890625 40.9375 10.546875 
Q 45.796875 14.203125 45.796875 21.1875 
Q 45.796875 27.640625 41.28125 31.265625 
Q 36.765625 34.90625 28.71875 34.90625 
L 20.21875 34.90625 
L 20.21875 43.015625 
L 29.109375 43.015625 
Q 36.375 43.015625 40.234375 45.921875 
Q 44.09375 48.828125 44.09375 54.296875 
Q 44.09375 59.90625 40.109375 62.90625 
Q 36.140625 65.921875 28.71875 65.921875 
Q 24.65625 65.921875 20.015625 65.03125 
Q 15.375 64.15625 9.8125 62.3125 
L 9.8125 71.09375 
Q 15.4375 72.65625 20.34375 73.4375 
Q 25.25 74.21875 29.59375 74.21875 
Q 40.828125 74.21875 47.359375 69.109375 
Q 53.90625 64.015625 53.90625 55.328125 
Q 53.90625 49.265625 50.4375 45.09375 
Q 46.96875 40.921875 40.578125 39.3125 
z
" id="DejaVuSans-51"/>
      </defs>
      <g transform="translate(230.678675 339.678437)scale(0.1 -0.1)">
       <use xlink:href="#DejaVuSans-51"/>
       <use x="63.623047" xlink:href="#DejaVuSans-48"/>
       <use x="127.246094" xlink:href="#DejaVuSans-48"/>
       <use x="190.869141" xlink:href="#DejaVuSans-48"/>
       <use x="254.492188" xlink:href="#DejaVuSans-48"/>
       <use x="318.115234" xlink:href="#DejaVuSans-48"/>
      </g>
     </g>
    </g>
    <g id="xtick_5">
     <g id="line2d_5">
      <g>
       <use style="stroke:#000000;stroke-width:0.8;" x="305.067984" xlink:href="#mcb11b54e53" y="325.08"/>
      </g>
     </g>
     <g id="text_5">
      <!-- 400000 -->
      <defs>
       <path d="M 37.796875 64.3125 
L 12.890625 25.390625 
L 37.796875 25.390625 
z
M 35.203125 72.90625 
L 47.609375 72.90625 
L 47.609375 25.390625 
L 58.015625 25.390625 
L 58.015625 17.1875 
L 47.609375 17.1875 
L 47.609375 0 
L 37.796875 0 
L 37.796875 17.1875 
L 4.890625 17.1875 
L 4.890625 26.703125 
z
" id="DejaVuSans-52"/>
      </defs>
      <g transform="translate(285.980484 339.678437)scale(0.1 -0.1)">
       <use xlink:href="#DejaVuSans-52"/>
       <use x="63.623047" xlink:href="#DejaVuSans-48"/>
       <use x="127.246094" xlink:href="#DejaVuSans-48"/>
       <use x="190.869141" xlink:href="#DejaVuSans-48"/>
       <use x="254.492188" xlink:href="#DejaVuSans-48"/>
       <use x="318.115234" xlink:href="#DejaVuSans-48"/>
      </g>
     </g>
    </g>
    <g id="xtick_6">
     <g id="line2d_6">
      <g>
       <use style="stroke:#000000;stroke-width:0.8;" x="360.369794" xlink:href="#mcb11b54e53" y="325.08"/>
      </g>
     </g>
     <g id="text_6">
      <!-- 500000 -->
      <defs>
       <path d="M 10.796875 72.90625 
L 49.515625 72.90625 
L 49.515625 64.59375 
L 19.828125 64.59375 
L 19.828125 46.734375 
Q 21.96875 47.46875 24.109375 47.828125 
Q 26.265625 48.1875 28.421875 48.1875 
Q 40.625 48.1875 47.75 41.5 
Q 54.890625 34.8125 54.890625 23.390625 
Q 54.890625 11.625 47.5625 5.09375 
Q 40.234375 -1.421875 26.90625 -1.421875 
Q 22.3125 -1.421875 17.546875 -0.640625 
Q 12.796875 0.140625 7.71875 1.703125 
L 7.71875 11.625 
Q 12.109375 9.234375 16.796875 8.0625 
Q 21.484375 6.890625 26.703125 6.890625 
Q 35.15625 6.890625 40.078125 11.328125 
Q 45.015625 15.765625 45.015625 23.390625 
Q 45.015625 31 40.078125 35.4375 
Q 35.15625 39.890625 26.703125 39.890625 
Q 22.75 39.890625 18.8125 39.015625 
Q 14.890625 38.140625 10.796875 36.28125 
z
" id="DejaVuSans-53"/>
      </defs>
      <g transform="translate(341.282294 339.678437)scale(0.1 -0.1)">
       <use xlink:href="#DejaVuSans-53"/>
       <use x="63.623047" xlink:href="#DejaVuSans-48"/>
       <use x="127.246094" xlink:href="#DejaVuSans-48"/>
       <use x="190.869141" xlink:href="#DejaVuSans-48"/>
       <use x="254.492188" xlink:href="#DejaVuSans-48"/>
       <use x="318.115234" xlink:href="#DejaVuSans-48"/>
      </g>
     </g>
    </g>
    <g id="xtick_7">
     <g id="line2d_7">
      <g>
       <use style="stroke:#000000;stroke-width:0.8;" x="415.671603" xlink:href="#mcb11b54e53" y="325.08"/>
      </g>
     </g>
     <g id="text_7">
      <!-- 600000 -->
      <defs>
       <path d="M 33.015625 40.375 
Q 26.375 40.375 22.484375 35.828125 
Q 18.609375 31.296875 18.609375 23.390625 
Q 18.609375 15.53125 22.484375 10.953125 
Q 26.375 6.390625 33.015625 6.390625 
Q 39.65625 6.390625 43.53125 10.953125 
Q 47.40625 15.53125 47.40625 23.390625 
Q 47.40625 31.296875 43.53125 35.828125 
Q 39.65625 40.375 33.015625 40.375 
z
M 52.59375 71.296875 
L 52.59375 62.3125 
Q 48.875 64.0625 45.09375 64.984375 
Q 41.3125 65.921875 37.59375 65.921875 
Q 27.828125 65.921875 22.671875 59.328125 
Q 17.53125 52.734375 16.796875 39.40625 
Q 19.671875 43.65625 24.015625 45.921875 
Q 28.375 48.1875 33.59375 48.1875 
Q 44.578125 48.1875 50.953125 41.515625 
Q 57.328125 34.859375 57.328125 23.390625 
Q 57.328125 12.15625 50.6875 5.359375 
Q 44.046875 -1.421875 33.015625 -1.421875 
Q 20.359375 -1.421875 13.671875 8.265625 
Q 6.984375 17.96875 6.984375 36.375 
Q 6.984375 53.65625 15.1875 63.9375 
Q 23.390625 74.21875 37.203125 74.21875 
Q 40.921875 74.21875 44.703125 73.484375 
Q 48.484375 72.75 52.59375 71.296875 
z
" id="DejaVuSans-54"/>
      </defs>
      <g transform="translate(396.584103 339.678437)scale(0.1 -0.1)">
       <use xlink:href="#DejaVuSans-54"/>
       <use x="63.623047" xlink:href="#DejaVuSans-48"/>
       <use x="127.246094" xlink:href="#DejaVuSans-48"/>
       <use x="190.869141" xlink:href="#DejaVuSans-48"/>
       <use x="254.492188" xlink:href="#DejaVuSans-48"/>
       <use x="318.115234" xlink:href="#DejaVuSans-48"/>
      </g>
     </g>
    </g>
    <g id="text_8">
     <!-- Mesh elements -->
     <defs>
      <path d="M 9.8125 72.90625 
L 24.515625 72.90625 
L 43.109375 23.296875 
L 61.8125 72.90625 
L 76.515625 72.90625 
L 76.515625 0 
L 66.890625 0 
L 66.890625 64.015625 
L 48.09375 14.015625 
L 38.1875 14.015625 
L 19.390625 64.015625 
L 19.390625 0 
L 9.8125 0 
z
" id="DejaVuSans-77"/>
      <path d="M 56.203125 29.59375 
L 56.203125 25.203125 
L 14.890625 25.203125 
Q 15.484375 15.921875 20.484375 11.0625 
Q 25.484375 6.203125 34.421875 6.203125 
Q 39.59375 6.203125 44.453125 7.46875 
Q 49.3125 8.734375 54.109375 11.28125 
L 54.109375 2.78125 
Q 49.265625 0.734375 44.1875 -0.34375 
Q 39.109375 -1.421875 33.890625 -1.421875 
Q 20.796875 -1.421875 13.15625 6.1875 
Q 5.515625 13.8125 5.515625 26.8125 
Q 5.515625 40.234375 12.765625 48.109375 
Q 20.015625 56 32.328125 56 
Q 43.359375 56 49.78125 48.890625 
Q 56.203125 41.796875 56.203125 29.59375 
z
M 47.21875 32.234375 
Q 47.125 39.59375 43.09375 43.984375 
Q 39.0625 48.390625 32.421875 48.390625 
Q 24.90625 48.390625 20.390625 44.140625 
Q 15.875 39.890625 15.1875 32.171875 
z
" id="DejaVuSans-101"/>
      <path d="M 44.28125 53.078125 
L 44.28125 44.578125 
Q 40.484375 46.53125 36.375 47.5 
Q 32.28125 48.484375 27.875 48.484375 
Q 21.1875 48.484375 17.84375 46.4375 
Q 14.5 44.390625 14.5 40.28125 
Q 14.5 37.15625 16.890625 35.375 
Q 19.28125 33.59375 26.515625 31.984375 
L 29.59375 31.296875 
Q 39.15625 29.25 43.1875 25.515625 
Q 47.21875 21.78125 47.21875 15.09375 
Q 47.21875 7.46875 41.1875 3.015625 
Q 35.15625 -1.421875 24.609375 -1.421875 
Q 20.21875 -1.421875 15.453125 -0.5625 
Q 10.6875 0.296875 5.421875 2 
L 5.421875 11.28125 
Q 10.40625 8.6875 15.234375 7.390625 
Q 20.0625 6.109375 24.8125 6.109375 
Q 31.15625 6.109375 34.5625 8.28125 
Q 37.984375 10.453125 37.984375 14.40625 
Q 37.984375 18.0625 35.515625 20.015625 
Q 33.0625 21.96875 24.703125 23.78125 
L 21.578125 24.515625 
Q 13.234375 26.265625 9.515625 29.90625 
Q 5.8125 33.546875 5.8125 39.890625 
Q 5.8125 47.609375 11.28125 51.796875 
Q 16.75 56 26.8125 56 
Q 31.78125 56 36.171875 55.265625 
Q 40.578125 54.546875 44.28125 53.078125 
z
" id="DejaVuSans-115"/>
      <path d="M 54.890625 33.015625 
L 54.890625 0 
L 45.90625 0 
L 45.90625 32.71875 
Q 45.90625 40.484375 42.875 44.328125 
Q 39.84375 48.1875 33.796875 48.1875 
Q 26.515625 48.1875 22.3125 43.546875 
Q 18.109375 38.921875 18.109375 30.90625 
L 18.109375 0 
L 9.078125 0 
L 9.078125 75.984375 
L 18.109375 75.984375 
L 18.109375 46.1875 
Q 21.34375 51.125 25.703125 53.5625 
Q 30.078125 56 35.796875 56 
Q 45.21875 56 50.046875 50.171875 
Q 54.890625 44.34375 54.890625 33.015625 
z
" id="DejaVuSans-104"/>
      <path id="DejaVuSans-32"/>
      <path d="M 9.421875 75.984375 
L 18.40625 75.984375 
L 18.40625 0 
L 9.421875 0 
z
" id="DejaVuSans-108"/>
      <path d="M 52 44.1875 
Q 55.375 50.25 60.0625 53.125 
Q 64.75 56 71.09375 56 
Q 79.640625 56 84.28125 50.015625 
Q 88.921875 44.046875 88.921875 33.015625 
L 88.921875 0 
L 79.890625 0 
L 79.890625 32.71875 
Q 79.890625 40.578125 77.09375 44.375 
Q 74.3125 48.1875 68.609375 48.1875 
Q 61.625 48.1875 57.5625 43.546875 
Q 53.515625 38.921875 53.515625 30.90625 
L 53.515625 0 
L 44.484375 0 
L 44.484375 32.71875 
Q 44.484375 40.625 41.703125 44.40625 
Q 38.921875 48.1875 33.109375 48.1875 
Q 26.21875 48.1875 22.15625 43.53125 
Q 18.109375 38.875 18.109375 30.90625 
L 18.109375 0 
L 9.078125 0 
L 9.078125 54.6875 
L 18.109375 54.6875 
L 18.109375 46.1875 
Q 21.1875 51.21875 25.484375 53.609375 
Q 29.78125 56 35.6875 56 
Q 41.65625 56 45.828125 52.96875 
Q 50 49.953125 52 44.1875 
z
" id="DejaVuSans-109"/>
      <path d="M 54.890625 33.015625 
L 54.890625 0 
L 45.90625 0 
L 45.90625 32.71875 
Q 45.90625 40.484375 42.875 44.328125 
Q 39.84375 48.1875 33.796875 48.1875 
Q 26.515625 48.1875 22.3125 43.546875 
Q 18.109375 38.921875 18.109375 30.90625 
L 18.109375 0 
L 9.078125 0 
L 9.078125 54.6875 
L 18.109375 54.6875 
L 18.109375 46.1875 
Q 21.34375 51.125 25.703125 53.5625 
Q 30.078125 56 35.796875 56 
Q 45.21875 56 50.046875 50.171875 
Q 54.890625 44.34375 54.890625 33.015625 
z
" id="DejaVuSans-110"/>
      <path d="M 18.3125 70.21875 
L 18.3125 54.6875 
L 36.8125 54.6875 
L 36.8125 47.703125 
L 18.3125 47.703125 
L 18.3125 18.015625 
Q 18.3125 11.328125 20.140625 9.421875 
Q 21.96875 7.515625 27.59375 7.515625 
L 36.8125 7.515625 
L 36.8125 0 
L 27.59375 0 
Q 17.1875 0 13.234375 3.875 
Q 9.28125 7.765625 9.28125 18.015625 
L 9.28125 47.703125 
L 2.6875 47.703125 
L 2.6875 54.6875 
L 9.28125 54.6875 
L 9.28125 70.21875 
z
" id="DejaVuSans-116"/>
     </defs>
     <g transform="translate(210.109219 353.356562)scale(0.1 -0.1)">
      <use xlink:href="#DejaVuSans-77"/>
      <use x="86.279297" xlink:href="#DejaVuSans-101"/>
      <use x="147.802734" xlink:href="#DejaVuSans-115"/>
      <use x="199.902344" xlink:href="#DejaVuSans-104"/>
      <use x="263.28125" xlink:href="#DejaVuSans-32"/>
      <use x="295.068359" xlink:href="#DejaVuSans-101"/>
      <use x="356.591797" xlink:href="#DejaVuSans-108"/>
      <use x="384.375" xlink:href="#DejaVuSans-101"/>
      <use x="445.898438" xlink:href="#DejaVuSans-109"/>
      <use x="543.310547" xlink:href="#DejaVuSans-101"/>
      <use x="604.833984" xlink:href="#DejaVuSans-110"/>
      <use x="668.212891" xlink:href="#DejaVuSans-116"/>
      <use x="707.421875" xlink:href="#DejaVuSans-115"/>
     </g>
    </g>
   </g>
   <g id="matplotlib.axis_2">
    <g id="ytick_1">
     <g id="line2d_8">
      <defs>
       <path d="M 0 0 
L -3.5 0 
" id="mbfb125ed5f" style="stroke:#000000;stroke-width:0.8;"/>
      </defs>
      <g>
       <use style="stroke:#000000;stroke-width:0.8;" x="69.93" xlink:href="#mbfb125ed5f" y="314.565654"/>
      </g>
     </g>
     <g id="text_9">
      <!-- 0 -->
      <g transform="translate(56.5675 318.364873)scale(0.1 -0.1)">
       <use xlink:href="#DejaVuSans-48"/>
      </g>
     </g>
    </g>
    <g id="ytick_2">
     <g id="line2d_9">
      <g>
       <use style="stroke:#000000;stroke-width:0.8;" x="69.93" xlink:href="#mbfb125ed5f" y="258.502079"/>
      </g>
     </g>
     <g id="text_10">
      <!-- 100 -->
      <g transform="translate(43.8425 262.301298)scale(0.1 -0.1)">
       <use xlink:href="#DejaVuSans-49"/>
       <use x="63.623047" xlink:href="#DejaVuSans-48"/>
       <use x="127.246094" xlink:href="#DejaVuSans-48"/>
      </g>
     </g>
    </g>
    <g id="ytick_3">
     <g id="line2d_10">
      <g>
       <use style="stroke:#000000;stroke-width:0.8;" x="69.93" xlink:href="#mbfb125ed5f" y="202.438504"/>
      </g>
     </g>
     <g id="text_11">
      <!-- 200 -->
      <g transform="translate(43.8425 206.237722)scale(0.1 -0.1)">
       <use xlink:href="#DejaVuSans-50"/>
       <use x="63.623047" xlink:href="#DejaVuSans-48"/>
       <use x="127.246094" xlink:href="#DejaVuSans-48"/>
      </g>
     </g>
    </g>
    <g id="ytick_4">
     <g id="line2d_11">
      <g>
       <use style="stroke:#000000;stroke-width:0.8;" x="69.93" xlink:href="#mbfb125ed5f" y="146.374929"/>
      </g>
     </g>
     <g id="text_12">
      <!-- 300 -->
      <g transform="translate(43.8425 150.174147)scale(0.1 -0.1)">
       <use xlink:href="#DejaVuSans-51"/>
       <use x="63.623047" xlink:href="#DejaVuSans-48"/>
       <use x="127.246094" xlink:href="#DejaVuSans-48"/>
      </g>
     </g>
    </g>
    <g id="ytick_5">
     <g id="line2d_12">
      <g>
       <use style="stroke:#000000;stroke-width:0.8;" x="69.93" xlink:href="#mbfb125ed5f" y="90.311353"/>
      </g>
     </g>
     <g id="text_13">
      <!-- 400 -->
      <g transform="translate(43.8425 94.110572)scale(0.1 -0.1)">
       <use xlink:href="#DejaVuSans-52"/>
       <use x="63.623047" xlink:href="#DejaVuSans-48"/>
       <use x="127.246094" xlink:href="#DejaVuSans-48"/>
      </g>
     </g>
    </g>
    <g id="text_14">
     <!-- Execution Time (s) -->
     <defs>
      <path d="M 9.8125 72.90625 
L 55.90625 72.90625 
L 55.90625 64.59375 
L 19.671875 64.59375 
L 19.671875 43.015625 
L 54.390625 43.015625 
L 54.390625 34.71875 
L 19.671875 34.71875 
L 19.671875 8.296875 
L 56.78125 8.296875 
L 56.78125 0 
L 9.8125 0 
z
" id="DejaVuSans-69"/>
      <path d="M 54.890625 54.6875 
L 35.109375 28.078125 
L 55.90625 0 
L 45.3125 0 
L 29.390625 21.484375 
L 13.484375 0 
L 2.875 0 
L 24.125 28.609375 
L 4.6875 54.6875 
L 15.28125 54.6875 
L 29.78125 35.203125 
L 44.28125 54.6875 
z
" id="DejaVuSans-120"/>
      <path d="M 48.78125 52.59375 
L 48.78125 44.1875 
Q 44.96875 46.296875 41.140625 47.34375 
Q 37.3125 48.390625 33.40625 48.390625 
Q 24.65625 48.390625 19.8125 42.84375 
Q 14.984375 37.3125 14.984375 27.296875 
Q 14.984375 17.28125 19.8125 11.734375 
Q 24.65625 6.203125 33.40625 6.203125 
Q 37.3125 6.203125 41.140625 7.25 
Q 44.96875 8.296875 48.78125 10.40625 
L 48.78125 2.09375 
Q 45.015625 0.34375 40.984375 -0.53125 
Q 36.96875 -1.421875 32.421875 -1.421875 
Q 20.0625 -1.421875 12.78125 6.34375 
Q 5.515625 14.109375 5.515625 27.296875 
Q 5.515625 40.671875 12.859375 48.328125 
Q 20.21875 56 33.015625 56 
Q 37.15625 56 41.109375 55.140625 
Q 45.0625 54.296875 48.78125 52.59375 
z
" id="DejaVuSans-99"/>
      <path d="M 8.5 21.578125 
L 8.5 54.6875 
L 17.484375 54.6875 
L 17.484375 21.921875 
Q 17.484375 14.15625 20.5 10.265625 
Q 23.53125 6.390625 29.59375 6.390625 
Q 36.859375 6.390625 41.078125 11.03125 
Q 45.3125 15.671875 45.3125 23.6875 
L 45.3125 54.6875 
L 54.296875 54.6875 
L 54.296875 0 
L 45.3125 0 
L 45.3125 8.40625 
Q 42.046875 3.421875 37.71875 1 
Q 33.40625 -1.421875 27.6875 -1.421875 
Q 18.265625 -1.421875 13.375 4.4375 
Q 8.5 10.296875 8.5 21.578125 
z
M 31.109375 56 
z
" id="DejaVuSans-117"/>
      <path d="M 9.421875 54.6875 
L 18.40625 54.6875 
L 18.40625 0 
L 9.421875 0 
z
M 9.421875 75.984375 
L 18.40625 75.984375 
L 18.40625 64.59375 
L 9.421875 64.59375 
z
" id="DejaVuSans-105"/>
      <path d="M 30.609375 48.390625 
Q 23.390625 48.390625 19.1875 42.75 
Q 14.984375 37.109375 14.984375 27.296875 
Q 14.984375 17.484375 19.15625 11.84375 
Q 23.34375 6.203125 30.609375 6.203125 
Q 37.796875 6.203125 41.984375 11.859375 
Q 46.1875 17.53125 46.1875 27.296875 
Q 46.1875 37.015625 41.984375 42.703125 
Q 37.796875 48.390625 30.609375 48.390625 
z
M 30.609375 56 
Q 42.328125 56 49.015625 48.375 
Q 55.71875 40.765625 55.71875 27.296875 
Q 55.71875 13.875 49.015625 6.21875 
Q 42.328125 -1.421875 30.609375 -1.421875 
Q 18.84375 -1.421875 12.171875 6.21875 
Q 5.515625 13.875 5.515625 27.296875 
Q 5.515625 40.765625 12.171875 48.375 
Q 18.84375 56 30.609375 56 
z
" id="DejaVuSans-111"/>
      <path d="M -0.296875 72.90625 
L 61.375 72.90625 
L 61.375 64.59375 
L 35.5 64.59375 
L 35.5 0 
L 25.59375 0 
L 25.59375 64.59375 
L -0.296875 64.59375 
z
" id="DejaVuSans-84"/>
      <path d="M 31 75.875 
Q 24.46875 64.65625 21.28125 53.65625 
Q 18.109375 42.671875 18.109375 31.390625 
Q 18.109375 20.125 21.3125 9.0625 
Q 24.515625 -2 31 -13.1875 
L 23.1875 -13.1875 
Q 15.875 -1.703125 12.234375 9.375 
Q 8.59375 20.453125 8.59375 31.390625 
Q 8.59375 42.28125 12.203125 53.3125 
Q 15.828125 64.359375 23.1875 75.875 
z
" id="DejaVuSans-40"/>
      <path d="M 8.015625 75.875 
L 15.828125 75.875 
Q 23.140625 64.359375 26.78125 53.3125 
Q 30.421875 42.28125 30.421875 31.390625 
Q 30.421875 20.453125 26.78125 9.375 
Q 23.140625 -1.703125 15.828125 -13.1875 
L 8.015625 -13.1875 
Q 14.5 -2 17.703125 9.0625 
Q 20.90625 20.125 20.90625 31.390625 
Q 20.90625 42.671875 17.703125 53.65625 
Q 14.5 64.65625 8.015625 75.875 
z
" id="DejaVuSans-41"/>
     </defs>
     <g transform="translate(37.762812 239.232344)rotate(-90)scale(0.1 -0.1)">
      <use xlink:href="#DejaVuSans-69"/>
      <use x="63.183594" xlink:href="#DejaVuSans-120"/>
      <use x="119.238281" xlink:href="#DejaVuSans-101"/>
      <use x="180.761719" xlink:href="#DejaVuSans-99"/>
      <use x="235.742188" xlink:href="#DejaVuSans-117"/>
      <use x="299.121094" xlink:href="#DejaVuSans-116"/>
      <use x="338.330078" xlink:href="#DejaVuSans-105"/>
      <use x="366.113281" xlink:href="#DejaVuSans-111"/>
      <use x="427.294922" xlink:href="#DejaVuSans-110"/>
      <use x="490.673828" xlink:href="#DejaVuSans-32"/>
      <use x="522.460938" xlink:href="#DejaVuSans-84"/>
      <use x="580.419922" xlink:href="#DejaVuSans-105"/>
      <use x="608.203125" xlink:href="#DejaVuSans-109"/>
      <use x="705.615234" xlink:href="#DejaVuSans-101"/>
      <use x="767.138672" xlink:href="#DejaVuSans-32"/>
      <use x="798.925781" xlink:href="#DejaVuSans-40"/>
      <use x="837.939453" xlink:href="#DejaVuSans-115"/>
      <use x="890.039062" xlink:href="#DejaVuSans-41"/>
     </g>
    </g>
   </g>
   <g id="line2d_13">
    <path clip-path="url(#pcc4ff9811d)" d="M 86.125909 306.269348 
L 92.921395 310.304418 
L 104.247206 306.139325 
L 120.103341 299.157081 
L 140.4898 289.669338 
L 165.406583 278.416382 
L 228.831122 245.085607 
L 410.044091 140.107325 
" style="fill:none;stroke:#0000ff;stroke-linecap:square;stroke-width:1.5;"/>
    <defs>
     <path d="M -3 3 
L 3 3 
L 3 -3 
L -3 -3 
z
" id="m07950f5ddd" style="stroke:#0000ff;stroke-linejoin:miter;"/>
    </defs>
    <g clip-path="url(#pcc4ff9811d)">
     <use style="fill:#ffffff;stroke:#0000ff;stroke-linejoin:miter;" x="86.125909" xlink:href="#m07950f5ddd" y="306.269348"/>
     <use style="fill:#ffffff;stroke:#0000ff;stroke-linejoin:miter;" x="92.921395" xlink:href="#m07950f5ddd" y="310.304418"/>
     <use style="fill:#ffffff;stroke:#0000ff;stroke-linejoin:miter;" x="104.247206" xlink:href="#m07950f5ddd" y="306.139325"/>
     <use style="fill:#ffffff;stroke:#0000ff;stroke-linejoin:miter;" x="120.103341" xlink:href="#m07950f5ddd" y="299.157081"/>
     <use style="fill:#ffffff;stroke:#0000ff;stroke-linejoin:miter;" x="140.4898" xlink:href="#m07950f5ddd" y="289.669338"/>
     <use style="fill:#ffffff;stroke:#0000ff;stroke-linejoin:miter;" x="165.406583" xlink:href="#m07950f5ddd" y="278.416382"/>
     <use style="fill:#ffffff;stroke:#0000ff;stroke-linejoin:miter;" x="228.831122" xlink:href="#m07950f5ddd" y="245.085607"/>
     <use style="fill:#ffffff;stroke:#0000ff;stroke-linejoin:miter;" x="410.044091" xlink:href="#m07950f5ddd" y="140.107325"/>
    </g>
   </g>
   <g id="line2d_14">
    <path clip-path="url(#pcc4ff9811d)" d="M 86.125909 312.24367 
L 92.921395 305.44052 
L 104.247206 293.636969 
L 120.103341 275.818963 
L 140.4898 251.633627 
L 165.406583 224.917778 
L 228.831122 146.558704 
" style="fill:none;stroke:#0000ff;stroke-linecap:square;stroke-width:1.5;"/>
    <defs>
     <path d="M 0 -3 
L -3 3 
L 3 3 
z
" id="m1d263ad9aa" style="stroke:#0000ff;stroke-linejoin:miter;"/>
    </defs>
    <g clip-path="url(#pcc4ff9811d)">
     <use style="fill:#ffffff;stroke:#0000ff;stroke-linejoin:miter;" x="86.125909" xlink:href="#m1d263ad9aa" y="312.24367"/>
     <use style="fill:#ffffff;stroke:#0000ff;stroke-linejoin:miter;" x="92.921395" xlink:href="#m1d263ad9aa" y="305.44052"/>
     <use style="fill:#ffffff;stroke:#0000ff;stroke-linejoin:miter;" x="104.247206" xlink:href="#m1d263ad9aa" y="293.636969"/>
     <use style="fill:#ffffff;stroke:#0000ff;stroke-linejoin:miter;" x="120.103341" xlink:href="#m1d263ad9aa" y="275.818963"/>
     <use style="fill:#ffffff;stroke:#0000ff;stroke-linejoin:miter;" x="140.4898" xlink:href="#m1d263ad9aa" y="251.633627"/>
     <use style="fill:#ffffff;stroke:#0000ff;stroke-linejoin:miter;" x="165.406583" xlink:href="#m1d263ad9aa" y="224.917778"/>
     <use style="fill:#ffffff;stroke:#0000ff;stroke-linejoin:miter;" x="228.831122" xlink:href="#m1d263ad9aa" y="146.558704"/>
    </g>
   </g>
   <g id="line2d_15">
    <path clip-path="url(#pcc4ff9811d)" d="M 86.125909 304.796242 
L 92.921395 310.219681 
L 104.247206 306.229373 
L 120.103341 299.749986 
L 140.4898 290.406077 
L 165.406583 280.516309 
L 228.831122 250.26656 
L 410.044091 149.066367 
" style="fill:none;stroke:#0000ff;stroke-linecap:square;stroke-width:1.5;"/>
    <defs>
     <path d="M 0 3 
C 0.795609 3 1.55874 2.683901 2.12132 2.12132 
C 2.683901 1.55874 3 0.795609 3 0 
C 3 -0.795609 2.683901 -1.55874 2.12132 -2.12132 
C 1.55874 -2.683901 0.795609 -3 0 -3 
C -0.795609 -3 -1.55874 -2.683901 -2.12132 -2.12132 
C -2.683901 -1.55874 -3 -0.795609 -3 0 
C -3 0.795609 -2.683901 1.55874 -2.12132 2.12132 
C -1.55874 2.683901 -0.795609 3 0 3 
z
" id="mfc4290c743" style="stroke:#0000ff;"/>
    </defs>
    <g clip-path="url(#pcc4ff9811d)">
     <use style="fill:#ffffff;stroke:#0000ff;" x="86.125909" xlink:href="#mfc4290c743" y="304.796242"/>
     <use style="fill:#ffffff;stroke:#0000ff;" x="92.921395" xlink:href="#mfc4290c743" y="310.219681"/>
     <use style="fill:#ffffff;stroke:#0000ff;" x="104.247206" xlink:href="#mfc4290c743" y="306.229373"/>
     <use style="fill:#ffffff;stroke:#0000ff;" x="120.103341" xlink:href="#mfc4290c743" y="299.749986"/>
     <use style="fill:#ffffff;stroke:#0000ff;" x="140.4898" xlink:href="#mfc4290c743" y="290.406077"/>
     <use style="fill:#ffffff;stroke:#0000ff;" x="165.406583" xlink:href="#mfc4290c743" y="280.516309"/>
     <use style="fill:#ffffff;stroke:#0000ff;" x="228.831122" xlink:href="#mfc4290c743" y="250.26656"/>
     <use style="fill:#ffffff;stroke:#0000ff;" x="410.044091" xlink:href="#mfc4290c743" y="149.066367"/>
    </g>
   </g>
   <g id="line2d_16">
    <path clip-path="url(#pcc4ff9811d)" d="M 86.125909 310.898106 
L 92.921395 306.348984 
L 104.247206 295.940839 
L 120.103341 282.052902 
L 140.4898 263.183712 
L 165.406583 241.140875 
" style="fill:none;stroke:#ff0000;stroke-linecap:square;stroke-width:1.5;"/>
    <defs>
     <path d="M -3 3 
L 3 3 
L 3 -3 
L -3 -3 
z
" id="m69a060365a" style="stroke:#ff0000;stroke-linejoin:miter;"/>
    </defs>
    <g clip-path="url(#pcc4ff9811d)">
     <use style="fill:#ffffff;stroke:#ff0000;stroke-linejoin:miter;" x="86.125909" xlink:href="#m69a060365a" y="310.898106"/>
     <use style="fill:#ffffff;stroke:#ff0000;stroke-linejoin:miter;" x="92.921395" xlink:href="#m69a060365a" y="306.348984"/>
     <use style="fill:#ffffff;stroke:#ff0000;stroke-linejoin:miter;" x="104.247206" xlink:href="#m69a060365a" y="295.940839"/>
     <use style="fill:#ffffff;stroke:#ff0000;stroke-linejoin:miter;" x="120.103341" xlink:href="#m69a060365a" y="282.052902"/>
     <use style="fill:#ffffff;stroke:#ff0000;stroke-linejoin:miter;" x="140.4898" xlink:href="#m69a060365a" y="263.183712"/>
     <use style="fill:#ffffff;stroke:#ff0000;stroke-linejoin:miter;" x="165.406583" xlink:href="#m69a060365a" y="241.140875"/>
    </g>
   </g>
   <g id="line2d_17">
    <path clip-path="url(#pcc4ff9811d)" d="M 86.125909 306.927566 
L 92.921395 289.261697 
L 104.247206 257.081054 
L 120.103341 213.17908 
L 140.4898 161.979672 
L 165.406583 80.792223 
" style="fill:none;stroke:#ff0000;stroke-linecap:square;stroke-width:1.5;"/>
    <defs>
     <path d="M 0 -3 
L -3 3 
L 3 3 
z
" id="med89f64603" style="stroke:#ff0000;stroke-linejoin:miter;"/>
    </defs>
    <g clip-path="url(#pcc4ff9811d)">
     <use style="fill:#ffffff;stroke:#ff0000;stroke-linejoin:miter;" x="86.125909" xlink:href="#med89f64603" y="306.927566"/>
     <use style="fill:#ffffff;stroke:#ff0000;stroke-linejoin:miter;" x="92.921395" xlink:href="#med89f64603" y="289.261697"/>
     <use style="fill:#ffffff;stroke:#ff0000;stroke-linejoin:miter;" x="104.247206" xlink:href="#med89f64603" y="257.081054"/>
     <use style="fill:#ffffff;stroke:#ff0000;stroke-linejoin:miter;" x="120.103341" xlink:href="#med89f64603" y="213.17908"/>
     <use style="fill:#ffffff;stroke:#ff0000;stroke-linejoin:miter;" x="140.4898" xlink:href="#med89f64603" y="161.979672"/>
     <use style="fill:#ffffff;stroke:#ff0000;stroke-linejoin:miter;" x="165.406583" xlink:href="#med89f64603" y="80.792223"/>
    </g>
   </g>
   <g id="line2d_18">
    <path clip-path="url(#pcc4ff9811d)" d="M 86.125909 309.69737 
L 92.921395 304.063575 
L 104.247206 293.047876 
L 120.103341 277.170621 
L 140.4898 257.250421 
L 165.406583 226.403733 
" style="fill:none;stroke:#ff0000;stroke-linecap:square;stroke-width:1.5;"/>
    <defs>
     <path d="M 0 3 
C 0.795609 3 1.55874 2.683901 2.12132 2.12132 
C 2.683901 1.55874 3 0.795609 3 0 
C 3 -0.795609 2.683901 -1.55874 2.12132 -2.12132 
C 1.55874 -2.683901 0.795609 -3 0 -3 
C -0.795609 -3 -1.55874 -2.683901 -2.12132 -2.12132 
C -2.683901 -1.55874 -3 -0.795609 -3 0 
C -3 0.795609 -2.683901 1.55874 -2.12132 2.12132 
C -1.55874 2.683901 -0.795609 3 0 3 
z
" id="m72fb6db398" style="stroke:#ff0000;"/>
    </defs>
    <g clip-path="url(#pcc4ff9811d)">
     <use style="fill:#ffffff;stroke:#ff0000;" x="86.125909" xlink:href="#m72fb6db398" y="309.69737"/>
     <use style="fill:#ffffff;stroke:#ff0000;" x="92.921395" xlink:href="#m72fb6db398" y="304.063575"/>
     <use style="fill:#ffffff;stroke:#ff0000;" x="104.247206" xlink:href="#m72fb6db398" y="293.047876"/>
     <use style="fill:#ffffff;stroke:#ff0000;" x="120.103341" xlink:href="#m72fb6db398" y="277.170621"/>
     <use style="fill:#ffffff;stroke:#ff0000;" x="140.4898" xlink:href="#m72fb6db398" y="257.250421"/>
     <use style="fill:#ffffff;stroke:#ff0000;" x="165.406583" xlink:href="#m72fb6db398" y="226.403733"/>
    </g>
   </g>
   <g id="line2d_19">
    <path clip-path="url(#pcc4ff9811d)" d="M 86.125909 307.846971 
L 92.921395 295.227821 
L 104.247206 270.645759 
L 120.103341 236.688879 
L 140.4898 183.260362 
L 165.406583 116.300106 
" style="fill:none;stroke:#ff0000;stroke-linecap:square;stroke-width:1.5;"/>
    <defs>
     <path d="M 0 -3 
L -3 3 
L 3 3 
z
" id="m066303d017" style="stroke:#ff0000;stroke-linejoin:miter;"/>
    </defs>
    <g clip-path="url(#pcc4ff9811d)">
     <use style="fill:#ff0000;stroke:#ff0000;stroke-linejoin:miter;" x="86.125909" xlink:href="#m066303d017" y="307.846971"/>
     <use style="fill:#ff0000;stroke:#ff0000;stroke-linejoin:miter;" x="92.921395" xlink:href="#m066303d017" y="295.227821"/>
     <use style="fill:#ff0000;stroke:#ff0000;stroke-linejoin:miter;" x="104.247206" xlink:href="#m066303d017" y="270.645759"/>
     <use style="fill:#ff0000;stroke:#ff0000;stroke-linejoin:miter;" x="120.103341" xlink:href="#m066303d017" y="236.688879"/>
     <use style="fill:#ff0000;stroke:#ff0000;stroke-linejoin:miter;" x="140.4898" xlink:href="#m066303d017" y="183.260362"/>
     <use style="fill:#ff0000;stroke:#ff0000;stroke-linejoin:miter;" x="165.406583" xlink:href="#m066303d017" y="116.300106"/>
    </g>
   </g>
   <g id="line2d_20">
    <path clip-path="url(#pcc4ff9811d)" d="M 86.125909 311.051025 
L 92.921395 304.769894 
L 104.247206 291.432307 
L 120.103341 267.301995 
L 140.4898 228.824774 
L 165.406583 169.117898 
" style="fill:none;stroke:#ff0000;stroke-linecap:square;stroke-width:1.5;"/>
    <defs>
     <path d="M -3 3 
L 3 3 
L 3 -3 
L -3 -3 
z
" id="m64fea336e1" style="stroke:#ff0000;stroke-linejoin:miter;"/>
    </defs>
    <g clip-path="url(#pcc4ff9811d)">
     <use style="fill:#ff0000;stroke:#ff0000;stroke-linejoin:miter;" x="86.125909" xlink:href="#m64fea336e1" y="311.051025"/>
     <use style="fill:#ff0000;stroke:#ff0000;stroke-linejoin:miter;" x="92.921395" xlink:href="#m64fea336e1" y="304.769894"/>
     <use style="fill:#ff0000;stroke:#ff0000;stroke-linejoin:miter;" x="104.247206" xlink:href="#m64fea336e1" y="291.432307"/>
     <use style="fill:#ff0000;stroke:#ff0000;stroke-linejoin:miter;" x="120.103341" xlink:href="#m64fea336e1" y="267.301995"/>
     <use style="fill:#ff0000;stroke:#ff0000;stroke-linejoin:miter;" x="140.4898" xlink:href="#m64fea336e1" y="228.824774"/>
     <use style="fill:#ff0000;stroke:#ff0000;stroke-linejoin:miter;" x="165.406583" xlink:href="#m64fea336e1" y="169.117898"/>
    </g>
   </g>
   <g id="line2d_21">
    <path clip-path="url(#pcc4ff9811d)" d="M 86.125909 309.765903 
L 92.921395 304.046076 
L 104.247206 286.540738 
L 120.103341 257.055758 
L 140.4898 210.942601 
L 165.406583 126.817437 
" style="fill:none;stroke:#ff0000;stroke-linecap:square;stroke-width:1.5;"/>
    <defs>
     <path d="M 0 3 
C 0.795609 3 1.55874 2.683901 2.12132 2.12132 
C 2.683901 1.55874 3 0.795609 3 0 
C 3 -0.795609 2.683901 -1.55874 2.12132 -2.12132 
C 1.55874 -2.683901 0.795609 -3 0 -3 
C -0.795609 -3 -1.55874 -2.683901 -2.12132 -2.12132 
C -2.683901 -1.55874 -3 -0.795609 -3 0 
C -3 0.795609 -2.683901 1.55874 -2.12132 2.12132 
C -1.55874 2.683901 -0.795609 3 0 3 
z
" id="m8cbb22af8a" style="stroke:#ff0000;"/>
    </defs>
    <g clip-path="url(#pcc4ff9811d)">
     <use style="fill:#ff0000;stroke:#ff0000;" x="86.125909" xlink:href="#m8cbb22af8a" y="309.765903"/>
     <use style="fill:#ff0000;stroke:#ff0000;" x="92.921395" xlink:href="#m8cbb22af8a" y="304.046076"/>
     <use style="fill:#ff0000;stroke:#ff0000;" x="104.247206" xlink:href="#m8cbb22af8a" y="286.540738"/>
     <use style="fill:#ff0000;stroke:#ff0000;" x="120.103341" xlink:href="#m8cbb22af8a" y="257.055758"/>
     <use style="fill:#ff0000;stroke:#ff0000;" x="140.4898" xlink:href="#m8cbb22af8a" y="210.942601"/>
     <use style="fill:#ff0000;stroke:#ff0000;" x="165.406583" xlink:href="#m8cbb22af8a" y="126.817437"/>
    </g>
   </g>
   <g id="line2d_22">
    <path clip-path="url(#pcc4ff9811d)" d="M 86.125909 313.052727 
L 92.921395 309.884254 
L 104.247206 303.539186 
L 120.103341 295.420181 
L 140.4898 281.388167 
L 165.406583 264.199009 
L 228.831122 224.615929 
L 410.044091 72.507273 
" style="fill:none;stroke:#008000;stroke-linecap:square;stroke-width:1.5;"/>
    <defs>
     <path d="M -3 3 
L 3 3 
L 3 -3 
L -3 -3 
z
" id="mce2419ab75" style="stroke:#008000;stroke-linejoin:miter;"/>
    </defs>
    <g clip-path="url(#pcc4ff9811d)">
     <use style="fill:#ffffff;stroke:#008000;stroke-linejoin:miter;" x="86.125909" xlink:href="#mce2419ab75" y="313.052727"/>
     <use style="fill:#ffffff;stroke:#008000;stroke-linejoin:miter;" x="92.921395" xlink:href="#mce2419ab75" y="309.884254"/>
     <use style="fill:#ffffff;stroke:#008000;stroke-linejoin:miter;" x="104.247206" xlink:href="#mce2419ab75" y="303.539186"/>
     <use style="fill:#ffffff;stroke:#008000;stroke-linejoin:miter;" x="120.103341" xlink:href="#mce2419ab75" y="295.420181"/>
     <use style="fill:#ffffff;stroke:#008000;stroke-linejoin:miter;" x="140.4898" xlink:href="#mce2419ab75" y="281.388167"/>
     <use style="fill:#ffffff;stroke:#008000;stroke-linejoin:miter;" x="165.406583" xlink:href="#mce2419ab75" y="264.199009"/>
     <use style="fill:#ffffff;stroke:#008000;stroke-linejoin:miter;" x="228.831122" xlink:href="#mce2419ab75" y="224.615929"/>
     <use style="fill:#ffffff;stroke:#008000;stroke-linejoin:miter;" x="410.044091" xlink:href="#mce2419ab75" y="72.507273"/>
    </g>
   </g>
   <g id="line2d_23">
    <path clip-path="url(#pcc4ff9811d)" d="M 86.125909 312.486574 
L 92.921395 305.715038 
L 104.247206 293.224131 
L 120.103341 275.521958 
L 140.4898 247.580392 
L 165.406583 216.507694 
L 228.831122 125.003609 
" style="fill:none;stroke:#008000;stroke-linecap:square;stroke-width:1.5;"/>
    <defs>
     <path d="M 0 -3 
L -3 3 
L 3 3 
z
" id="m2c7b8514d6" style="stroke:#008000;stroke-linejoin:miter;"/>
    </defs>
    <g clip-path="url(#pcc4ff9811d)">
     <use style="fill:#ffffff;stroke:#008000;stroke-linejoin:miter;" x="86.125909" xlink:href="#m2c7b8514d6" y="312.486574"/>
     <use style="fill:#ffffff;stroke:#008000;stroke-linejoin:miter;" x="92.921395" xlink:href="#m2c7b8514d6" y="305.715038"/>
     <use style="fill:#ffffff;stroke:#008000;stroke-linejoin:miter;" x="104.247206" xlink:href="#m2c7b8514d6" y="293.224131"/>
     <use style="fill:#ffffff;stroke:#008000;stroke-linejoin:miter;" x="120.103341" xlink:href="#m2c7b8514d6" y="275.521958"/>
     <use style="fill:#ffffff;stroke:#008000;stroke-linejoin:miter;" x="140.4898" xlink:href="#m2c7b8514d6" y="247.580392"/>
     <use style="fill:#ffffff;stroke:#008000;stroke-linejoin:miter;" x="165.406583" xlink:href="#m2c7b8514d6" y="216.507694"/>
     <use style="fill:#ffffff;stroke:#008000;stroke-linejoin:miter;" x="228.831122" xlink:href="#m2c7b8514d6" y="125.003609"/>
    </g>
   </g>
   <g id="line2d_24">
    <path clip-path="url(#pcc4ff9811d)" d="M 86.125909 312.725304 
L 92.921395 309.816985 
L 104.247206 303.716559 
L 120.103341 296.396886 
L 140.4898 283.124086 
L 165.406583 267.589792 
L 228.831122 231.211868 
L 410.044091 79.636013 
" style="fill:none;stroke:#008000;stroke-linecap:square;stroke-width:1.5;"/>
    <defs>
     <path d="M 0 3 
C 0.795609 3 1.55874 2.683901 2.12132 2.12132 
C 2.683901 1.55874 3 0.795609 3 0 
C 3 -0.795609 2.683901 -1.55874 2.12132 -2.12132 
C 1.55874 -2.683901 0.795609 -3 0 -3 
C -0.795609 -3 -1.55874 -2.683901 -2.12132 -2.12132 
C -2.683901 -1.55874 -3 -0.795609 -3 0 
C -3 0.795609 -2.683901 1.55874 -2.12132 2.12132 
C -1.55874 2.683901 -0.795609 3 0 3 
z
" id="m398a624ca8" style="stroke:#008000;"/>
    </defs>
    <g clip-path="url(#pcc4ff9811d)">
     <use style="fill:#ffffff;stroke:#008000;" x="86.125909" xlink:href="#m398a624ca8" y="312.725304"/>
     <use style="fill:#ffffff;stroke:#008000;" x="92.921395" xlink:href="#m398a624ca8" y="309.816985"/>
     <use style="fill:#ffffff;stroke:#008000;" x="104.247206" xlink:href="#m398a624ca8" y="303.716559"/>
     <use style="fill:#ffffff;stroke:#008000;" x="120.103341" xlink:href="#m398a624ca8" y="296.396886"/>
     <use style="fill:#ffffff;stroke:#008000;" x="140.4898" xlink:href="#m398a624ca8" y="283.124086"/>
     <use style="fill:#ffffff;stroke:#008000;" x="165.406583" xlink:href="#m398a624ca8" y="267.589792"/>
     <use style="fill:#ffffff;stroke:#008000;" x="228.831122" xlink:href="#m398a624ca8" y="231.211868"/>
     <use style="fill:#ffffff;stroke:#008000;" x="410.044091" xlink:href="#m398a624ca8" y="79.636013"/>
    </g>
   </g>
   <g id="line2d_25">
    <path clip-path="url(#pcc4ff9811d)" d="M 86.125909 311.108082 
L 92.921395 304.129567 
L 104.247206 292.501122 
L 120.103341 275.423662 
L 140.4898 249.603455 
L 165.406583 219.979165 
L 228.831122 134.75198 
" style="fill:none;stroke:#008000;stroke-linecap:square;stroke-width:1.5;"/>
    <defs>
     <path d="M 0 -3 
L -3 3 
L 3 3 
z
" id="mf1787fe9c7" style="stroke:#008000;stroke-linejoin:miter;"/>
    </defs>
    <g clip-path="url(#pcc4ff9811d)">
     <use style="fill:#008000;stroke:#008000;stroke-linejoin:miter;" x="86.125909" xlink:href="#mf1787fe9c7" y="311.108082"/>
     <use style="fill:#008000;stroke:#008000;stroke-linejoin:miter;" x="92.921395" xlink:href="#mf1787fe9c7" y="304.129567"/>
     <use style="fill:#008000;stroke:#008000;stroke-linejoin:miter;" x="104.247206" xlink:href="#mf1787fe9c7" y="292.501122"/>
     <use style="fill:#008000;stroke:#008000;stroke-linejoin:miter;" x="120.103341" xlink:href="#mf1787fe9c7" y="275.423662"/>
     <use style="fill:#008000;stroke:#008000;stroke-linejoin:miter;" x="140.4898" xlink:href="#mf1787fe9c7" y="249.603455"/>
     <use style="fill:#008000;stroke:#008000;stroke-linejoin:miter;" x="165.406583" xlink:href="#mf1787fe9c7" y="219.979165"/>
     <use style="fill:#008000;stroke:#008000;stroke-linejoin:miter;" x="228.831122" xlink:href="#mf1787fe9c7" y="134.75198"/>
    </g>
   </g>
   <g id="line2d_26">
    <path clip-path="url(#pcc4ff9811d)" d="M 86.125909 312.372668 
L 92.921395 309.293507 
L 104.247206 303.144856 
L 120.103341 295.443243 
L 140.4898 282.096805 
L 165.406583 265.728395 
L 228.831122 231.067775 
L 410.044091 96.626623 
" style="fill:none;stroke:#008000;stroke-linecap:square;stroke-width:1.5;"/>
    <defs>
     <path d="M -3 3 
L 3 3 
L 3 -3 
L -3 -3 
z
" id="m62e9cf885c" style="stroke:#008000;stroke-linejoin:miter;"/>
    </defs>
    <g clip-path="url(#pcc4ff9811d)">
     <use style="fill:#008000;stroke:#008000;stroke-linejoin:miter;" x="86.125909" xlink:href="#m62e9cf885c" y="312.372668"/>
     <use style="fill:#008000;stroke:#008000;stroke-linejoin:miter;" x="92.921395" xlink:href="#m62e9cf885c" y="309.293507"/>
     <use style="fill:#008000;stroke:#008000;stroke-linejoin:miter;" x="104.247206" xlink:href="#m62e9cf885c" y="303.144856"/>
     <use style="fill:#008000;stroke:#008000;stroke-linejoin:miter;" x="120.103341" xlink:href="#m62e9cf885c" y="295.443243"/>
     <use style="fill:#008000;stroke:#008000;stroke-linejoin:miter;" x="140.4898" xlink:href="#m62e9cf885c" y="282.096805"/>
     <use style="fill:#008000;stroke:#008000;stroke-linejoin:miter;" x="165.406583" xlink:href="#m62e9cf885c" y="265.728395"/>
     <use style="fill:#008000;stroke:#008000;stroke-linejoin:miter;" x="228.831122" xlink:href="#m62e9cf885c" y="231.067775"/>
     <use style="fill:#008000;stroke:#008000;stroke-linejoin:miter;" x="410.044091" xlink:href="#m62e9cf885c" y="96.626623"/>
    </g>
   </g>
   <g id="line2d_27">
    <path clip-path="url(#pcc4ff9811d)" d="M 86.125909 310.980702 
L 92.921395 309.146455 
L 104.247206 303.160248 
L 120.103341 295.482882 
L 140.4898 283.514314 
L 165.406583 269.147501 
L 228.831122 236.297984 
L 410.044091 106.221338 
" style="fill:none;stroke:#008000;stroke-linecap:square;stroke-width:1.5;"/>
    <defs>
     <path d="M 0 3 
C 0.795609 3 1.55874 2.683901 2.12132 2.12132 
C 2.683901 1.55874 3 0.795609 3 0 
C 3 -0.795609 2.683901 -1.55874 2.12132 -2.12132 
C 1.55874 -2.683901 0.795609 -3 0 -3 
C -0.795609 -3 -1.55874 -2.683901 -2.12132 -2.12132 
C -2.683901 -1.55874 -3 -0.795609 -3 0 
C -3 0.795609 -2.683901 1.55874 -2.12132 2.12132 
C -1.55874 2.683901 -0.795609 3 0 3 
z
" id="m9674fe3005" style="stroke:#008000;"/>
    </defs>
    <g clip-path="url(#pcc4ff9811d)">
     <use style="fill:#008000;stroke:#008000;" x="86.125909" xlink:href="#m9674fe3005" y="310.980702"/>
     <use style="fill:#008000;stroke:#008000;" x="92.921395" xlink:href="#m9674fe3005" y="309.146455"/>
     <use style="fill:#008000;stroke:#008000;" x="104.247206" xlink:href="#m9674fe3005" y="303.160248"/>
     <use style="fill:#008000;stroke:#008000;" x="120.103341" xlink:href="#m9674fe3005" y="295.482882"/>
     <use style="fill:#008000;stroke:#008000;" x="140.4898" xlink:href="#m9674fe3005" y="283.514314"/>
     <use style="fill:#008000;stroke:#008000;" x="165.406583" xlink:href="#m9674fe3005" y="269.147501"/>
     <use style="fill:#008000;stroke:#008000;" x="228.831122" xlink:href="#m9674fe3005" y="236.297984"/>
     <use style="fill:#008000;stroke:#008000;" x="410.044091" xlink:href="#m9674fe3005" y="106.221338"/>
    </g>
   </g>
   <g id="patch_3">
    <path d="M 69.93 325.08 
L 69.93 60.48 
" style="fill:none;stroke:#000000;stroke-linecap:square;stroke-linejoin:miter;stroke-width:0.8;"/>
   </g>
   <g id="patch_4">
    <path d="M 426.24 325.08 
L 426.24 60.48 
" style="fill:none;stroke:#000000;stroke-linecap:square;stroke-linejoin:miter;stroke-width:0.8;"/>
   </g>
   <g id="patch_5">
    <path d="M 69.93 325.08 
L 426.24 325.08 
" style="fill:none;stroke:#000000;stroke-linecap:square;stroke-linejoin:miter;stroke-width:0.8;"/>
   </g>
   <g id="patch_6">
    <path d="M 69.93 60.48 
L 426.24 60.48 
" style="fill:none;stroke:#000000;stroke-linecap:square;stroke-linejoin:miter;stroke-width:0.8;"/>
   </g>
   <g id="text_15">
    <!-- Perf. Portability of Lid-Cavity Benchmark in Firedrake/PyOP2 -->
    <defs>
     <path d="M 19.671875 64.796875 
L 19.671875 37.40625 
L 32.078125 37.40625 
Q 38.96875 37.40625 42.71875 40.96875 
Q 46.484375 44.53125 46.484375 51.125 
Q 46.484375 57.671875 42.71875 61.234375 
Q 38.96875 64.796875 32.078125 64.796875 
z
M 9.8125 72.90625 
L 32.078125 72.90625 
Q 44.34375 72.90625 50.609375 67.359375 
Q 56.890625 61.8125 56.890625 51.125 
Q 56.890625 40.328125 50.609375 34.8125 
Q 44.34375 29.296875 32.078125 29.296875 
L 19.671875 29.296875 
L 19.671875 0 
L 9.8125 0 
z
" id="DejaVuSans-80"/>
     <path d="M 41.109375 46.296875 
Q 39.59375 47.171875 37.8125 47.578125 
Q 36.03125 48 33.890625 48 
Q 26.265625 48 22.1875 43.046875 
Q 18.109375 38.09375 18.109375 28.8125 
L 18.109375 0 
L 9.078125 0 
L 9.078125 54.6875 
L 18.109375 54.6875 
L 18.109375 46.1875 
Q 20.953125 51.171875 25.484375 53.578125 
Q 30.03125 56 36.53125 56 
Q 37.453125 56 38.578125 55.875 
Q 39.703125 55.765625 41.0625 55.515625 
z
" id="DejaVuSans-114"/>
     <path d="M 37.109375 75.984375 
L 37.109375 68.5 
L 28.515625 68.5 
Q 23.6875 68.5 21.796875 66.546875 
Q 19.921875 64.59375 19.921875 59.515625 
L 19.921875 54.6875 
L 34.71875 54.6875 
L 34.71875 47.703125 
L 19.921875 47.703125 
L 19.921875 0 
L 10.890625 0 
L 10.890625 47.703125 
L 2.296875 47.703125 
L 2.296875 54.6875 
L 10.890625 54.6875 
L 10.890625 58.5 
Q 10.890625 67.625 15.140625 71.796875 
Q 19.390625 75.984375 28.609375 75.984375 
z
" id="DejaVuSans-102"/>
     <path d="M 10.6875 12.40625 
L 21 12.40625 
L 21 0 
L 10.6875 0 
z
" id="DejaVuSans-46"/>
     <path d="M 34.28125 27.484375 
Q 23.390625 27.484375 19.1875 25 
Q 14.984375 22.515625 14.984375 16.5 
Q 14.984375 11.71875 18.140625 8.90625 
Q 21.296875 6.109375 26.703125 6.109375 
Q 34.1875 6.109375 38.703125 11.40625 
Q 43.21875 16.703125 43.21875 25.484375 
L 43.21875 27.484375 
z
M 52.203125 31.203125 
L 52.203125 0 
L 43.21875 0 
L 43.21875 8.296875 
Q 40.140625 3.328125 35.546875 0.953125 
Q 30.953125 -1.421875 24.3125 -1.421875 
Q 15.921875 -1.421875 10.953125 3.296875 
Q 6 8.015625 6 15.921875 
Q 6 25.140625 12.171875 29.828125 
Q 18.359375 34.515625 30.609375 34.515625 
L 43.21875 34.515625 
L 43.21875 35.40625 
Q 43.21875 41.609375 39.140625 45 
Q 35.0625 48.390625 27.6875 48.390625 
Q 23 48.390625 18.546875 47.265625 
Q 14.109375 46.140625 10.015625 43.890625 
L 10.015625 52.203125 
Q 14.9375 54.109375 19.578125 55.046875 
Q 24.21875 56 28.609375 56 
Q 40.484375 56 46.34375 49.84375 
Q 52.203125 43.703125 52.203125 31.203125 
z
" id="DejaVuSans-97"/>
     <path d="M 48.6875 27.296875 
Q 48.6875 37.203125 44.609375 42.84375 
Q 40.53125 48.484375 33.40625 48.484375 
Q 26.265625 48.484375 22.1875 42.84375 
Q 18.109375 37.203125 18.109375 27.296875 
Q 18.109375 17.390625 22.1875 11.75 
Q 26.265625 6.109375 33.40625 6.109375 
Q 40.53125 6.109375 44.609375 11.75 
Q 48.6875 17.390625 48.6875 27.296875 
z
M 18.109375 46.390625 
Q 20.953125 51.265625 25.265625 53.625 
Q 29.59375 56 35.59375 56 
Q 45.5625 56 51.78125 48.09375 
Q 58.015625 40.1875 58.015625 27.296875 
Q 58.015625 14.40625 51.78125 6.484375 
Q 45.5625 -1.421875 35.59375 -1.421875 
Q 29.59375 -1.421875 25.265625 0.953125 
Q 20.953125 3.328125 18.109375 8.203125 
L 18.109375 0 
L 9.078125 0 
L 9.078125 75.984375 
L 18.109375 75.984375 
z
" id="DejaVuSans-98"/>
     <path d="M 32.171875 -5.078125 
Q 28.375 -14.84375 24.75 -17.8125 
Q 21.140625 -20.796875 15.09375 -20.796875 
L 7.90625 -20.796875 
L 7.90625 -13.28125 
L 13.1875 -13.28125 
Q 16.890625 -13.28125 18.9375 -11.515625 
Q 21 -9.765625 23.484375 -3.21875 
L 25.09375 0.875 
L 2.984375 54.6875 
L 12.5 54.6875 
L 29.59375 11.921875 
L 46.6875 54.6875 
L 56.203125 54.6875 
z
" id="DejaVuSans-121"/>
     <path d="M 9.8125 72.90625 
L 19.671875 72.90625 
L 19.671875 8.296875 
L 55.171875 8.296875 
L 55.171875 0 
L 9.8125 0 
z
" id="DejaVuSans-76"/>
     <path d="M 45.40625 46.390625 
L 45.40625 75.984375 
L 54.390625 75.984375 
L 54.390625 0 
L 45.40625 0 
L 45.40625 8.203125 
Q 42.578125 3.328125 38.25 0.953125 
Q 33.9375 -1.421875 27.875 -1.421875 
Q 17.96875 -1.421875 11.734375 6.484375 
Q 5.515625 14.40625 5.515625 27.296875 
Q 5.515625 40.1875 11.734375 48.09375 
Q 17.96875 56 27.875 56 
Q 33.9375 56 38.25 53.625 
Q 42.578125 51.265625 45.40625 46.390625 
z
M 14.796875 27.296875 
Q 14.796875 17.390625 18.875 11.75 
Q 22.953125 6.109375 30.078125 6.109375 
Q 37.203125 6.109375 41.296875 11.75 
Q 45.40625 17.390625 45.40625 27.296875 
Q 45.40625 37.203125 41.296875 42.84375 
Q 37.203125 48.484375 30.078125 48.484375 
Q 22.953125 48.484375 18.875 42.84375 
Q 14.796875 37.203125 14.796875 27.296875 
z
" id="DejaVuSans-100"/>
     <path d="M 4.890625 31.390625 
L 31.203125 31.390625 
L 31.203125 23.390625 
L 4.890625 23.390625 
z
" id="DejaVuSans-45"/>
     <path d="M 64.40625 67.28125 
L 64.40625 56.890625 
Q 59.421875 61.53125 53.78125 63.8125 
Q 48.140625 66.109375 41.796875 66.109375 
Q 29.296875 66.109375 22.65625 58.46875 
Q 16.015625 50.828125 16.015625 36.375 
Q 16.015625 21.96875 22.65625 14.328125 
Q 29.296875 6.6875 41.796875 6.6875 
Q 48.140625 6.6875 53.78125 8.984375 
Q 59.421875 11.28125 64.40625 15.921875 
L 64.40625 5.609375 
Q 59.234375 2.09375 53.4375 0.328125 
Q 47.65625 -1.421875 41.21875 -1.421875 
Q 24.65625 -1.421875 15.125 8.703125 
Q 5.609375 18.84375 5.609375 36.375 
Q 5.609375 53.953125 15.125 64.078125 
Q 24.65625 74.21875 41.21875 74.21875 
Q 47.75 74.21875 53.53125 72.484375 
Q 59.328125 70.75 64.40625 67.28125 
z
" id="DejaVuSans-67"/>
     <path d="M 2.984375 54.6875 
L 12.5 54.6875 
L 29.59375 8.796875 
L 46.6875 54.6875 
L 56.203125 54.6875 
L 35.6875 0 
L 23.484375 0 
z
" id="DejaVuSans-118"/>
     <path d="M 19.671875 34.8125 
L 19.671875 8.109375 
L 35.5 8.109375 
Q 43.453125 8.109375 47.28125 11.40625 
Q 51.125 14.703125 51.125 21.484375 
Q 51.125 28.328125 47.28125 31.5625 
Q 43.453125 34.8125 35.5 34.8125 
z
M 19.671875 64.796875 
L 19.671875 42.828125 
L 34.28125 42.828125 
Q 41.5 42.828125 45.03125 45.53125 
Q 48.578125 48.25 48.578125 53.8125 
Q 48.578125 59.328125 45.03125 62.0625 
Q 41.5 64.796875 34.28125 64.796875 
z
M 9.8125 72.90625 
L 35.015625 72.90625 
Q 46.296875 72.90625 52.390625 68.21875 
Q 58.5 63.53125 58.5 54.890625 
Q 58.5 48.1875 55.375 44.234375 
Q 52.25 40.28125 46.1875 39.3125 
Q 53.46875 37.75 57.5 32.78125 
Q 61.53125 27.828125 61.53125 20.40625 
Q 61.53125 10.640625 54.890625 5.3125 
Q 48.25 0 35.984375 0 
L 9.8125 0 
z
" id="DejaVuSans-66"/>
     <path d="M 9.078125 75.984375 
L 18.109375 75.984375 
L 18.109375 31.109375 
L 44.921875 54.6875 
L 56.390625 54.6875 
L 27.390625 29.109375 
L 57.625 0 
L 45.90625 0 
L 18.109375 26.703125 
L 18.109375 0 
L 9.078125 0 
z
" id="DejaVuSans-107"/>
     <path d="M 9.8125 72.90625 
L 51.703125 72.90625 
L 51.703125 64.59375 
L 19.671875 64.59375 
L 19.671875 43.109375 
L 48.578125 43.109375 
L 48.578125 34.8125 
L 19.671875 34.8125 
L 19.671875 0 
L 9.8125 0 
z
" id="DejaVuSans-70"/>
     <path d="M 25.390625 72.90625 
L 33.6875 72.90625 
L 8.296875 -9.28125 
L 0 -9.28125 
z
" id="DejaVuSans-47"/>
     <path d="M 39.40625 66.21875 
Q 28.65625 66.21875 22.328125 58.203125 
Q 16.015625 50.203125 16.015625 36.375 
Q 16.015625 22.609375 22.328125 14.59375 
Q 28.65625 6.59375 39.40625 6.59375 
Q 50.140625 6.59375 56.421875 14.59375 
Q 62.703125 22.609375 62.703125 36.375 
Q 62.703125 50.203125 56.421875 58.203125 
Q 50.140625 66.21875 39.40625 66.21875 
z
M 39.40625 74.21875 
Q 54.734375 74.21875 63.90625 63.9375 
Q 73.09375 53.65625 73.09375 36.375 
Q 73.09375 19.140625 63.90625 8.859375 
Q 54.734375 -1.421875 39.40625 -1.421875 
Q 24.03125 -1.421875 14.8125 8.828125 
Q 5.609375 19.09375 5.609375 36.375 
Q 5.609375 53.65625 14.8125 63.9375 
Q 24.03125 74.21875 39.40625 74.21875 
z
" id="DejaVuSans-79"/>
    </defs>
    <g transform="translate(68.865 54.48)scale(0.12 -0.12)">
     <use xlink:href="#DejaVuSans-80"/>
     <use x="56.677734" xlink:href="#DejaVuSans-101"/>
     <use x="118.201172" xlink:href="#DejaVuSans-114"/>
     <use x="159.314453" xlink:href="#DejaVuSans-102"/>
     <use x="187.269531" xlink:href="#DejaVuSans-46"/>
     <use x="219.056641" xlink:href="#DejaVuSans-32"/>
     <use x="250.84375" xlink:href="#DejaVuSans-80"/>
     <use x="307.521484" xlink:href="#DejaVuSans-111"/>
     <use x="368.703125" xlink:href="#DejaVuSans-114"/>
     <use x="409.816406" xlink:href="#DejaVuSans-116"/>
     <use x="449.025391" xlink:href="#DejaVuSans-97"/>
     <use x="510.304688" xlink:href="#DejaVuSans-98"/>
     <use x="573.78125" xlink:href="#DejaVuSans-105"/>
     <use x="601.564453" xlink:href="#DejaVuSans-108"/>
     <use x="629.347656" xlink:href="#DejaVuSans-105"/>
     <use x="657.130859" xlink:href="#DejaVuSans-116"/>
     <use x="696.339844" xlink:href="#DejaVuSans-121"/>
     <use x="755.519531" xlink:href="#DejaVuSans-32"/>
     <use x="787.306641" xlink:href="#DejaVuSans-111"/>
     <use x="848.488281" xlink:href="#DejaVuSans-102"/>
     <use x="883.693359" xlink:href="#DejaVuSans-32"/>
     <use x="915.480469" xlink:href="#DejaVuSans-76"/>
     <use x="971.193359" xlink:href="#DejaVuSans-105"/>
     <use x="998.976562" xlink:href="#DejaVuSans-100"/>
     <use x="1062.453125" xlink:href="#DejaVuSans-45"/>
     <use x="1098.537109" xlink:href="#DejaVuSans-67"/>
     <use x="1168.361328" xlink:href="#DejaVuSans-97"/>
     <use x="1229.640625" xlink:href="#DejaVuSans-118"/>
     <use x="1288.820312" xlink:href="#DejaVuSans-105"/>
     <use x="1316.603516" xlink:href="#DejaVuSans-116"/>
     <use x="1355.8125" xlink:href="#DejaVuSans-121"/>
     <use x="1414.992188" xlink:href="#DejaVuSans-32"/>
     <use x="1446.779297" xlink:href="#DejaVuSans-66"/>
     <use x="1515.382812" xlink:href="#DejaVuSans-101"/>
     <use x="1576.90625" xlink:href="#DejaVuSans-110"/>
     <use x="1640.285156" xlink:href="#DejaVuSans-99"/>
     <use x="1695.265625" xlink:href="#DejaVuSans-104"/>
     <use x="1758.644531" xlink:href="#DejaVuSans-109"/>
     <use x="1856.056641" xlink:href="#DejaVuSans-97"/>
     <use x="1917.335938" xlink:href="#DejaVuSans-114"/>
     <use x="1958.449219" xlink:href="#DejaVuSans-107"/>
     <use x="2016.359375" xlink:href="#DejaVuSans-32"/>
     <use x="2048.146484" xlink:href="#DejaVuSans-105"/>
     <use x="2075.929688" xlink:href="#DejaVuSans-110"/>
     <use x="2139.308594" xlink:href="#DejaVuSans-32"/>
     <use x="2171.095703" xlink:href="#DejaVuSans-70"/>
     <use x="2221.365234" xlink:href="#DejaVuSans-105"/>
     <use x="2249.148438" xlink:href="#DejaVuSans-114"/>
     <use x="2288.011719" xlink:href="#DejaVuSans-101"/>
     <use x="2349.535156" xlink:href="#DejaVuSans-100"/>
     <use x="2413.011719" xlink:href="#DejaVuSans-114"/>
     <use x="2454.125" xlink:href="#DejaVuSans-97"/>
     <use x="2515.404297" xlink:href="#DejaVuSans-107"/>
     <use x="2569.689453" xlink:href="#DejaVuSans-101"/>
     <use x="2631.212891" xlink:href="#DejaVuSans-47"/>
     <use x="2664.904297" xlink:href="#DejaVuSans-80"/>
     <use x="2725.207031" xlink:href="#DejaVuSans-121"/>
     <use x="2784.386719" xlink:href="#DejaVuSans-79"/>
     <use x="2863.097656" xlink:href="#DejaVuSans-80"/>
     <use x="2923.400391" xlink:href="#DejaVuSans-50"/>
    </g>
   </g>
   <g id="legend_1">
    <g id="patch_7">
     <path d="M 428.24 325.08 
L 536.994687 325.08 
Q 538.994687 325.08 538.994687 323.08 
L 538.994687 99.73625 
Q 538.994687 97.73625 536.994687 97.73625 
L 428.24 97.73625 
Q 426.24 97.73625 426.24 99.73625 
L 426.24 323.08 
Q 426.24 325.08 428.24 325.08 
z
" style="fill:#ffffff;opacity:0.8;stroke:#cccccc;stroke-linejoin:miter;"/>
    </g>
    <g id="line2d_28">
     <path d="M 430.24 105.834687 
L 450.24 105.834687 
" style="fill:none;stroke:#0000ff;stroke-linecap:square;stroke-width:1.5;"/>
    </g>
    <g id="line2d_29">
     <g>
      <use style="fill:#ffffff;stroke:#0000ff;stroke-linejoin:miter;" x="440.24" xlink:href="#m07950f5ddd" y="105.834687"/>
     </g>
    </g>
    <g id="text_16">
     <!-- M:cpu_e5-2640 -->
     <defs>
      <path d="M 11.71875 12.40625 
L 22.015625 12.40625 
L 22.015625 0 
L 11.71875 0 
z
M 11.71875 51.703125 
L 22.015625 51.703125 
L 22.015625 39.3125 
L 11.71875 39.3125 
z
" id="DejaVuSans-58"/>
      <path d="M 18.109375 8.203125 
L 18.109375 -20.796875 
L 9.078125 -20.796875 
L 9.078125 54.6875 
L 18.109375 54.6875 
L 18.109375 46.390625 
Q 20.953125 51.265625 25.265625 53.625 
Q 29.59375 56 35.59375 56 
Q 45.5625 56 51.78125 48.09375 
Q 58.015625 40.1875 58.015625 27.296875 
Q 58.015625 14.40625 51.78125 6.484375 
Q 45.5625 -1.421875 35.59375 -1.421875 
Q 29.59375 -1.421875 25.265625 0.953125 
Q 20.953125 3.328125 18.109375 8.203125 
z
M 48.6875 27.296875 
Q 48.6875 37.203125 44.609375 42.84375 
Q 40.53125 48.484375 33.40625 48.484375 
Q 26.265625 48.484375 22.1875 42.84375 
Q 18.109375 37.203125 18.109375 27.296875 
Q 18.109375 17.390625 22.1875 11.75 
Q 26.265625 6.109375 33.40625 6.109375 
Q 40.53125 6.109375 44.609375 11.75 
Q 48.6875 17.390625 48.6875 27.296875 
z
" id="DejaVuSans-112"/>
      <path d="M 50.984375 -16.609375 
L 50.984375 -23.578125 
L -0.984375 -23.578125 
L -0.984375 -16.609375 
z
" id="DejaVuSans-95"/>
     </defs>
     <g transform="translate(458.24 109.334687)scale(0.1 -0.1)">
      <use xlink:href="#DejaVuSans-77"/>
      <use x="86.279297" xlink:href="#DejaVuSans-58"/>
      <use x="119.970703" xlink:href="#DejaVuSans-99"/>
      <use x="174.951172" xlink:href="#DejaVuSans-112"/>
      <use x="238.427734" xlink:href="#DejaVuSans-117"/>
      <use x="301.806641" xlink:href="#DejaVuSans-95"/>
      <use x="351.806641" xlink:href="#DejaVuSans-101"/>
      <use x="413.330078" xlink:href="#DejaVuSans-53"/>
      <use x="476.953125" xlink:href="#DejaVuSans-45"/>
      <use x="513.037109" xlink:href="#DejaVuSans-50"/>
      <use x="576.660156" xlink:href="#DejaVuSans-54"/>
      <use x="640.283203" xlink:href="#DejaVuSans-52"/>
      <use x="703.90625" xlink:href="#DejaVuSans-48"/>
     </g>
    </g>
    <g id="line2d_30">
     <path d="M 430.24 120.790937 
L 450.24 120.790937 
" style="fill:none;stroke:#0000ff;stroke-linecap:square;stroke-width:1.5;"/>
    </g>
    <g id="line2d_31">
     <g>
      <use style="fill:#ffffff;stroke:#0000ff;stroke-linejoin:miter;" x="440.24" xlink:href="#m1d263ad9aa" y="120.790937"/>
     </g>
    </g>
    <g id="text_17">
     <!-- M:cpu_e5-2670 -->
     <defs>
      <path d="M 8.203125 72.90625 
L 55.078125 72.90625 
L 55.078125 68.703125 
L 28.609375 0 
L 18.3125 0 
L 43.21875 64.59375 
L 8.203125 64.59375 
z
" id="DejaVuSans-55"/>
     </defs>
     <g transform="translate(458.24 124.290937)scale(0.1 -0.1)">
      <use xlink:href="#DejaVuSans-77"/>
      <use x="86.279297" xlink:href="#DejaVuSans-58"/>
      <use x="119.970703" xlink:href="#DejaVuSans-99"/>
      <use x="174.951172" xlink:href="#DejaVuSans-112"/>
      <use x="238.427734" xlink:href="#DejaVuSans-117"/>
      <use x="301.806641" xlink:href="#DejaVuSans-95"/>
      <use x="351.806641" xlink:href="#DejaVuSans-101"/>
      <use x="413.330078" xlink:href="#DejaVuSans-53"/>
      <use x="476.953125" xlink:href="#DejaVuSans-45"/>
      <use x="513.037109" xlink:href="#DejaVuSans-50"/>
      <use x="576.660156" xlink:href="#DejaVuSans-54"/>
      <use x="640.283203" xlink:href="#DejaVuSans-55"/>
      <use x="703.90625" xlink:href="#DejaVuSans-48"/>
     </g>
    </g>
    <g id="line2d_32">
     <path d="M 430.24 135.747187 
L 450.24 135.747187 
" style="fill:none;stroke:#0000ff;stroke-linecap:square;stroke-width:1.5;"/>
    </g>
    <g id="line2d_33">
     <g>
      <use style="fill:#ffffff;stroke:#0000ff;" x="440.24" xlink:href="#mfc4290c743" y="135.747187"/>
     </g>
    </g>
    <g id="text_18">
     <!-- M:cpu_g-6130 -->
     <defs>
      <path d="M 45.40625 27.984375 
Q 45.40625 37.75 41.375 43.109375 
Q 37.359375 48.484375 30.078125 48.484375 
Q 22.859375 48.484375 18.828125 43.109375 
Q 14.796875 37.75 14.796875 27.984375 
Q 14.796875 18.265625 18.828125 12.890625 
Q 22.859375 7.515625 30.078125 7.515625 
Q 37.359375 7.515625 41.375 12.890625 
Q 45.40625 18.265625 45.40625 27.984375 
z
M 54.390625 6.78125 
Q 54.390625 -7.171875 48.1875 -13.984375 
Q 42 -20.796875 29.203125 -20.796875 
Q 24.46875 -20.796875 20.265625 -20.09375 
Q 16.0625 -19.390625 12.109375 -17.921875 
L 12.109375 -9.1875 
Q 16.0625 -11.328125 19.921875 -12.34375 
Q 23.78125 -13.375 27.78125 -13.375 
Q 36.625 -13.375 41.015625 -8.765625 
Q 45.40625 -4.15625 45.40625 5.171875 
L 45.40625 9.625 
Q 42.625 4.78125 38.28125 2.390625 
Q 33.9375 0 27.875 0 
Q 17.828125 0 11.671875 7.65625 
Q 5.515625 15.328125 5.515625 27.984375 
Q 5.515625 40.671875 11.671875 48.328125 
Q 17.828125 56 27.875 56 
Q 33.9375 56 38.28125 53.609375 
Q 42.625 51.21875 45.40625 46.390625 
L 45.40625 54.6875 
L 54.390625 54.6875 
z
" id="DejaVuSans-103"/>
     </defs>
     <g transform="translate(458.24 139.247187)scale(0.1 -0.1)">
      <use xlink:href="#DejaVuSans-77"/>
      <use x="86.279297" xlink:href="#DejaVuSans-58"/>
      <use x="119.970703" xlink:href="#DejaVuSans-99"/>
      <use x="174.951172" xlink:href="#DejaVuSans-112"/>
      <use x="238.427734" xlink:href="#DejaVuSans-117"/>
      <use x="301.806641" xlink:href="#DejaVuSans-95"/>
      <use x="351.806641" xlink:href="#DejaVuSans-103"/>
      <use x="415.283203" xlink:href="#DejaVuSans-45"/>
      <use x="451.367188" xlink:href="#DejaVuSans-54"/>
      <use x="514.990234" xlink:href="#DejaVuSans-49"/>
      <use x="578.613281" xlink:href="#DejaVuSans-51"/>
      <use x="642.236328" xlink:href="#DejaVuSans-48"/>
     </g>
    </g>
    <g id="line2d_34">
     <path d="M 430.24 150.703437 
L 450.24 150.703437 
" style="fill:none;stroke:#ff0000;stroke-linecap:square;stroke-width:1.5;"/>
    </g>
    <g id="line2d_35">
     <g>
      <use style="fill:#ffffff;stroke:#ff0000;stroke-linejoin:miter;" x="440.24" xlink:href="#m69a060365a" y="150.703437"/>
     </g>
    </g>
    <g id="text_19">
     <!-- P:cpu_e5-2640 -->
     <g transform="translate(458.24 154.203437)scale(0.1 -0.1)">
      <use xlink:href="#DejaVuSans-80"/>
      <use x="60.302734" xlink:href="#DejaVuSans-58"/>
      <use x="93.994141" xlink:href="#DejaVuSans-99"/>
      <use x="148.974609" xlink:href="#DejaVuSans-112"/>
      <use x="212.451172" xlink:href="#DejaVuSans-117"/>
      <use x="275.830078" xlink:href="#DejaVuSans-95"/>
      <use x="325.830078" xlink:href="#DejaVuSans-101"/>
      <use x="387.353516" xlink:href="#DejaVuSans-53"/>
      <use x="450.976562" xlink:href="#DejaVuSans-45"/>
      <use x="487.060547" xlink:href="#DejaVuSans-50"/>
      <use x="550.683594" xlink:href="#DejaVuSans-54"/>
      <use x="614.306641" xlink:href="#DejaVuSans-52"/>
      <use x="677.929688" xlink:href="#DejaVuSans-48"/>
     </g>
    </g>
    <g id="line2d_36">
     <path d="M 430.24 165.659687 
L 450.24 165.659687 
" style="fill:none;stroke:#ff0000;stroke-linecap:square;stroke-width:1.5;"/>
    </g>
    <g id="line2d_37">
     <g>
      <use style="fill:#ffffff;stroke:#ff0000;stroke-linejoin:miter;" x="440.24" xlink:href="#med89f64603" y="165.659687"/>
     </g>
    </g>
    <g id="text_20">
     <!-- P:cpu_e5-2670 -->
     <g transform="translate(458.24 169.159687)scale(0.1 -0.1)">
      <use xlink:href="#DejaVuSans-80"/>
      <use x="60.302734" xlink:href="#DejaVuSans-58"/>
      <use x="93.994141" xlink:href="#DejaVuSans-99"/>
      <use x="148.974609" xlink:href="#DejaVuSans-112"/>
      <use x="212.451172" xlink:href="#DejaVuSans-117"/>
      <use x="275.830078" xlink:href="#DejaVuSans-95"/>
      <use x="325.830078" xlink:href="#DejaVuSans-101"/>
      <use x="387.353516" xlink:href="#DejaVuSans-53"/>
      <use x="450.976562" xlink:href="#DejaVuSans-45"/>
      <use x="487.060547" xlink:href="#DejaVuSans-50"/>
      <use x="550.683594" xlink:href="#DejaVuSans-54"/>
      <use x="614.306641" xlink:href="#DejaVuSans-55"/>
      <use x="677.929688" xlink:href="#DejaVuSans-48"/>
     </g>
    </g>
    <g id="line2d_38">
     <path d="M 430.24 180.615937 
L 450.24 180.615937 
" style="fill:none;stroke:#ff0000;stroke-linecap:square;stroke-width:1.5;"/>
    </g>
    <g id="line2d_39">
     <g>
      <use style="fill:#ffffff;stroke:#ff0000;" x="440.24" xlink:href="#m72fb6db398" y="180.615937"/>
     </g>
    </g>
    <g id="text_21">
     <!-- P:cpu_g-6130 -->
     <g transform="translate(458.24 184.115937)scale(0.1 -0.1)">
      <use xlink:href="#DejaVuSans-80"/>
      <use x="60.302734" xlink:href="#DejaVuSans-58"/>
      <use x="93.994141" xlink:href="#DejaVuSans-99"/>
      <use x="148.974609" xlink:href="#DejaVuSans-112"/>
      <use x="212.451172" xlink:href="#DejaVuSans-117"/>
      <use x="275.830078" xlink:href="#DejaVuSans-95"/>
      <use x="325.830078" xlink:href="#DejaVuSans-103"/>
      <use x="389.306641" xlink:href="#DejaVuSans-45"/>
      <use x="425.390625" xlink:href="#DejaVuSans-54"/>
      <use x="489.013672" xlink:href="#DejaVuSans-49"/>
      <use x="552.636719" xlink:href="#DejaVuSans-51"/>
      <use x="616.259766" xlink:href="#DejaVuSans-48"/>
     </g>
    </g>
    <g id="line2d_40">
     <path d="M 430.24 195.572187 
L 450.24 195.572187 
" style="fill:none;stroke:#ff0000;stroke-linecap:square;stroke-width:1.5;"/>
    </g>
    <g id="line2d_41">
     <g>
      <use style="fill:#ff0000;stroke:#ff0000;stroke-linejoin:miter;" x="440.24" xlink:href="#m066303d017" y="195.572187"/>
     </g>
    </g>
    <g id="text_22">
     <!-- P:gpu_k40c -->
     <g transform="translate(458.24 199.072187)scale(0.1 -0.1)">
      <use xlink:href="#DejaVuSans-80"/>
      <use x="60.302734" xlink:href="#DejaVuSans-58"/>
      <use x="93.994141" xlink:href="#DejaVuSans-103"/>
      <use x="157.470703" xlink:href="#DejaVuSans-112"/>
      <use x="220.947266" xlink:href="#DejaVuSans-117"/>
      <use x="284.326172" xlink:href="#DejaVuSans-95"/>
      <use x="334.326172" xlink:href="#DejaVuSans-107"/>
      <use x="392.236328" xlink:href="#DejaVuSans-52"/>
      <use x="455.859375" xlink:href="#DejaVuSans-48"/>
      <use x="519.482422" xlink:href="#DejaVuSans-99"/>
     </g>
    </g>
    <g id="line2d_42">
     <path d="M 430.24 210.528437 
L 450.24 210.528437 
" style="fill:none;stroke:#ff0000;stroke-linecap:square;stroke-width:1.5;"/>
    </g>
    <g id="line2d_43">
     <g>
      <use style="fill:#ff0000;stroke:#ff0000;stroke-linejoin:miter;" x="440.24" xlink:href="#m64fea336e1" y="210.528437"/>
     </g>
    </g>
    <g id="text_23">
     <!-- P:gpu_p100 -->
     <g transform="translate(458.24 214.028437)scale(0.1 -0.1)">
      <use xlink:href="#DejaVuSans-80"/>
      <use x="60.302734" xlink:href="#DejaVuSans-58"/>
      <use x="93.994141" xlink:href="#DejaVuSans-103"/>
      <use x="157.470703" xlink:href="#DejaVuSans-112"/>
      <use x="220.947266" xlink:href="#DejaVuSans-117"/>
      <use x="284.326172" xlink:href="#DejaVuSans-95"/>
      <use x="334.326172" xlink:href="#DejaVuSans-112"/>
      <use x="397.802734" xlink:href="#DejaVuSans-49"/>
      <use x="461.425781" xlink:href="#DejaVuSans-48"/>
      <use x="525.048828" xlink:href="#DejaVuSans-48"/>
     </g>
    </g>
    <g id="line2d_44">
     <path d="M 430.24 225.484687 
L 450.24 225.484687 
" style="fill:none;stroke:#ff0000;stroke-linecap:square;stroke-width:1.5;"/>
    </g>
    <g id="line2d_45">
     <g>
      <use style="fill:#ff0000;stroke:#ff0000;" x="440.24" xlink:href="#m8cbb22af8a" y="225.484687"/>
     </g>
    </g>
    <g id="text_24">
     <!-- P:gpu_v100 -->
     <g transform="translate(458.24 228.984687)scale(0.1 -0.1)">
      <use xlink:href="#DejaVuSans-80"/>
      <use x="60.302734" xlink:href="#DejaVuSans-58"/>
      <use x="93.994141" xlink:href="#DejaVuSans-103"/>
      <use x="157.470703" xlink:href="#DejaVuSans-112"/>
      <use x="220.947266" xlink:href="#DejaVuSans-117"/>
      <use x="284.326172" xlink:href="#DejaVuSans-95"/>
      <use x="334.326172" xlink:href="#DejaVuSans-118"/>
      <use x="393.505859" xlink:href="#DejaVuSans-49"/>
      <use x="457.128906" xlink:href="#DejaVuSans-48"/>
      <use x="520.751953" xlink:href="#DejaVuSans-48"/>
     </g>
    </g>
    <g id="line2d_46">
     <path d="M 430.24 240.440937 
L 450.24 240.440937 
" style="fill:none;stroke:#008000;stroke-linecap:square;stroke-width:1.5;"/>
    </g>
    <g id="line2d_47">
     <g>
      <use style="fill:#ffffff;stroke:#008000;stroke-linejoin:miter;" x="440.24" xlink:href="#mce2419ab75" y="240.440937"/>
     </g>
    </g>
    <g id="text_25">
     <!-- S:cpu_e5-2640 -->
     <defs>
      <path d="M 53.515625 70.515625 
L 53.515625 60.890625 
Q 47.90625 63.578125 42.921875 64.890625 
Q 37.9375 66.21875 33.296875 66.21875 
Q 25.25 66.21875 20.875 63.09375 
Q 16.5 59.96875 16.5 54.203125 
Q 16.5 49.359375 19.40625 46.890625 
Q 22.3125 44.4375 30.421875 42.921875 
L 36.375 41.703125 
Q 47.40625 39.59375 52.65625 34.296875 
Q 57.90625 29 57.90625 20.125 
Q 57.90625 9.515625 50.796875 4.046875 
Q 43.703125 -1.421875 29.984375 -1.421875 
Q 24.8125 -1.421875 18.96875 -0.25 
Q 13.140625 0.921875 6.890625 3.21875 
L 6.890625 13.375 
Q 12.890625 10.015625 18.65625 8.296875 
Q 24.421875 6.59375 29.984375 6.59375 
Q 38.421875 6.59375 43.015625 9.90625 
Q 47.609375 13.234375 47.609375 19.390625 
Q 47.609375 24.75 44.3125 27.78125 
Q 41.015625 30.8125 33.5 32.328125 
L 27.484375 33.5 
Q 16.453125 35.6875 11.515625 40.375 
Q 6.59375 45.0625 6.59375 53.421875 
Q 6.59375 63.09375 13.40625 68.65625 
Q 20.21875 74.21875 32.171875 74.21875 
Q 37.3125 74.21875 42.625 73.28125 
Q 47.953125 72.359375 53.515625 70.515625 
z
" id="DejaVuSans-83"/>
     </defs>
     <g transform="translate(458.24 243.940937)scale(0.1 -0.1)">
      <use xlink:href="#DejaVuSans-83"/>
      <use x="63.476562" xlink:href="#DejaVuSans-58"/>
      <use x="97.167969" xlink:href="#DejaVuSans-99"/>
      <use x="152.148438" xlink:href="#DejaVuSans-112"/>
      <use x="215.625" xlink:href="#DejaVuSans-117"/>
      <use x="279.003906" xlink:href="#DejaVuSans-95"/>
      <use x="329.003906" xlink:href="#DejaVuSans-101"/>
      <use x="390.527344" xlink:href="#DejaVuSans-53"/>
      <use x="454.150391" xlink:href="#DejaVuSans-45"/>
      <use x="490.234375" xlink:href="#DejaVuSans-50"/>
      <use x="553.857422" xlink:href="#DejaVuSans-54"/>
      <use x="617.480469" xlink:href="#DejaVuSans-52"/>
      <use x="681.103516" xlink:href="#DejaVuSans-48"/>
     </g>
    </g>
    <g id="line2d_48">
     <path d="M 430.24 255.397187 
L 450.24 255.397187 
" style="fill:none;stroke:#008000;stroke-linecap:square;stroke-width:1.5;"/>
    </g>
    <g id="line2d_49">
     <g>
      <use style="fill:#ffffff;stroke:#008000;stroke-linejoin:miter;" x="440.24" xlink:href="#m2c7b8514d6" y="255.397187"/>
     </g>
    </g>
    <g id="text_26">
     <!-- S:cpu_e5-2670 -->
     <g transform="translate(458.24 258.897187)scale(0.1 -0.1)">
      <use xlink:href="#DejaVuSans-83"/>
      <use x="63.476562" xlink:href="#DejaVuSans-58"/>
      <use x="97.167969" xlink:href="#DejaVuSans-99"/>
      <use x="152.148438" xlink:href="#DejaVuSans-112"/>
      <use x="215.625" xlink:href="#DejaVuSans-117"/>
      <use x="279.003906" xlink:href="#DejaVuSans-95"/>
      <use x="329.003906" xlink:href="#DejaVuSans-101"/>
      <use x="390.527344" xlink:href="#DejaVuSans-53"/>
      <use x="454.150391" xlink:href="#DejaVuSans-45"/>
      <use x="490.234375" xlink:href="#DejaVuSans-50"/>
      <use x="553.857422" xlink:href="#DejaVuSans-54"/>
      <use x="617.480469" xlink:href="#DejaVuSans-55"/>
      <use x="681.103516" xlink:href="#DejaVuSans-48"/>
     </g>
    </g>
    <g id="line2d_50">
     <path d="M 430.24 270.353437 
L 450.24 270.353437 
" style="fill:none;stroke:#008000;stroke-linecap:square;stroke-width:1.5;"/>
    </g>
    <g id="line2d_51">
     <g>
      <use style="fill:#ffffff;stroke:#008000;" x="440.24" xlink:href="#m398a624ca8" y="270.353437"/>
     </g>
    </g>
    <g id="text_27">
     <!-- S:cpu_g-6130 -->
     <g transform="translate(458.24 273.853437)scale(0.1 -0.1)">
      <use xlink:href="#DejaVuSans-83"/>
      <use x="63.476562" xlink:href="#DejaVuSans-58"/>
      <use x="97.167969" xlink:href="#DejaVuSans-99"/>
      <use x="152.148438" xlink:href="#DejaVuSans-112"/>
      <use x="215.625" xlink:href="#DejaVuSans-117"/>
      <use x="279.003906" xlink:href="#DejaVuSans-95"/>
      <use x="329.003906" xlink:href="#DejaVuSans-103"/>
      <use x="392.480469" xlink:href="#DejaVuSans-45"/>
      <use x="428.564453" xlink:href="#DejaVuSans-54"/>
      <use x="492.1875" xlink:href="#DejaVuSans-49"/>
      <use x="555.810547" xlink:href="#DejaVuSans-51"/>
      <use x="619.433594" xlink:href="#DejaVuSans-48"/>
     </g>
    </g>
    <g id="line2d_52">
     <path d="M 430.24 285.309687 
L 450.24 285.309687 
" style="fill:none;stroke:#008000;stroke-linecap:square;stroke-width:1.5;"/>
    </g>
    <g id="line2d_53">
     <g>
      <use style="fill:#008000;stroke:#008000;stroke-linejoin:miter;" x="440.24" xlink:href="#mf1787fe9c7" y="285.309687"/>
     </g>
    </g>
    <g id="text_28">
     <!-- S:gpu_k40c -->
     <g transform="translate(458.24 288.809687)scale(0.1 -0.1)">
      <use xlink:href="#DejaVuSans-83"/>
      <use x="63.476562" xlink:href="#DejaVuSans-58"/>
      <use x="97.167969" xlink:href="#DejaVuSans-103"/>
      <use x="160.644531" xlink:href="#DejaVuSans-112"/>
      <use x="224.121094" xlink:href="#DejaVuSans-117"/>
      <use x="287.5" xlink:href="#DejaVuSans-95"/>
      <use x="337.5" xlink:href="#DejaVuSans-107"/>
      <use x="395.410156" xlink:href="#DejaVuSans-52"/>
      <use x="459.033203" xlink:href="#DejaVuSans-48"/>
      <use x="522.65625" xlink:href="#DejaVuSans-99"/>
     </g>
    </g>
    <g id="line2d_54">
     <path d="M 430.24 300.265937 
L 450.24 300.265937 
" style="fill:none;stroke:#008000;stroke-linecap:square;stroke-width:1.5;"/>
    </g>
    <g id="line2d_55">
     <g>
      <use style="fill:#008000;stroke:#008000;stroke-linejoin:miter;" x="440.24" xlink:href="#m62e9cf885c" y="300.265937"/>
     </g>
    </g>
    <g id="text_29">
     <!-- S:gpu_p100 -->
     <g transform="translate(458.24 303.765937)scale(0.1 -0.1)">
      <use xlink:href="#DejaVuSans-83"/>
      <use x="63.476562" xlink:href="#DejaVuSans-58"/>
      <use x="97.167969" xlink:href="#DejaVuSans-103"/>
      <use x="160.644531" xlink:href="#DejaVuSans-112"/>
      <use x="224.121094" xlink:href="#DejaVuSans-117"/>
      <use x="287.5" xlink:href="#DejaVuSans-95"/>
      <use x="337.5" xlink:href="#DejaVuSans-112"/>
      <use x="400.976562" xlink:href="#DejaVuSans-49"/>
      <use x="464.599609" xlink:href="#DejaVuSans-48"/>
      <use x="528.222656" xlink:href="#DejaVuSans-48"/>
     </g>
    </g>
    <g id="line2d_56">
     <path d="M 430.24 315.222187 
L 450.24 315.222187 
" style="fill:none;stroke:#008000;stroke-linecap:square;stroke-width:1.5;"/>
    </g>
    <g id="line2d_57">
     <g>
      <use style="fill:#008000;stroke:#008000;" x="440.24" xlink:href="#m9674fe3005" y="315.222187"/>
     </g>
    </g>
    <g id="text_30">
     <!-- S:gpu_v100 -->
     <g transform="translate(458.24 318.722187)scale(0.1 -0.1)">
      <use xlink:href="#DejaVuSans-83"/>
      <use x="63.476562" xlink:href="#DejaVuSans-58"/>
      <use x="97.167969" xlink:href="#DejaVuSans-103"/>
      <use x="160.644531" xlink:href="#DejaVuSans-112"/>
      <use x="224.121094" xlink:href="#DejaVuSans-117"/>
      <use x="287.5" xlink:href="#DejaVuSans-95"/>
      <use x="337.5" xlink:href="#DejaVuSans-118"/>
      <use x="396.679688" xlink:href="#DejaVuSans-49"/>
      <use x="460.302734" xlink:href="#DejaVuSans-48"/>
      <use x="523.925781" xlink:href="#DejaVuSans-48"/>
     </g>
    </g>
   </g>
  </g>
  <g id="axes_2">
   <g id="patch_8">
    <path d="M 69.93 448.56 
L 426.24 448.56 
L 426.24 360.36 
L 69.93 360.36 
z
" style="fill:#ffffff;"/>
   </g>
   <g id="matplotlib.axis_3">
    <g id="xtick_8">
     <g id="line2d_58">
      <g>
       <use style="stroke:#000000;stroke-width:0.8;" x="83.860747" xlink:href="#mcb11b54e53" y="448.56"/>
      </g>
     </g>
     <g id="text_31">
      <!-- 0 -->
      <g transform="translate(80.679497 463.158437)scale(0.1 -0.1)">
       <use xlink:href="#DejaVuSans-48"/>
      </g>
     </g>
    </g>
    <g id="xtick_9">
     <g id="line2d_59">
      <g>
       <use style="stroke:#000000;stroke-width:0.8;" x="139.162556" xlink:href="#mcb11b54e53" y="448.56"/>
      </g>
     </g>
     <g id="text_32">
      <!-- 100000 -->
      <g transform="translate(120.075056 463.158437)scale(0.1 -0.1)">
       <use xlink:href="#DejaVuSans-49"/>
       <use x="63.623047" xlink:href="#DejaVuSans-48"/>
       <use x="127.246094" xlink:href="#DejaVuSans-48"/>
       <use x="190.869141" xlink:href="#DejaVuSans-48"/>
       <use x="254.492188" xlink:href="#DejaVuSans-48"/>
       <use x="318.115234" xlink:href="#DejaVuSans-48"/>
      </g>
     </g>
    </g>
    <g id="xtick_10">
     <g id="line2d_60">
      <g>
       <use style="stroke:#000000;stroke-width:0.8;" x="194.464366" xlink:href="#mcb11b54e53" y="448.56"/>
      </g>
     </g>
     <g id="text_33">
      <!-- 200000 -->
      <g transform="translate(175.376866 463.158437)scale(0.1 -0.1)">
       <use xlink:href="#DejaVuSans-50"/>
       <use x="63.623047" xlink:href="#DejaVuSans-48"/>
       <use x="127.246094" xlink:href="#DejaVuSans-48"/>
       <use x="190.869141" xlink:href="#DejaVuSans-48"/>
       <use x="254.492188" xlink:href="#DejaVuSans-48"/>
       <use x="318.115234" xlink:href="#DejaVuSans-48"/>
      </g>
     </g>
    </g>
    <g id="xtick_11">
     <g id="line2d_61">
      <g>
       <use style="stroke:#000000;stroke-width:0.8;" x="249.766175" xlink:href="#mcb11b54e53" y="448.56"/>
      </g>
     </g>
     <g id="text_34">
      <!-- 300000 -->
      <g transform="translate(230.678675 463.158437)scale(0.1 -0.1)">
       <use xlink:href="#DejaVuSans-51"/>
       <use x="63.623047" xlink:href="#DejaVuSans-48"/>
       <use x="127.246094" xlink:href="#DejaVuSans-48"/>
       <use x="190.869141" xlink:href="#DejaVuSans-48"/>
       <use x="254.492188" xlink:href="#DejaVuSans-48"/>
       <use x="318.115234" xlink:href="#DejaVuSans-48"/>
      </g>
     </g>
    </g>
    <g id="xtick_12">
     <g id="line2d_62">
      <g>
       <use style="stroke:#000000;stroke-width:0.8;" x="305.067984" xlink:href="#mcb11b54e53" y="448.56"/>
      </g>
     </g>
     <g id="text_35">
      <!-- 400000 -->
      <g transform="translate(285.980484 463.158437)scale(0.1 -0.1)">
       <use xlink:href="#DejaVuSans-52"/>
       <use x="63.623047" xlink:href="#DejaVuSans-48"/>
       <use x="127.246094" xlink:href="#DejaVuSans-48"/>
       <use x="190.869141" xlink:href="#DejaVuSans-48"/>
       <use x="254.492188" xlink:href="#DejaVuSans-48"/>
       <use x="318.115234" xlink:href="#DejaVuSans-48"/>
      </g>
     </g>
    </g>
    <g id="xtick_13">
     <g id="line2d_63">
      <g>
       <use style="stroke:#000000;stroke-width:0.8;" x="360.369794" xlink:href="#mcb11b54e53" y="448.56"/>
      </g>
     </g>
     <g id="text_36">
      <!-- 500000 -->
      <g transform="translate(341.282294 463.158437)scale(0.1 -0.1)">
       <use xlink:href="#DejaVuSans-53"/>
       <use x="63.623047" xlink:href="#DejaVuSans-48"/>
       <use x="127.246094" xlink:href="#DejaVuSans-48"/>
       <use x="190.869141" xlink:href="#DejaVuSans-48"/>
       <use x="254.492188" xlink:href="#DejaVuSans-48"/>
       <use x="318.115234" xlink:href="#DejaVuSans-48"/>
      </g>
     </g>
    </g>
    <g id="xtick_14">
     <g id="line2d_64">
      <g>
       <use style="stroke:#000000;stroke-width:0.8;" x="415.671603" xlink:href="#mcb11b54e53" y="448.56"/>
      </g>
     </g>
     <g id="text_37">
      <!-- 600000 -->
      <g transform="translate(396.584103 463.158437)scale(0.1 -0.1)">
       <use xlink:href="#DejaVuSans-54"/>
       <use x="63.623047" xlink:href="#DejaVuSans-48"/>
       <use x="127.246094" xlink:href="#DejaVuSans-48"/>
       <use x="190.869141" xlink:href="#DejaVuSans-48"/>
       <use x="254.492188" xlink:href="#DejaVuSans-48"/>
       <use x="318.115234" xlink:href="#DejaVuSans-48"/>
      </g>
     </g>
    </g>
    <g id="text_38">
     <!-- Mesh elements -->
     <g transform="translate(210.109219 476.836562)scale(0.1 -0.1)">
      <use xlink:href="#DejaVuSans-77"/>
      <use x="86.279297" xlink:href="#DejaVuSans-101"/>
      <use x="147.802734" xlink:href="#DejaVuSans-115"/>
      <use x="199.902344" xlink:href="#DejaVuSans-104"/>
      <use x="263.28125" xlink:href="#DejaVuSans-32"/>
      <use x="295.068359" xlink:href="#DejaVuSans-101"/>
      <use x="356.591797" xlink:href="#DejaVuSans-108"/>
      <use x="384.375" xlink:href="#DejaVuSans-101"/>
      <use x="445.898438" xlink:href="#DejaVuSans-109"/>
      <use x="543.310547" xlink:href="#DejaVuSans-101"/>
      <use x="604.833984" xlink:href="#DejaVuSans-110"/>
      <use x="668.212891" xlink:href="#DejaVuSans-116"/>
      <use x="707.421875" xlink:href="#DejaVuSans-115"/>
     </g>
    </g>
   </g>
   <g id="matplotlib.axis_4">
    <g id="ytick_6">
     <g id="line2d_65">
      <g>
       <use style="stroke:#000000;stroke-width:0.8;" x="69.93" xlink:href="#mbfb125ed5f" y="433.487357"/>
      </g>
     </g>
     <g id="text_39">
      <!-- 1.0 -->
      <g transform="translate(47.026875 437.286575)scale(0.1 -0.1)">
       <use xlink:href="#DejaVuSans-49"/>
       <use x="63.623047" xlink:href="#DejaVuSans-46"/>
       <use x="95.410156" xlink:href="#DejaVuSans-48"/>
      </g>
     </g>
    </g>
    <g id="ytick_7">
     <g id="line2d_66">
      <g>
       <use style="stroke:#000000;stroke-width:0.8;" x="69.93" xlink:href="#mbfb125ed5f" y="406.780332"/>
      </g>
     </g>
     <g id="text_40">
      <!-- 1.2 -->
      <g transform="translate(47.026875 410.57955)scale(0.1 -0.1)">
       <use xlink:href="#DejaVuSans-49"/>
       <use x="63.623047" xlink:href="#DejaVuSans-46"/>
       <use x="95.410156" xlink:href="#DejaVuSans-50"/>
      </g>
     </g>
    </g>
    <g id="ytick_8">
     <g id="line2d_67">
      <g>
       <use style="stroke:#000000;stroke-width:0.8;" x="69.93" xlink:href="#mbfb125ed5f" y="380.073306"/>
      </g>
     </g>
     <g id="text_41">
      <!-- 1.4 -->
      <g transform="translate(47.026875 383.872525)scale(0.1 -0.1)">
       <use xlink:href="#DejaVuSans-49"/>
       <use x="63.623047" xlink:href="#DejaVuSans-46"/>
       <use x="95.410156" xlink:href="#DejaVuSans-52"/>
      </g>
     </g>
    </g>
    <g id="text_42">
     <!-- Perf. Portability (PP) -->
     <g transform="translate(40.947187 453.755312)rotate(-90)scale(0.1 -0.1)">
      <use xlink:href="#DejaVuSans-80"/>
      <use x="56.677734" xlink:href="#DejaVuSans-101"/>
      <use x="118.201172" xlink:href="#DejaVuSans-114"/>
      <use x="159.314453" xlink:href="#DejaVuSans-102"/>
      <use x="187.269531" xlink:href="#DejaVuSans-46"/>
      <use x="219.056641" xlink:href="#DejaVuSans-32"/>
      <use x="250.84375" xlink:href="#DejaVuSans-80"/>
      <use x="307.521484" xlink:href="#DejaVuSans-111"/>
      <use x="368.703125" xlink:href="#DejaVuSans-114"/>
      <use x="409.816406" xlink:href="#DejaVuSans-116"/>
      <use x="449.025391" xlink:href="#DejaVuSans-97"/>
      <use x="510.304688" xlink:href="#DejaVuSans-98"/>
      <use x="573.78125" xlink:href="#DejaVuSans-105"/>
      <use x="601.564453" xlink:href="#DejaVuSans-108"/>
      <use x="629.347656" xlink:href="#DejaVuSans-105"/>
      <use x="657.130859" xlink:href="#DejaVuSans-116"/>
      <use x="696.339844" xlink:href="#DejaVuSans-121"/>
      <use x="755.519531" xlink:href="#DejaVuSans-32"/>
      <use x="787.306641" xlink:href="#DejaVuSans-40"/>
      <use x="826.320312" xlink:href="#DejaVuSans-80"/>
      <use x="886.623047" xlink:href="#DejaVuSans-80"/>
      <use x="946.925781" xlink:href="#DejaVuSans-41"/>
     </g>
    </g>
   </g>
   <g id="line2d_68">
    <path clip-path="url(#p567a3ad856)" d="M 86.125909 444.550909 
L 92.921395 382.5523 
L 104.247206 364.369091 
L 120.103341 373.734534 
L 140.4898 383.199109 
L 165.406583 370.1003 
" style="fill:none;stroke:#1f77b4;stroke-linecap:square;stroke-width:1.5;"/>
   </g>
   <g id="patch_9">
    <path d="M 69.93 448.56 
L 69.93 360.36 
" style="fill:none;stroke:#000000;stroke-linecap:square;stroke-linejoin:miter;stroke-width:0.8;"/>
   </g>
   <g id="patch_10">
    <path d="M 426.24 448.56 
L 426.24 360.36 
" style="fill:none;stroke:#000000;stroke-linecap:square;stroke-linejoin:miter;stroke-width:0.8;"/>
   </g>
   <g id="patch_11">
    <path d="M 69.93 448.56 
L 426.24 448.56 
" style="fill:none;stroke:#000000;stroke-linecap:square;stroke-linejoin:miter;stroke-width:0.8;"/>
   </g>
   <g id="patch_12">
    <path d="M 69.93 360.36 
L 426.24 360.36 
" style="fill:none;stroke:#000000;stroke-linecap:square;stroke-linejoin:miter;stroke-width:0.8;"/>
   </g>
   <g id="legend_2">
    <g id="patch_13">
     <path d="M 245.315 383.31625 
L 419.24 383.31625 
Q 421.24 383.31625 421.24 381.31625 
L 421.24 367.36 
Q 421.24 365.36 419.24 365.36 
L 245.315 365.36 
Q 243.315 365.36 243.315 367.36 
L 243.315 381.31625 
Q 243.315 383.31625 245.315 383.31625 
z
" style="fill:#ffffff;opacity:0.8;stroke:#cccccc;stroke-linejoin:miter;"/>
    </g>
    <g id="line2d_69">
     <path d="M 247.315 373.458437 
L 267.315 373.458437 
" style="fill:none;stroke:#1f77b4;stroke-linecap:square;stroke-width:1.5;"/>
    </g>
    <g id="line2d_70"/>
    <g id="text_43">
     <!-- PP (SuperLU_DIST vs PaStiX) -->
     <defs>
      <path d="M 8.6875 72.90625 
L 18.609375 72.90625 
L 18.609375 28.609375 
Q 18.609375 16.890625 22.84375 11.734375 
Q 27.09375 6.59375 36.625 6.59375 
Q 46.09375 6.59375 50.34375 11.734375 
Q 54.59375 16.890625 54.59375 28.609375 
L 54.59375 72.90625 
L 64.5 72.90625 
L 64.5 27.390625 
Q 64.5 13.140625 57.4375 5.859375 
Q 50.390625 -1.421875 36.625 -1.421875 
Q 22.796875 -1.421875 15.734375 5.859375 
Q 8.6875 13.140625 8.6875 27.390625 
z
" id="DejaVuSans-85"/>
      <path d="M 19.671875 64.796875 
L 19.671875 8.109375 
L 31.59375 8.109375 
Q 46.6875 8.109375 53.6875 14.9375 
Q 60.6875 21.78125 60.6875 36.53125 
Q 60.6875 51.171875 53.6875 57.984375 
Q 46.6875 64.796875 31.59375 64.796875 
z
M 9.8125 72.90625 
L 30.078125 72.90625 
Q 51.265625 72.90625 61.171875 64.09375 
Q 71.09375 55.28125 71.09375 36.53125 
Q 71.09375 17.671875 61.125 8.828125 
Q 51.171875 0 30.078125 0 
L 9.8125 0 
z
" id="DejaVuSans-68"/>
      <path d="M 9.8125 72.90625 
L 19.671875 72.90625 
L 19.671875 0 
L 9.8125 0 
z
" id="DejaVuSans-73"/>
      <path d="M 6.296875 72.90625 
L 16.890625 72.90625 
L 35.015625 45.796875 
L 53.21875 72.90625 
L 63.8125 72.90625 
L 40.375 37.890625 
L 65.375 0 
L 54.78125 0 
L 34.28125 31 
L 13.625 0 
L 2.984375 0 
L 29 38.921875 
z
" id="DejaVuSans-88"/>
     </defs>
     <g transform="translate(275.315 376.958437)scale(0.1 -0.1)">
      <use xlink:href="#DejaVuSans-80"/>
      <use x="60.302734" xlink:href="#DejaVuSans-80"/>
      <use x="120.605469" xlink:href="#DejaVuSans-32"/>
      <use x="152.392578" xlink:href="#DejaVuSans-40"/>
      <use x="191.40625" xlink:href="#DejaVuSans-83"/>
      <use x="254.882812" xlink:href="#DejaVuSans-117"/>
      <use x="318.261719" xlink:href="#DejaVuSans-112"/>
      <use x="381.738281" xlink:href="#DejaVuSans-101"/>
      <use x="443.261719" xlink:href="#DejaVuSans-114"/>
      <use x="484.375" xlink:href="#DejaVuSans-76"/>
      <use x="535.087891" xlink:href="#DejaVuSans-85"/>
      <use x="608.28125" xlink:href="#DejaVuSans-95"/>
      <use x="658.28125" xlink:href="#DejaVuSans-68"/>
      <use x="735.283203" xlink:href="#DejaVuSans-73"/>
      <use x="764.775391" xlink:href="#DejaVuSans-83"/>
      <use x="828.251953" xlink:href="#DejaVuSans-84"/>
      <use x="889.335938" xlink:href="#DejaVuSans-32"/>
      <use x="921.123047" xlink:href="#DejaVuSans-118"/>
      <use x="980.302734" xlink:href="#DejaVuSans-115"/>
      <use x="1032.402344" xlink:href="#DejaVuSans-32"/>
      <use x="1064.189453" xlink:href="#DejaVuSans-80"/>
      <use x="1119.992188" xlink:href="#DejaVuSans-97"/>
      <use x="1181.271484" xlink:href="#DejaVuSans-83"/>
      <use x="1244.748047" xlink:href="#DejaVuSans-116"/>
      <use x="1283.957031" xlink:href="#DejaVuSans-105"/>
      <use x="1311.740234" xlink:href="#DejaVuSans-88"/>
      <use x="1380.246094" xlink:href="#DejaVuSans-41"/>
     </g>
    </g>
   </g>
  </g>
 </g>
 <defs>
  <clipPath id="pcc4ff9811d">
   <rect height="264.6" width="356.31" x="69.93" y="60.48"/>
  </clipPath>
  <clipPath id="p567a3ad856">
   <rect height="88.2" width="356.31" x="69.93" y="360.36"/>
  </clipPath>
 </defs>
</svg>
