<?xml version="1.0" encoding="utf-8" standalone="no"?>
<!DOCTYPE svg PUBLIC "-//W3C//DTD SVG 1.1//EN"
  "http://www.w3.org/Graphics/SVG/1.1/DTD/svg11.dtd">
<!-- Created with matplotlib (https://matplotlib.org/) -->
<svg height="558.834375pt" version="1.1" viewBox="0 0 452.267663 558.834375" width="452.267663pt" xmlns="http://www.w3.org/2000/svg" xmlns:xlink="http://www.w3.org/1999/xlink">
 <defs>
  <style type="text/css">
*{stroke-linecap:butt;stroke-linejoin:round;}
  </style>
 </defs>
 <g id="figure_1">
  <g id="patch_1">
   <path d="M 0 558.834375 
L 452.267663 558.834375 
L 452.267663 0 
L 0 0 
z
" style="fill:#ffffff;"/>
  </g>
  <g id="axes_1">
   <g id="patch_2">
    <path d="M 46.965625 362.518125 
L 437.565625 362.518125 
L 437.565625 22.318125 
L 46.965625 22.318125 
z
" style="fill:#ffffff;"/>
   </g>
   <g id="matplotlib.axis_1">
    <g id="xtick_1">
     <g id="line2d_1">
      <defs>
       <path d="M 0 0 
L 0 3.5 
" id="m16e4f42f99" style="stroke:#000000;stroke-width:0.8;"/>
      </defs>
      <g>
       <use style="stroke:#000000;stroke-width:0.8;" x="62.237017" xlink:href="#m16e4f42f99" y="362.518125"/>
      </g>
     </g>
     <g id="text_1">
      <!-- 0 -->
      <defs>
       <path d="M 31.78125 66.40625 
Q 24.171875 66.40625 20.328125 58.90625 
Q 16.5 51.421875 16.5 36.375 
Q 16.5 21.390625 20.328125 13.890625 
Q 24.171875 6.390625 31.78125 6.390625 
Q 39.453125 6.390625 43.28125 13.890625 
Q 47.125 21.390625 47.125 36.375 
Q 47.125 51.421875 43.28125 58.90625 
Q 39.453125 66.40625 31.78125 66.40625 
z
M 31.78125 74.21875 
Q 44.046875 74.21875 50.515625 64.515625 
Q 56.984375 54.828125 56.984375 36.375 
Q 56.984375 17.96875 50.515625 8.265625 
Q 44.046875 -1.421875 31.78125 -1.421875 
Q 19.53125 -1.421875 13.0625 8.265625 
Q 6.59375 17.96875 6.59375 36.375 
Q 6.59375 54.828125 13.0625 64.515625 
Q 19.53125 74.21875 31.78125 74.21875 
z
" id="DejaVuSans-48"/>
      </defs>
      <g transform="translate(59.055767 377.116562)scale(0.1 -0.1)">
       <use xlink:href="#DejaVuSans-48"/>
      </g>
     </g>
    </g>
    <g id="xtick_2">
     <g id="line2d_2">
      <g>
       <use style="stroke:#000000;stroke-width:0.8;" x="122.860875" xlink:href="#m16e4f42f99" y="362.518125"/>
      </g>
     </g>
     <g id="text_2">
      <!-- 100000 -->
      <defs>
       <path d="M 12.40625 8.296875 
L 28.515625 8.296875 
L 28.515625 63.921875 
L 10.984375 60.40625 
L 10.984375 69.390625 
L 28.421875 72.90625 
L 38.28125 72.90625 
L 38.28125 8.296875 
L 54.390625 8.296875 
L 54.390625 0 
L 12.40625 0 
z
" id="DejaVuSans-49"/>
      </defs>
      <g transform="translate(103.773375 377.116562)scale(0.1 -0.1)">
       <use xlink:href="#DejaVuSans-49"/>
       <use x="63.623047" xlink:href="#DejaVuSans-48"/>
       <use x="127.246094" xlink:href="#DejaVuSans-48"/>
       <use x="190.869141" xlink:href="#DejaVuSans-48"/>
       <use x="254.492188" xlink:href="#DejaVuSans-48"/>
       <use x="318.115234" xlink:href="#DejaVuSans-48"/>
      </g>
     </g>
    </g>
    <g id="xtick_3">
     <g id="line2d_3">
      <g>
       <use style="stroke:#000000;stroke-width:0.8;" x="183.484733" xlink:href="#m16e4f42f99" y="362.518125"/>
      </g>
     </g>
     <g id="text_3">
      <!-- 200000 -->
      <defs>
       <path d="M 19.1875 8.296875 
L 53.609375 8.296875 
L 53.609375 0 
L 7.328125 0 
L 7.328125 8.296875 
Q 12.9375 14.109375 22.625 23.890625 
Q 32.328125 33.6875 34.8125 36.53125 
Q 39.546875 41.84375 41.421875 45.53125 
Q 43.3125 49.21875 43.3125 52.78125 
Q 43.3125 58.59375 39.234375 62.25 
Q 35.15625 65.921875 28.609375 65.921875 
Q 23.96875 65.921875 18.8125 64.3125 
Q 13.671875 62.703125 7.8125 59.421875 
L 7.8125 69.390625 
Q 13.765625 71.78125 18.9375 73 
Q 24.125 74.21875 28.421875 74.21875 
Q 39.75 74.21875 46.484375 68.546875 
Q 53.21875 62.890625 53.21875 53.421875 
Q 53.21875 48.921875 51.53125 44.890625 
Q 49.859375 40.875 45.40625 35.40625 
Q 44.1875 33.984375 37.640625 27.21875 
Q 31.109375 20.453125 19.1875 8.296875 
z
" id="DejaVuSans-50"/>
      </defs>
      <g transform="translate(164.397233 377.116562)scale(0.1 -0.1)">
       <use xlink:href="#DejaVuSans-50"/>
       <use x="63.623047" xlink:href="#DejaVuSans-48"/>
       <use x="127.246094" xlink:href="#DejaVuSans-48"/>
       <use x="190.869141" xlink:href="#DejaVuSans-48"/>
       <use x="254.492188" xlink:href="#DejaVuSans-48"/>
       <use x="318.115234" xlink:href="#DejaVuSans-48"/>
      </g>
     </g>
    </g>
    <g id="xtick_4">
     <g id="line2d_4">
      <g>
       <use style="stroke:#000000;stroke-width:0.8;" x="244.10859" xlink:href="#m16e4f42f99" y="362.518125"/>
      </g>
     </g>
     <g id="text_4">
      <!-- 300000 -->
      <defs>
       <path d="M 40.578125 39.3125 
Q 47.65625 37.796875 51.625 33 
Q 55.609375 28.21875 55.609375 21.1875 
Q 55.609375 10.40625 48.1875 4.484375 
Q 40.765625 -1.421875 27.09375 -1.421875 
Q 22.515625 -1.421875 17.65625 -0.515625 
Q 12.796875 0.390625 7.625 2.203125 
L 7.625 11.71875 
Q 11.71875 9.328125 16.59375 8.109375 
Q 21.484375 6.890625 26.8125 6.890625 
Q 36.078125 6.890625 40.9375 10.546875 
Q 45.796875 14.203125 45.796875 21.1875 
Q 45.796875 27.640625 41.28125 31.265625 
Q 36.765625 34.90625 28.71875 34.90625 
L 20.21875 34.90625 
L 20.21875 43.015625 
L 29.109375 43.015625 
Q 36.375 43.015625 40.234375 45.921875 
Q 44.09375 48.828125 44.09375 54.296875 
Q 44.09375 59.90625 40.109375 62.90625 
Q 36.140625 65.921875 28.71875 65.921875 
Q 24.65625 65.921875 20.015625 65.03125 
Q 15.375 64.15625 9.8125 62.3125 
L 9.8125 71.09375 
Q 15.4375 72.65625 20.34375 73.4375 
Q 25.25 74.21875 29.59375 74.21875 
Q 40.828125 74.21875 47.359375 69.109375 
Q 53.90625 64.015625 53.90625 55.328125 
Q 53.90625 49.265625 50.4375 45.09375 
Q 46.96875 40.921875 40.578125 39.3125 
z
" id="DejaVuSans-51"/>
      </defs>
      <g transform="translate(225.02109 377.116562)scale(0.1 -0.1)">
       <use xlink:href="#DejaVuSans-51"/>
       <use x="63.623047" xlink:href="#DejaVuSans-48"/>
       <use x="127.246094" xlink:href="#DejaVuSans-48"/>
       <use x="190.869141" xlink:href="#DejaVuSans-48"/>
       <use x="254.492188" xlink:href="#DejaVuSans-48"/>
       <use x="318.115234" xlink:href="#DejaVuSans-48"/>
      </g>
     </g>
    </g>
    <g id="xtick_5">
     <g id="line2d_5">
      <g>
       <use style="stroke:#000000;stroke-width:0.8;" x="304.732448" xlink:href="#m16e4f42f99" y="362.518125"/>
      </g>
     </g>
     <g id="text_5">
      <!-- 400000 -->
      <defs>
       <path d="M 37.796875 64.3125 
L 12.890625 25.390625 
L 37.796875 25.390625 
z
M 35.203125 72.90625 
L 47.609375 72.90625 
L 47.609375 25.390625 
L 58.015625 25.390625 
L 58.015625 17.1875 
L 47.609375 17.1875 
L 47.609375 0 
L 37.796875 0 
L 37.796875 17.1875 
L 4.890625 17.1875 
L 4.890625 26.703125 
z
" id="DejaVuSans-52"/>
      </defs>
      <g transform="translate(285.644948 377.116562)scale(0.1 -0.1)">
       <use xlink:href="#DejaVuSans-52"/>
       <use x="63.623047" xlink:href="#DejaVuSans-48"/>
       <use x="127.246094" xlink:href="#DejaVuSans-48"/>
       <use x="190.869141" xlink:href="#DejaVuSans-48"/>
       <use x="254.492188" xlink:href="#DejaVuSans-48"/>
       <use x="318.115234" xlink:href="#DejaVuSans-48"/>
      </g>
     </g>
    </g>
    <g id="xtick_6">
     <g id="line2d_6">
      <g>
       <use style="stroke:#000000;stroke-width:0.8;" x="365.356306" xlink:href="#m16e4f42f99" y="362.518125"/>
      </g>
     </g>
     <g id="text_6">
      <!-- 500000 -->
      <defs>
       <path d="M 10.796875 72.90625 
L 49.515625 72.90625 
L 49.515625 64.59375 
L 19.828125 64.59375 
L 19.828125 46.734375 
Q 21.96875 47.46875 24.109375 47.828125 
Q 26.265625 48.1875 28.421875 48.1875 
Q 40.625 48.1875 47.75 41.5 
Q 54.890625 34.8125 54.890625 23.390625 
Q 54.890625 11.625 47.5625 5.09375 
Q 40.234375 -1.421875 26.90625 -1.421875 
Q 22.3125 -1.421875 17.546875 -0.640625 
Q 12.796875 0.140625 7.71875 1.703125 
L 7.71875 11.625 
Q 12.109375 9.234375 16.796875 8.0625 
Q 21.484375 6.890625 26.703125 6.890625 
Q 35.15625 6.890625 40.078125 11.328125 
Q 45.015625 15.765625 45.015625 23.390625 
Q 45.015625 31 40.078125 35.4375 
Q 35.15625 39.890625 26.703125 39.890625 
Q 22.75 39.890625 18.8125 39.015625 
Q 14.890625 38.140625 10.796875 36.28125 
z
" id="DejaVuSans-53"/>
      </defs>
      <g transform="translate(346.268806 377.116562)scale(0.1 -0.1)">
       <use xlink:href="#DejaVuSans-53"/>
       <use x="63.623047" xlink:href="#DejaVuSans-48"/>
       <use x="127.246094" xlink:href="#DejaVuSans-48"/>
       <use x="190.869141" xlink:href="#DejaVuSans-48"/>
       <use x="254.492188" xlink:href="#DejaVuSans-48"/>
       <use x="318.115234" xlink:href="#DejaVuSans-48"/>
      </g>
     </g>
    </g>
    <g id="xtick_7">
     <g id="line2d_7">
      <g>
       <use style="stroke:#000000;stroke-width:0.8;" x="425.980163" xlink:href="#m16e4f42f99" y="362.518125"/>
      </g>
     </g>
     <g id="text_7">
      <!-- 600000 -->
      <defs>
       <path d="M 33.015625 40.375 
Q 26.375 40.375 22.484375 35.828125 
Q 18.609375 31.296875 18.609375 23.390625 
Q 18.609375 15.53125 22.484375 10.953125 
Q 26.375 6.390625 33.015625 6.390625 
Q 39.65625 6.390625 43.53125 10.953125 
Q 47.40625 15.53125 47.40625 23.390625 
Q 47.40625 31.296875 43.53125 35.828125 
Q 39.65625 40.375 33.015625 40.375 
z
M 52.59375 71.296875 
L 52.59375 62.3125 
Q 48.875 64.0625 45.09375 64.984375 
Q 41.3125 65.921875 37.59375 65.921875 
Q 27.828125 65.921875 22.671875 59.328125 
Q 17.53125 52.734375 16.796875 39.40625 
Q 19.671875 43.65625 24.015625 45.921875 
Q 28.375 48.1875 33.59375 48.1875 
Q 44.578125 48.1875 50.953125 41.515625 
Q 57.328125 34.859375 57.328125 23.390625 
Q 57.328125 12.15625 50.6875 5.359375 
Q 44.046875 -1.421875 33.015625 -1.421875 
Q 20.359375 -1.421875 13.671875 8.265625 
Q 6.984375 17.96875 6.984375 36.375 
Q 6.984375 53.65625 15.1875 63.9375 
Q 23.390625 74.21875 37.203125 74.21875 
Q 40.921875 74.21875 44.703125 73.484375 
Q 48.484375 72.75 52.59375 71.296875 
z
" id="DejaVuSans-54"/>
      </defs>
      <g transform="translate(406.892663 377.116562)scale(0.1 -0.1)">
       <use xlink:href="#DejaVuSans-54"/>
       <use x="63.623047" xlink:href="#DejaVuSans-48"/>
       <use x="127.246094" xlink:href="#DejaVuSans-48"/>
       <use x="190.869141" xlink:href="#DejaVuSans-48"/>
       <use x="254.492188" xlink:href="#DejaVuSans-48"/>
       <use x="318.115234" xlink:href="#DejaVuSans-48"/>
      </g>
     </g>
    </g>
    <g id="text_8">
     <!-- Mesh elements -->
     <defs>
      <path d="M 9.8125 72.90625 
L 24.515625 72.90625 
L 43.109375 23.296875 
L 61.8125 72.90625 
L 76.515625 72.90625 
L 76.515625 0 
L 66.890625 0 
L 66.890625 64.015625 
L 48.09375 14.015625 
L 38.1875 14.015625 
L 19.390625 64.015625 
L 19.390625 0 
L 9.8125 0 
z
" id="DejaVuSans-77"/>
      <path d="M 56.203125 29.59375 
L 56.203125 25.203125 
L 14.890625 25.203125 
Q 15.484375 15.921875 20.484375 11.0625 
Q 25.484375 6.203125 34.421875 6.203125 
Q 39.59375 6.203125 44.453125 7.46875 
Q 49.3125 8.734375 54.109375 11.28125 
L 54.109375 2.78125 
Q 49.265625 0.734375 44.1875 -0.34375 
Q 39.109375 -1.421875 33.890625 -1.421875 
Q 20.796875 -1.421875 13.15625 6.1875 
Q 5.515625 13.8125 5.515625 26.8125 
Q 5.515625 40.234375 12.765625 48.109375 
Q 20.015625 56 32.328125 56 
Q 43.359375 56 49.78125 48.890625 
Q 56.203125 41.796875 56.203125 29.59375 
z
M 47.21875 32.234375 
Q 47.125 39.59375 43.09375 43.984375 
Q 39.0625 48.390625 32.421875 48.390625 
Q 24.90625 48.390625 20.390625 44.140625 
Q 15.875 39.890625 15.1875 32.171875 
z
" id="DejaVuSans-101"/>
      <path d="M 44.28125 53.078125 
L 44.28125 44.578125 
Q 40.484375 46.53125 36.375 47.5 
Q 32.28125 48.484375 27.875 48.484375 
Q 21.1875 48.484375 17.84375 46.4375 
Q 14.5 44.390625 14.5 40.28125 
Q 14.5 37.15625 16.890625 35.375 
Q 19.28125 33.59375 26.515625 31.984375 
L 29.59375 31.296875 
Q 39.15625 29.25 43.1875 25.515625 
Q 47.21875 21.78125 47.21875 15.09375 
Q 47.21875 7.46875 41.1875 3.015625 
Q 35.15625 -1.421875 24.609375 -1.421875 
Q 20.21875 -1.421875 15.453125 -0.5625 
Q 10.6875 0.296875 5.421875 2 
L 5.421875 11.28125 
Q 10.40625 8.6875 15.234375 7.390625 
Q 20.0625 6.109375 24.8125 6.109375 
Q 31.15625 6.109375 34.5625 8.28125 
Q 37.984375 10.453125 37.984375 14.40625 
Q 37.984375 18.0625 35.515625 20.015625 
Q 33.0625 21.96875 24.703125 23.78125 
L 21.578125 24.515625 
Q 13.234375 26.265625 9.515625 29.90625 
Q 5.8125 33.546875 5.8125 39.890625 
Q 5.8125 47.609375 11.28125 51.796875 
Q 16.75 56 26.8125 56 
Q 31.78125 56 36.171875 55.265625 
Q 40.578125 54.546875 44.28125 53.078125 
z
" id="DejaVuSans-115"/>
      <path d="M 54.890625 33.015625 
L 54.890625 0 
L 45.90625 0 
L 45.90625 32.71875 
Q 45.90625 40.484375 42.875 44.328125 
Q 39.84375 48.1875 33.796875 48.1875 
Q 26.515625 48.1875 22.3125 43.546875 
Q 18.109375 38.921875 18.109375 30.90625 
L 18.109375 0 
L 9.078125 0 
L 9.078125 75.984375 
L 18.109375 75.984375 
L 18.109375 46.1875 
Q 21.34375 51.125 25.703125 53.5625 
Q 30.078125 56 35.796875 56 
Q 45.21875 56 50.046875 50.171875 
Q 54.890625 44.34375 54.890625 33.015625 
z
" id="DejaVuSans-104"/>
      <path id="DejaVuSans-32"/>
      <path d="M 9.421875 75.984375 
L 18.40625 75.984375 
L 18.40625 0 
L 9.421875 0 
z
" id="DejaVuSans-108"/>
      <path d="M 52 44.1875 
Q 55.375 50.25 60.0625 53.125 
Q 64.75 56 71.09375 56 
Q 79.640625 56 84.28125 50.015625 
Q 88.921875 44.046875 88.921875 33.015625 
L 88.921875 0 
L 79.890625 0 
L 79.890625 32.71875 
Q 79.890625 40.578125 77.09375 44.375 
Q 74.3125 48.1875 68.609375 48.1875 
Q 61.625 48.1875 57.5625 43.546875 
Q 53.515625 38.921875 53.515625 30.90625 
L 53.515625 0 
L 44.484375 0 
L 44.484375 32.71875 
Q 44.484375 40.625 41.703125 44.40625 
Q 38.921875 48.1875 33.109375 48.1875 
Q 26.21875 48.1875 22.15625 43.53125 
Q 18.109375 38.875 18.109375 30.90625 
L 18.109375 0 
L 9.078125 0 
L 9.078125 54.6875 
L 18.109375 54.6875 
L 18.109375 46.1875 
Q 21.1875 51.21875 25.484375 53.609375 
Q 29.78125 56 35.6875 56 
Q 41.65625 56 45.828125 52.96875 
Q 50 49.953125 52 44.1875 
z
" id="DejaVuSans-109"/>
      <path d="M 54.890625 33.015625 
L 54.890625 0 
L 45.90625 0 
L 45.90625 32.71875 
Q 45.90625 40.484375 42.875 44.328125 
Q 39.84375 48.1875 33.796875 48.1875 
Q 26.515625 48.1875 22.3125 43.546875 
Q 18.109375 38.921875 18.109375 30.90625 
L 18.109375 0 
L 9.078125 0 
L 9.078125 54.6875 
L 18.109375 54.6875 
L 18.109375 46.1875 
Q 21.34375 51.125 25.703125 53.5625 
Q 30.078125 56 35.796875 56 
Q 45.21875 56 50.046875 50.171875 
Q 54.890625 44.34375 54.890625 33.015625 
z
" id="DejaVuSans-110"/>
      <path d="M 18.3125 70.21875 
L 18.3125 54.6875 
L 36.8125 54.6875 
L 36.8125 47.703125 
L 18.3125 47.703125 
L 18.3125 18.015625 
Q 18.3125 11.328125 20.140625 9.421875 
Q 21.96875 7.515625 27.59375 7.515625 
L 36.8125 7.515625 
L 36.8125 0 
L 27.59375 0 
Q 17.1875 0 13.234375 3.875 
Q 9.28125 7.765625 9.28125 18.015625 
L 9.28125 47.703125 
L 2.6875 47.703125 
L 2.6875 54.6875 
L 9.28125 54.6875 
L 9.28125 70.21875 
z
" id="DejaVuSans-116"/>
     </defs>
     <g transform="translate(204.289844 390.794687)scale(0.1 -0.1)">
      <use xlink:href="#DejaVuSans-77"/>
      <use x="86.279297" xlink:href="#DejaVuSans-101"/>
      <use x="147.802734" xlink:href="#DejaVuSans-115"/>
      <use x="199.902344" xlink:href="#DejaVuSans-104"/>
      <use x="263.28125" xlink:href="#DejaVuSans-32"/>
      <use x="295.068359" xlink:href="#DejaVuSans-101"/>
      <use x="356.591797" xlink:href="#DejaVuSans-108"/>
      <use x="384.375" xlink:href="#DejaVuSans-101"/>
      <use x="445.898438" xlink:href="#DejaVuSans-109"/>
      <use x="543.310547" xlink:href="#DejaVuSans-101"/>
      <use x="604.833984" xlink:href="#DejaVuSans-110"/>
      <use x="668.212891" xlink:href="#DejaVuSans-116"/>
      <use x="707.421875" xlink:href="#DejaVuSans-115"/>
     </g>
    </g>
   </g>
   <g id="matplotlib.axis_2">
    <g id="ytick_1">
     <g id="line2d_8">
      <defs>
       <path d="M 0 0 
L -3.5 0 
" id="m070087a10c" style="stroke:#000000;stroke-width:0.8;"/>
      </defs>
      <g>
       <use style="stroke:#000000;stroke-width:0.8;" x="46.965625" xlink:href="#m070087a10c" y="348.346651"/>
      </g>
     </g>
     <g id="text_9">
      <!-- 0 -->
      <g transform="translate(33.603125 352.145869)scale(0.1 -0.1)">
       <use xlink:href="#DejaVuSans-48"/>
      </g>
     </g>
    </g>
    <g id="ytick_2">
     <g id="line2d_9">
      <g>
       <use style="stroke:#000000;stroke-width:0.8;" x="46.965625" xlink:href="#m070087a10c" y="298.170764"/>
      </g>
     </g>
     <g id="text_10">
      <!-- 100 -->
      <g transform="translate(20.878125 301.969982)scale(0.1 -0.1)">
       <use xlink:href="#DejaVuSans-49"/>
       <use x="63.623047" xlink:href="#DejaVuSans-48"/>
       <use x="127.246094" xlink:href="#DejaVuSans-48"/>
      </g>
     </g>
    </g>
    <g id="ytick_3">
     <g id="line2d_10">
      <g>
       <use style="stroke:#000000;stroke-width:0.8;" x="46.965625" xlink:href="#m070087a10c" y="247.994877"/>
      </g>
     </g>
     <g id="text_11">
      <!-- 200 -->
      <g transform="translate(20.878125 251.794096)scale(0.1 -0.1)">
       <use xlink:href="#DejaVuSans-50"/>
       <use x="63.623047" xlink:href="#DejaVuSans-48"/>
       <use x="127.246094" xlink:href="#DejaVuSans-48"/>
      </g>
     </g>
    </g>
    <g id="ytick_4">
     <g id="line2d_11">
      <g>
       <use style="stroke:#000000;stroke-width:0.8;" x="46.965625" xlink:href="#m070087a10c" y="197.81899"/>
      </g>
     </g>
     <g id="text_12">
      <!-- 300 -->
      <g transform="translate(20.878125 201.618209)scale(0.1 -0.1)">
       <use xlink:href="#DejaVuSans-51"/>
       <use x="63.623047" xlink:href="#DejaVuSans-48"/>
       <use x="127.246094" xlink:href="#DejaVuSans-48"/>
      </g>
     </g>
    </g>
    <g id="ytick_5">
     <g id="line2d_12">
      <g>
       <use style="stroke:#000000;stroke-width:0.8;" x="46.965625" xlink:href="#m070087a10c" y="147.643103"/>
      </g>
     </g>
     <g id="text_13">
      <!-- 400 -->
      <g transform="translate(20.878125 151.442322)scale(0.1 -0.1)">
       <use xlink:href="#DejaVuSans-52"/>
       <use x="63.623047" xlink:href="#DejaVuSans-48"/>
       <use x="127.246094" xlink:href="#DejaVuSans-48"/>
      </g>
     </g>
    </g>
    <g id="ytick_6">
     <g id="line2d_13">
      <g>
       <use style="stroke:#000000;stroke-width:0.8;" x="46.965625" xlink:href="#m070087a10c" y="97.467216"/>
      </g>
     </g>
     <g id="text_14">
      <!-- 500 -->
      <g transform="translate(20.878125 101.266435)scale(0.1 -0.1)">
       <use xlink:href="#DejaVuSans-53"/>
       <use x="63.623047" xlink:href="#DejaVuSans-48"/>
       <use x="127.246094" xlink:href="#DejaVuSans-48"/>
      </g>
     </g>
    </g>
    <g id="ytick_7">
     <g id="line2d_14">
      <g>
       <use style="stroke:#000000;stroke-width:0.8;" x="46.965625" xlink:href="#m070087a10c" y="47.29133"/>
      </g>
     </g>
     <g id="text_15">
      <!-- 600 -->
      <g transform="translate(20.878125 51.090548)scale(0.1 -0.1)">
       <use xlink:href="#DejaVuSans-54"/>
       <use x="63.623047" xlink:href="#DejaVuSans-48"/>
       <use x="127.246094" xlink:href="#DejaVuSans-48"/>
      </g>
     </g>
    </g>
    <g id="text_16">
     <!-- Execution Time (s) -->
     <defs>
      <path d="M 9.8125 72.90625 
L 55.90625 72.90625 
L 55.90625 64.59375 
L 19.671875 64.59375 
L 19.671875 43.015625 
L 54.390625 43.015625 
L 54.390625 34.71875 
L 19.671875 34.71875 
L 19.671875 8.296875 
L 56.78125 8.296875 
L 56.78125 0 
L 9.8125 0 
z
" id="DejaVuSans-69"/>
      <path d="M 54.890625 54.6875 
L 35.109375 28.078125 
L 55.90625 0 
L 45.3125 0 
L 29.390625 21.484375 
L 13.484375 0 
L 2.875 0 
L 24.125 28.609375 
L 4.6875 54.6875 
L 15.28125 54.6875 
L 29.78125 35.203125 
L 44.28125 54.6875 
z
" id="DejaVuSans-120"/>
      <path d="M 48.78125 52.59375 
L 48.78125 44.1875 
Q 44.96875 46.296875 41.140625 47.34375 
Q 37.3125 48.390625 33.40625 48.390625 
Q 24.65625 48.390625 19.8125 42.84375 
Q 14.984375 37.3125 14.984375 27.296875 
Q 14.984375 17.28125 19.8125 11.734375 
Q 24.65625 6.203125 33.40625 6.203125 
Q 37.3125 6.203125 41.140625 7.25 
Q 44.96875 8.296875 48.78125 10.40625 
L 48.78125 2.09375 
Q 45.015625 0.34375 40.984375 -0.53125 
Q 36.96875 -1.421875 32.421875 -1.421875 
Q 20.0625 -1.421875 12.78125 6.34375 
Q 5.515625 14.109375 5.515625 27.296875 
Q 5.515625 40.671875 12.859375 48.328125 
Q 20.21875 56 33.015625 56 
Q 37.15625 56 41.109375 55.140625 
Q 45.0625 54.296875 48.78125 52.59375 
z
" id="DejaVuSans-99"/>
      <path d="M 8.5 21.578125 
L 8.5 54.6875 
L 17.484375 54.6875 
L 17.484375 21.921875 
Q 17.484375 14.15625 20.5 10.265625 
Q 23.53125 6.390625 29.59375 6.390625 
Q 36.859375 6.390625 41.078125 11.03125 
Q 45.3125 15.671875 45.3125 23.6875 
L 45.3125 54.6875 
L 54.296875 54.6875 
L 54.296875 0 
L 45.3125 0 
L 45.3125 8.40625 
Q 42.046875 3.421875 37.71875 1 
Q 33.40625 -1.421875 27.6875 -1.421875 
Q 18.265625 -1.421875 13.375 4.4375 
Q 8.5 10.296875 8.5 21.578125 
z
M 31.109375 56 
z
" id="DejaVuSans-117"/>
      <path d="M 9.421875 54.6875 
L 18.40625 54.6875 
L 18.40625 0 
L 9.421875 0 
z
M 9.421875 75.984375 
L 18.40625 75.984375 
L 18.40625 64.59375 
L 9.421875 64.59375 
z
" id="DejaVuSans-105"/>
      <path d="M 30.609375 48.390625 
Q 23.390625 48.390625 19.1875 42.75 
Q 14.984375 37.109375 14.984375 27.296875 
Q 14.984375 17.484375 19.15625 11.84375 
Q 23.34375 6.203125 30.609375 6.203125 
Q 37.796875 6.203125 41.984375 11.859375 
Q 46.1875 17.53125 46.1875 27.296875 
Q 46.1875 37.015625 41.984375 42.703125 
Q 37.796875 48.390625 30.609375 48.390625 
z
M 30.609375 56 
Q 42.328125 56 49.015625 48.375 
Q 55.71875 40.765625 55.71875 27.296875 
Q 55.71875 13.875 49.015625 6.21875 
Q 42.328125 -1.421875 30.609375 -1.421875 
Q 18.84375 -1.421875 12.171875 6.21875 
Q 5.515625 13.875 5.515625 27.296875 
Q 5.515625 40.765625 12.171875 48.375 
Q 18.84375 56 30.609375 56 
z
" id="DejaVuSans-111"/>
      <path d="M -0.296875 72.90625 
L 61.375 72.90625 
L 61.375 64.59375 
L 35.5 64.59375 
L 35.5 0 
L 25.59375 0 
L 25.59375 64.59375 
L -0.296875 64.59375 
z
" id="DejaVuSans-84"/>
      <path d="M 31 75.875 
Q 24.46875 64.65625 21.28125 53.65625 
Q 18.109375 42.671875 18.109375 31.390625 
Q 18.109375 20.125 21.3125 9.0625 
Q 24.515625 -2 31 -13.1875 
L 23.1875 -13.1875 
Q 15.875 -1.703125 12.234375 9.375 
Q 8.59375 20.453125 8.59375 31.390625 
Q 8.59375 42.28125 12.203125 53.3125 
Q 15.828125 64.359375 23.1875 75.875 
z
" id="DejaVuSans-40"/>
      <path d="M 8.015625 75.875 
L 15.828125 75.875 
Q 23.140625 64.359375 26.78125 53.3125 
Q 30.421875 42.28125 30.421875 31.390625 
Q 30.421875 20.453125 26.78125 9.375 
Q 23.140625 -1.703125 15.828125 -13.1875 
L 8.015625 -13.1875 
Q 14.5 -2 17.703125 9.0625 
Q 20.90625 20.125 20.90625 31.390625 
Q 20.90625 42.671875 17.703125 53.65625 
Q 14.5 64.65625 8.015625 75.875 
z
" id="DejaVuSans-41"/>
     </defs>
     <g transform="translate(14.798438 238.870469)rotate(-90)scale(0.1 -0.1)">
      <use xlink:href="#DejaVuSans-69"/>
      <use x="63.183594" xlink:href="#DejaVuSans-120"/>
      <use x="119.238281" xlink:href="#DejaVuSans-101"/>
      <use x="180.761719" xlink:href="#DejaVuSans-99"/>
      <use x="235.742188" xlink:href="#DejaVuSans-117"/>
      <use x="299.121094" xlink:href="#DejaVuSans-116"/>
      <use x="338.330078" xlink:href="#DejaVuSans-105"/>
      <use x="366.113281" xlink:href="#DejaVuSans-111"/>
      <use x="427.294922" xlink:href="#DejaVuSans-110"/>
      <use x="490.673828" xlink:href="#DejaVuSans-32"/>
      <use x="522.460938" xlink:href="#DejaVuSans-84"/>
      <use x="580.419922" xlink:href="#DejaVuSans-105"/>
      <use x="608.203125" xlink:href="#DejaVuSans-109"/>
      <use x="705.615234" xlink:href="#DejaVuSans-101"/>
      <use x="767.138672" xlink:href="#DejaVuSans-32"/>
      <use x="798.925781" xlink:href="#DejaVuSans-40"/>
      <use x="837.939453" xlink:href="#DejaVuSans-115"/>
      <use x="890.039062" xlink:href="#DejaVuSans-41"/>
     </g>
    </g>
   </g>
   <g id="line2d_15">
    <path clip-path="url(#p3130d743d0)" d="M 64.72017 339.24008 
L 72.16963 342.9592 
L 84.585396 340.78404 
L 101.967469 334.653931 
L 124.315848 326.155379 
L 151.630533 316.207085 
L 221.158823 286.769277 
L 419.81108 197.012835 
" style="fill:none;stroke:#0000ff;stroke-linecap:square;stroke-width:1.5;"/>
    <defs>
     <path d="M -3 3 
L 3 3 
L 3 -3 
L -3 -3 
z
" id="m16ad7bbaf5" style="stroke:#0000ff;stroke-linejoin:miter;"/>
    </defs>
    <g clip-path="url(#p3130d743d0)">
     <use style="fill:#ffffff;stroke:#0000ff;stroke-linejoin:miter;" x="64.72017" xlink:href="#m16ad7bbaf5" y="339.24008"/>
     <use style="fill:#ffffff;stroke:#0000ff;stroke-linejoin:miter;" x="72.16963" xlink:href="#m16ad7bbaf5" y="342.9592"/>
     <use style="fill:#ffffff;stroke:#0000ff;stroke-linejoin:miter;" x="84.585396" xlink:href="#m16ad7bbaf5" y="340.78404"/>
     <use style="fill:#ffffff;stroke:#0000ff;stroke-linejoin:miter;" x="101.967469" xlink:href="#m16ad7bbaf5" y="334.653931"/>
     <use style="fill:#ffffff;stroke:#0000ff;stroke-linejoin:miter;" x="124.315848" xlink:href="#m16ad7bbaf5" y="326.155379"/>
     <use style="fill:#ffffff;stroke:#0000ff;stroke-linejoin:miter;" x="151.630533" xlink:href="#m16ad7bbaf5" y="316.207085"/>
     <use style="fill:#ffffff;stroke:#0000ff;stroke-linejoin:miter;" x="221.158823" xlink:href="#m16ad7bbaf5" y="286.769277"/>
     <use style="fill:#ffffff;stroke:#0000ff;stroke-linejoin:miter;" x="419.81108" xlink:href="#m16ad7bbaf5" y="197.012835"/>
    </g>
   </g>
   <g id="line2d_16">
    <path clip-path="url(#p3130d743d0)" d="M 64.72017 347.054489 
L 72.16963 343.600417 
L 84.585396 337.210472 
L 101.967469 327.834444 
L 124.315848 313.997811 
L 151.630533 299.819701 
L 221.158823 255.29381 
L 419.81108 111.356845 
" style="fill:none;stroke:#0000ff;stroke-linecap:square;stroke-width:1.5;"/>
    <defs>
     <path d="M 0 -3 
L -3 3 
L 3 3 
z
" id="ma95644e982" style="stroke:#0000ff;stroke-linejoin:miter;"/>
    </defs>
    <g clip-path="url(#p3130d743d0)">
     <use style="fill:#ffffff;stroke:#0000ff;stroke-linejoin:miter;" x="64.72017" xlink:href="#ma95644e982" y="347.054489"/>
     <use style="fill:#ffffff;stroke:#0000ff;stroke-linejoin:miter;" x="72.16963" xlink:href="#ma95644e982" y="343.600417"/>
     <use style="fill:#ffffff;stroke:#0000ff;stroke-linejoin:miter;" x="84.585396" xlink:href="#ma95644e982" y="337.210472"/>
     <use style="fill:#ffffff;stroke:#0000ff;stroke-linejoin:miter;" x="101.967469" xlink:href="#ma95644e982" y="327.834444"/>
     <use style="fill:#ffffff;stroke:#0000ff;stroke-linejoin:miter;" x="124.315848" xlink:href="#ma95644e982" y="313.997811"/>
     <use style="fill:#ffffff;stroke:#0000ff;stroke-linejoin:miter;" x="151.630533" xlink:href="#ma95644e982" y="299.819701"/>
     <use style="fill:#ffffff;stroke:#0000ff;stroke-linejoin:miter;" x="221.158823" xlink:href="#ma95644e982" y="255.29381"/>
     <use style="fill:#ffffff;stroke:#0000ff;stroke-linejoin:miter;" x="419.81108" xlink:href="#ma95644e982" y="111.356845"/>
    </g>
   </g>
   <g id="line2d_17">
    <path clip-path="url(#p3130d743d0)" d="M 64.72017 340.591257 
L 72.16963 342.997209 
L 84.585396 341.020081 
L 101.967469 335.359094 
L 124.315848 327.23226 
L 151.630533 317.551596 
L 221.158823 288.232278 
L 419.81108 200.879763 
" style="fill:none;stroke:#0000ff;stroke-linecap:square;stroke-width:1.5;"/>
    <defs>
     <path d="M 0 3 
C 0.795609 3 1.55874 2.683901 2.12132 2.12132 
C 2.683901 1.55874 3 0.795609 3 0 
C 3 -0.795609 2.683901 -1.55874 2.12132 -2.12132 
C 1.55874 -2.683901 0.795609 -3 0 -3 
C -0.795609 -3 -1.55874 -2.683901 -2.12132 -2.12132 
C -2.683901 -1.55874 -3 -0.795609 -3 0 
C -3 0.795609 -2.683901 1.55874 -2.12132 2.12132 
C -1.55874 2.683901 -0.795609 3 0 3 
z
" id="m12b836de1d" style="stroke:#0000ff;"/>
    </defs>
    <g clip-path="url(#p3130d743d0)">
     <use style="fill:#ffffff;stroke:#0000ff;" x="64.72017" xlink:href="#m12b836de1d" y="340.591257"/>
     <use style="fill:#ffffff;stroke:#0000ff;" x="72.16963" xlink:href="#m12b836de1d" y="342.997209"/>
     <use style="fill:#ffffff;stroke:#0000ff;" x="84.585396" xlink:href="#m12b836de1d" y="341.020081"/>
     <use style="fill:#ffffff;stroke:#0000ff;" x="101.967469" xlink:href="#m12b836de1d" y="335.359094"/>
     <use style="fill:#ffffff;stroke:#0000ff;" x="124.315848" xlink:href="#m12b836de1d" y="327.23226"/>
     <use style="fill:#ffffff;stroke:#0000ff;" x="151.630533" xlink:href="#m12b836de1d" y="317.551596"/>
     <use style="fill:#ffffff;stroke:#0000ff;" x="221.158823" xlink:href="#m12b836de1d" y="288.232278"/>
     <use style="fill:#ffffff;stroke:#0000ff;" x="419.81108" xlink:href="#m12b836de1d" y="200.879763"/>
    </g>
   </g>
   <g id="line2d_18">
    <path clip-path="url(#p3130d743d0)" d="M 64.72017 343.746675 
L 72.16963 340.737152 
L 84.585396 330.8816 
L 101.967469 317.674746 
L 124.315848 300.024358 
L 151.630533 277.351823 
" style="fill:none;stroke:#ff0000;stroke-linecap:square;stroke-width:1.5;"/>
    <defs>
     <path d="M -3 3 
L 3 3 
L 3 -3 
L -3 -3 
z
" id="m288e2ea7f1" style="stroke:#ff0000;stroke-linejoin:miter;"/>
    </defs>
    <g clip-path="url(#p3130d743d0)">
     <use style="fill:#ffffff;stroke:#ff0000;stroke-linejoin:miter;" x="64.72017" xlink:href="#m288e2ea7f1" y="343.746675"/>
     <use style="fill:#ffffff;stroke:#ff0000;stroke-linejoin:miter;" x="72.16963" xlink:href="#m288e2ea7f1" y="340.737152"/>
     <use style="fill:#ffffff;stroke:#ff0000;stroke-linejoin:miter;" x="84.585396" xlink:href="#m288e2ea7f1" y="330.8816"/>
     <use style="fill:#ffffff;stroke:#ff0000;stroke-linejoin:miter;" x="101.967469" xlink:href="#m288e2ea7f1" y="317.674746"/>
     <use style="fill:#ffffff;stroke:#ff0000;stroke-linejoin:miter;" x="124.315848" xlink:href="#m288e2ea7f1" y="300.024358"/>
     <use style="fill:#ffffff;stroke:#ff0000;stroke-linejoin:miter;" x="151.630533" xlink:href="#m288e2ea7f1" y="277.351823"/>
    </g>
   </g>
   <g id="line2d_19">
    <path clip-path="url(#p3130d743d0)" d="M 64.72017 341.586356 
L 72.16963 335.936058 
M 101.967469 295.460394 
L 124.315848 274.181319 
L 151.630533 236.128367 
" style="fill:none;stroke:#ff0000;stroke-linecap:square;stroke-width:1.5;"/>
    <defs>
     <path d="M 0 -3 
L -3 3 
L 3 3 
z
" id="m6c0747161c" style="stroke:#ff0000;stroke-linejoin:miter;"/>
    </defs>
    <g clip-path="url(#p3130d743d0)">
     <use style="fill:#ffffff;stroke:#ff0000;stroke-linejoin:miter;" x="64.72017" xlink:href="#m6c0747161c" y="341.586356"/>
     <use style="fill:#ffffff;stroke:#ff0000;stroke-linejoin:miter;" x="72.16963" xlink:href="#m6c0747161c" y="335.936058"/>
     <use style="fill:#ffffff;stroke:#ff0000;stroke-linejoin:miter;" x="101.967469" xlink:href="#m6c0747161c" y="295.460394"/>
     <use style="fill:#ffffff;stroke:#ff0000;stroke-linejoin:miter;" x="124.315848" xlink:href="#m6c0747161c" y="274.181319"/>
     <use style="fill:#ffffff;stroke:#ff0000;stroke-linejoin:miter;" x="151.630533" xlink:href="#m6c0747161c" y="236.128367"/>
    </g>
   </g>
   <g id="line2d_20">
    <path clip-path="url(#p3130d743d0)" d="M 64.72017 343.22664 
L 72.16963 336.295915 
L 84.585396 323.06041 
L 101.967469 304.904244 
L 124.315848 279.78851 
L 151.630533 249.376386 
" style="fill:none;stroke:#ff0000;stroke-linecap:square;stroke-width:1.5;"/>
    <defs>
     <path d="M 0 3 
C 0.795609 3 1.55874 2.683901 2.12132 2.12132 
C 2.683901 1.55874 3 0.795609 3 0 
C 3 -0.795609 2.683901 -1.55874 2.12132 -2.12132 
C 1.55874 -2.683901 0.795609 -3 0 -3 
C -0.795609 -3 -1.55874 -2.683901 -2.12132 -2.12132 
C -2.683901 -1.55874 -3 -0.795609 -3 0 
C -3 0.795609 -2.683901 1.55874 -2.12132 2.12132 
C -1.55874 2.683901 -0.795609 3 0 3 
z
" id="m8ca2fe92d2" style="stroke:#ff0000;"/>
    </defs>
    <g clip-path="url(#p3130d743d0)">
     <use style="fill:#ffffff;stroke:#ff0000;" x="64.72017" xlink:href="#m8ca2fe92d2" y="343.22664"/>
     <use style="fill:#ffffff;stroke:#ff0000;" x="72.16963" xlink:href="#m8ca2fe92d2" y="336.295915"/>
     <use style="fill:#ffffff;stroke:#ff0000;" x="84.585396" xlink:href="#m8ca2fe92d2" y="323.06041"/>
     <use style="fill:#ffffff;stroke:#ff0000;" x="101.967469" xlink:href="#m8ca2fe92d2" y="304.904244"/>
     <use style="fill:#ffffff;stroke:#ff0000;" x="124.315848" xlink:href="#m8ca2fe92d2" y="279.78851"/>
     <use style="fill:#ffffff;stroke:#ff0000;" x="151.630533" xlink:href="#m8ca2fe92d2" y="249.376386"/>
    </g>
   </g>
   <g id="line2d_21">
    <path clip-path="url(#p3130d743d0)" d="M 64.72017 343.17046 
L 72.16963 334.336188 
L 84.585396 317.575023 
L 101.967469 291.252216 
L 124.315848 251.650005 
L 151.630533 205.335375 
" style="fill:none;stroke:#ff0000;stroke-linecap:square;stroke-width:1.5;"/>
    <defs>
     <path d="M 0 -3 
L -3 3 
L 3 3 
z
" id="m0699b541c8" style="stroke:#ff0000;stroke-linejoin:miter;"/>
    </defs>
    <g clip-path="url(#p3130d743d0)">
     <use style="fill:#ff0000;stroke:#ff0000;stroke-linejoin:miter;" x="64.72017" xlink:href="#m0699b541c8" y="343.17046"/>
     <use style="fill:#ff0000;stroke:#ff0000;stroke-linejoin:miter;" x="72.16963" xlink:href="#m0699b541c8" y="334.336188"/>
     <use style="fill:#ff0000;stroke:#ff0000;stroke-linejoin:miter;" x="84.585396" xlink:href="#m0699b541c8" y="317.575023"/>
     <use style="fill:#ff0000;stroke:#ff0000;stroke-linejoin:miter;" x="101.967469" xlink:href="#m0699b541c8" y="291.252216"/>
     <use style="fill:#ff0000;stroke:#ff0000;stroke-linejoin:miter;" x="124.315848" xlink:href="#m0699b541c8" y="251.650005"/>
     <use style="fill:#ff0000;stroke:#ff0000;stroke-linejoin:miter;" x="151.630533" xlink:href="#m0699b541c8" y="205.335375"/>
    </g>
   </g>
   <g id="line2d_22">
    <path clip-path="url(#p3130d743d0)" d="M 64.72017 344.568795 
L 72.16963 339.493906 
L 84.585396 327.5451 
L 101.967469 307.616381 
L 124.315848 271.512328 
L 151.630533 218.735386 
" style="fill:none;stroke:#ff0000;stroke-linecap:square;stroke-width:1.5;"/>
    <defs>
     <path d="M -3 3 
L 3 3 
L 3 -3 
L -3 -3 
z
" id="ma34b6daa4f" style="stroke:#ff0000;stroke-linejoin:miter;"/>
    </defs>
    <g clip-path="url(#p3130d743d0)">
     <use style="fill:#ff0000;stroke:#ff0000;stroke-linejoin:miter;" x="64.72017" xlink:href="#ma34b6daa4f" y="344.568795"/>
     <use style="fill:#ff0000;stroke:#ff0000;stroke-linejoin:miter;" x="72.16963" xlink:href="#ma34b6daa4f" y="339.493906"/>
     <use style="fill:#ff0000;stroke:#ff0000;stroke-linejoin:miter;" x="84.585396" xlink:href="#ma34b6daa4f" y="327.5451"/>
     <use style="fill:#ff0000;stroke:#ff0000;stroke-linejoin:miter;" x="101.967469" xlink:href="#ma34b6daa4f" y="307.616381"/>
     <use style="fill:#ff0000;stroke:#ff0000;stroke-linejoin:miter;" x="124.315848" xlink:href="#ma34b6daa4f" y="271.512328"/>
     <use style="fill:#ff0000;stroke:#ff0000;stroke-linejoin:miter;" x="151.630533" xlink:href="#ma34b6daa4f" y="218.735386"/>
    </g>
   </g>
   <g id="line2d_23">
    <path clip-path="url(#p3130d743d0)" d="M 64.72017 343.931884 
L 72.16963 335.554438 
L 84.585396 317.959379 
L 101.967469 289.315558 
L 124.315848 237.473919 
L 151.630533 158.646833 
" style="fill:none;stroke:#ff0000;stroke-linecap:square;stroke-width:1.5;"/>
    <defs>
     <path d="M 0 3 
C 0.795609 3 1.55874 2.683901 2.12132 2.12132 
C 2.683901 1.55874 3 0.795609 3 0 
C 3 -0.795609 2.683901 -1.55874 2.12132 -2.12132 
C 1.55874 -2.683901 0.795609 -3 0 -3 
C -0.795609 -3 -1.55874 -2.683901 -2.12132 -2.12132 
C -2.683901 -1.55874 -3 -0.795609 -3 0 
C -3 0.795609 -2.683901 1.55874 -2.12132 2.12132 
C -1.55874 2.683901 -0.795609 3 0 3 
z
" id="m5237636da0" style="stroke:#ff0000;"/>
    </defs>
    <g clip-path="url(#p3130d743d0)">
     <use style="fill:#ff0000;stroke:#ff0000;" x="64.72017" xlink:href="#m5237636da0" y="343.931884"/>
     <use style="fill:#ff0000;stroke:#ff0000;" x="72.16963" xlink:href="#m5237636da0" y="335.554438"/>
     <use style="fill:#ff0000;stroke:#ff0000;" x="84.585396" xlink:href="#m5237636da0" y="317.959379"/>
     <use style="fill:#ff0000;stroke:#ff0000;" x="101.967469" xlink:href="#m5237636da0" y="289.315558"/>
     <use style="fill:#ff0000;stroke:#ff0000;" x="124.315848" xlink:href="#m5237636da0" y="237.473919"/>
     <use style="fill:#ff0000;stroke:#ff0000;" x="151.630533" xlink:href="#m5237636da0" y="158.646833"/>
    </g>
   </g>
   <g id="line2d_24">
    <path clip-path="url(#p3130d743d0)" d="M 64.72017 346.948588 
L 72.16963 344.236558 
L 84.585396 338.480547 
L 101.967469 331.472577 
L 124.315848 318.967385 
L 151.630533 303.792763 
L 221.158823 268.952619 
L 419.81108 122.604275 
" style="fill:none;stroke:#008000;stroke-linecap:square;stroke-width:1.5;"/>
    <defs>
     <path d="M -3 3 
L 3 3 
L 3 -3 
L -3 -3 
z
" id="m9a6fd65312" style="stroke:#008000;stroke-linejoin:miter;"/>
    </defs>
    <g clip-path="url(#p3130d743d0)">
     <use style="fill:#ffffff;stroke:#008000;stroke-linejoin:miter;" x="64.72017" xlink:href="#m9a6fd65312" y="346.948588"/>
     <use style="fill:#ffffff;stroke:#008000;stroke-linejoin:miter;" x="72.16963" xlink:href="#m9a6fd65312" y="344.236558"/>
     <use style="fill:#ffffff;stroke:#008000;stroke-linejoin:miter;" x="84.585396" xlink:href="#m9a6fd65312" y="338.480547"/>
     <use style="fill:#ffffff;stroke:#008000;stroke-linejoin:miter;" x="101.967469" xlink:href="#m9a6fd65312" y="331.472577"/>
     <use style="fill:#ffffff;stroke:#008000;stroke-linejoin:miter;" x="124.315848" xlink:href="#m9a6fd65312" y="318.967385"/>
     <use style="fill:#ffffff;stroke:#008000;stroke-linejoin:miter;" x="151.630533" xlink:href="#m9a6fd65312" y="303.792763"/>
     <use style="fill:#ffffff;stroke:#008000;stroke-linejoin:miter;" x="221.158823" xlink:href="#m9a6fd65312" y="268.952619"/>
     <use style="fill:#ffffff;stroke:#008000;stroke-linejoin:miter;" x="419.81108" xlink:href="#m9a6fd65312" y="122.604275"/>
    </g>
   </g>
   <g id="line2d_25">
    <path clip-path="url(#p3130d743d0)" d="M 64.72017 347.025164 
L 72.16963 343.377854 
L 84.585396 335.895074 
L 101.967469 324.871266 
L 124.315848 309.639508 
L 151.630533 290.96251 
L 221.158823 239.243881 
L 419.81108 37.781761 
" style="fill:none;stroke:#008000;stroke-linecap:square;stroke-width:1.5;"/>
    <defs>
     <path d="M 0 -3 
L -3 3 
L 3 3 
z
" id="mb0e3b4b976" style="stroke:#008000;stroke-linejoin:miter;"/>
    </defs>
    <g clip-path="url(#p3130d743d0)">
     <use style="fill:#ffffff;stroke:#008000;stroke-linejoin:miter;" x="64.72017" xlink:href="#mb0e3b4b976" y="347.025164"/>
     <use style="fill:#ffffff;stroke:#008000;stroke-linejoin:miter;" x="72.16963" xlink:href="#mb0e3b4b976" y="343.377854"/>
     <use style="fill:#ffffff;stroke:#008000;stroke-linejoin:miter;" x="84.585396" xlink:href="#mb0e3b4b976" y="335.895074"/>
     <use style="fill:#ffffff;stroke:#008000;stroke-linejoin:miter;" x="101.967469" xlink:href="#mb0e3b4b976" y="324.871266"/>
     <use style="fill:#ffffff;stroke:#008000;stroke-linejoin:miter;" x="124.315848" xlink:href="#mb0e3b4b976" y="309.639508"/>
     <use style="fill:#ffffff;stroke:#008000;stroke-linejoin:miter;" x="151.630533" xlink:href="#mb0e3b4b976" y="290.96251"/>
     <use style="fill:#ffffff;stroke:#008000;stroke-linejoin:miter;" x="221.158823" xlink:href="#mb0e3b4b976" y="239.243881"/>
     <use style="fill:#ffffff;stroke:#008000;stroke-linejoin:miter;" x="419.81108" xlink:href="#mb0e3b4b976" y="37.781761"/>
    </g>
   </g>
   <g id="line2d_26">
    <path clip-path="url(#p3130d743d0)" d="M 64.72017 346.321794 
L 72.16963 344.121926 
L 84.585396 338.838615 
L 101.967469 332.251458 
L 124.315848 317.293641 
L 151.630533 303.774653 
L 221.158823 274.004898 
L 419.81108 132.171582 
" style="fill:none;stroke:#008000;stroke-linecap:square;stroke-width:1.5;"/>
    <defs>
     <path d="M 0 3 
C 0.795609 3 1.55874 2.683901 2.12132 2.12132 
C 2.683901 1.55874 3 0.795609 3 0 
C 3 -0.795609 2.683901 -1.55874 2.12132 -2.12132 
C 1.55874 -2.683901 0.795609 -3 0 -3 
C -0.795609 -3 -1.55874 -2.683901 -2.12132 -2.12132 
C -2.683901 -1.55874 -3 -0.795609 -3 0 
C -3 0.795609 -2.683901 1.55874 -2.12132 2.12132 
C -1.55874 2.683901 -0.795609 3 0 3 
z
" id="m8cc3e995fb" style="stroke:#008000;"/>
    </defs>
    <g clip-path="url(#p3130d743d0)">
     <use style="fill:#ffffff;stroke:#008000;" x="64.72017" xlink:href="#m8cc3e995fb" y="346.321794"/>
     <use style="fill:#ffffff;stroke:#008000;" x="72.16963" xlink:href="#m8cc3e995fb" y="344.121926"/>
     <use style="fill:#ffffff;stroke:#008000;" x="84.585396" xlink:href="#m8cc3e995fb" y="338.838615"/>
     <use style="fill:#ffffff;stroke:#008000;" x="101.967469" xlink:href="#m8cc3e995fb" y="332.251458"/>
     <use style="fill:#ffffff;stroke:#008000;" x="124.315848" xlink:href="#m8cc3e995fb" y="317.293641"/>
     <use style="fill:#ffffff;stroke:#008000;" x="151.630533" xlink:href="#m8cc3e995fb" y="303.774653"/>
     <use style="fill:#ffffff;stroke:#008000;" x="221.158823" xlink:href="#m8cc3e995fb" y="274.004898"/>
     <use style="fill:#ffffff;stroke:#008000;" x="419.81108" xlink:href="#m8cc3e995fb" y="132.171582"/>
    </g>
   </g>
   <g id="line2d_27">
    <path clip-path="url(#p3130d743d0)" d="M 64.72017 344.956417 
L 72.16963 342.097465 
L 84.585396 334.496785 
L 101.967469 324.953486 
L 124.315848 309.736235 
L 151.630533 290.662979 
L 221.158823 251.132936 
L 419.81108 79.845226 
" style="fill:none;stroke:#008000;stroke-linecap:square;stroke-width:1.5;"/>
    <defs>
     <path d="M 0 -3 
L -3 3 
L 3 3 
z
" id="mdb14310632" style="stroke:#008000;stroke-linejoin:miter;"/>
    </defs>
    <g clip-path="url(#p3130d743d0)">
     <use style="fill:#008000;stroke:#008000;stroke-linejoin:miter;" x="64.72017" xlink:href="#mdb14310632" y="344.956417"/>
     <use style="fill:#008000;stroke:#008000;stroke-linejoin:miter;" x="72.16963" xlink:href="#mdb14310632" y="342.097465"/>
     <use style="fill:#008000;stroke:#008000;stroke-linejoin:miter;" x="84.585396" xlink:href="#mdb14310632" y="334.496785"/>
     <use style="fill:#008000;stroke:#008000;stroke-linejoin:miter;" x="101.967469" xlink:href="#mdb14310632" y="324.953486"/>
     <use style="fill:#008000;stroke:#008000;stroke-linejoin:miter;" x="124.315848" xlink:href="#mdb14310632" y="309.736235"/>
     <use style="fill:#008000;stroke:#008000;stroke-linejoin:miter;" x="151.630533" xlink:href="#mdb14310632" y="290.662979"/>
     <use style="fill:#008000;stroke:#008000;stroke-linejoin:miter;" x="221.158823" xlink:href="#mdb14310632" y="251.132936"/>
     <use style="fill:#008000;stroke:#008000;stroke-linejoin:miter;" x="419.81108" xlink:href="#mdb14310632" y="79.845226"/>
    </g>
   </g>
   <g id="line2d_28">
    <path clip-path="url(#p3130d743d0)" d="M 64.72017 346.034552 
L 72.16963 343.803426 
L 84.585396 338.253172 
L 101.967469 331.350045 
L 124.315848 319.467276 
L 151.630533 305.964717 
L 221.158823 276.204257 
L 419.81108 144.558967 
" style="fill:none;stroke:#008000;stroke-linecap:square;stroke-width:1.5;"/>
    <defs>
     <path d="M -3 3 
L 3 3 
L 3 -3 
L -3 -3 
z
" id="m6a8c1b3d89" style="stroke:#008000;stroke-linejoin:miter;"/>
    </defs>
    <g clip-path="url(#p3130d743d0)">
     <use style="fill:#008000;stroke:#008000;stroke-linejoin:miter;" x="64.72017" xlink:href="#m6a8c1b3d89" y="346.034552"/>
     <use style="fill:#008000;stroke:#008000;stroke-linejoin:miter;" x="72.16963" xlink:href="#m6a8c1b3d89" y="343.803426"/>
     <use style="fill:#008000;stroke:#008000;stroke-linejoin:miter;" x="84.585396" xlink:href="#m6a8c1b3d89" y="338.253172"/>
     <use style="fill:#008000;stroke:#008000;stroke-linejoin:miter;" x="101.967469" xlink:href="#m6a8c1b3d89" y="331.350045"/>
     <use style="fill:#008000;stroke:#008000;stroke-linejoin:miter;" x="124.315848" xlink:href="#m6a8c1b3d89" y="319.467276"/>
     <use style="fill:#008000;stroke:#008000;stroke-linejoin:miter;" x="151.630533" xlink:href="#m6a8c1b3d89" y="305.964717"/>
     <use style="fill:#008000;stroke:#008000;stroke-linejoin:miter;" x="221.158823" xlink:href="#m6a8c1b3d89" y="276.204257"/>
     <use style="fill:#008000;stroke:#008000;stroke-linejoin:miter;" x="419.81108" xlink:href="#m6a8c1b3d89" y="144.558967"/>
    </g>
   </g>
   <g id="line2d_29">
    <path clip-path="url(#p3130d743d0)" d="M 64.72017 346.000699 
L 72.16963 343.641258 
L 84.585396 338.322987 
L 101.967469 332.171773 
L 124.315848 319.583177 
L 151.630533 308.462029 
L 221.158823 280.523141 
L 419.81108 160.183243 
" style="fill:none;stroke:#008000;stroke-linecap:square;stroke-width:1.5;"/>
    <defs>
     <path d="M 0 3 
C 0.795609 3 1.55874 2.683901 2.12132 2.12132 
C 2.683901 1.55874 3 0.795609 3 0 
C 3 -0.795609 2.683901 -1.55874 2.12132 -2.12132 
C 1.55874 -2.683901 0.795609 -3 0 -3 
C -0.795609 -3 -1.55874 -2.683901 -2.12132 -2.12132 
C -2.683901 -1.55874 -3 -0.795609 -3 0 
C -3 0.795609 -2.683901 1.55874 -2.12132 2.12132 
C -1.55874 2.683901 -0.795609 3 0 3 
z
" id="m0d9d049cae" style="stroke:#008000;"/>
    </defs>
    <g clip-path="url(#p3130d743d0)">
     <use style="fill:#008000;stroke:#008000;" x="64.72017" xlink:href="#m0d9d049cae" y="346.000699"/>
     <use style="fill:#008000;stroke:#008000;" x="72.16963" xlink:href="#m0d9d049cae" y="343.641258"/>
     <use style="fill:#008000;stroke:#008000;" x="84.585396" xlink:href="#m0d9d049cae" y="338.322987"/>
     <use style="fill:#008000;stroke:#008000;" x="101.967469" xlink:href="#m0d9d049cae" y="332.171773"/>
     <use style="fill:#008000;stroke:#008000;" x="124.315848" xlink:href="#m0d9d049cae" y="319.583177"/>
     <use style="fill:#008000;stroke:#008000;" x="151.630533" xlink:href="#m0d9d049cae" y="308.462029"/>
     <use style="fill:#008000;stroke:#008000;" x="221.158823" xlink:href="#m0d9d049cae" y="280.523141"/>
     <use style="fill:#008000;stroke:#008000;" x="419.81108" xlink:href="#m0d9d049cae" y="160.183243"/>
    </g>
   </g>
   <g id="patch_3">
    <path d="M 46.965625 362.518125 
L 46.965625 22.318125 
" style="fill:none;stroke:#000000;stroke-linecap:square;stroke-linejoin:miter;stroke-width:0.8;"/>
   </g>
   <g id="patch_4">
    <path d="M 437.565625 362.518125 
L 437.565625 22.318125 
" style="fill:none;stroke:#000000;stroke-linecap:square;stroke-linejoin:miter;stroke-width:0.8;"/>
   </g>
   <g id="patch_5">
    <path d="M 46.965625 362.518125 
L 437.565625 362.518125 
" style="fill:none;stroke:#000000;stroke-linecap:square;stroke-linejoin:miter;stroke-width:0.8;"/>
   </g>
   <g id="patch_6">
    <path d="M 46.965625 22.318125 
L 437.565625 22.318125 
" style="fill:none;stroke:#000000;stroke-linecap:square;stroke-linejoin:miter;stroke-width:0.8;"/>
   </g>
   <g id="text_17">
    <!-- Perf. Portability of Lid-Cavity Benchmark in Firedrake/PyOP2 -->
    <defs>
     <path d="M 19.671875 64.796875 
L 19.671875 37.40625 
L 32.078125 37.40625 
Q 38.96875 37.40625 42.71875 40.96875 
Q 46.484375 44.53125 46.484375 51.125 
Q 46.484375 57.671875 42.71875 61.234375 
Q 38.96875 64.796875 32.078125 64.796875 
z
M 9.8125 72.90625 
L 32.078125 72.90625 
Q 44.34375 72.90625 50.609375 67.359375 
Q 56.890625 61.8125 56.890625 51.125 
Q 56.890625 40.328125 50.609375 34.8125 
Q 44.34375 29.296875 32.078125 29.296875 
L 19.671875 29.296875 
L 19.671875 0 
L 9.8125 0 
z
" id="DejaVuSans-80"/>
     <path d="M 41.109375 46.296875 
Q 39.59375 47.171875 37.8125 47.578125 
Q 36.03125 48 33.890625 48 
Q 26.265625 48 22.1875 43.046875 
Q 18.109375 38.09375 18.109375 28.8125 
L 18.109375 0 
L 9.078125 0 
L 9.078125 54.6875 
L 18.109375 54.6875 
L 18.109375 46.1875 
Q 20.953125 51.171875 25.484375 53.578125 
Q 30.03125 56 36.53125 56 
Q 37.453125 56 38.578125 55.875 
Q 39.703125 55.765625 41.0625 55.515625 
z
" id="DejaVuSans-114"/>
     <path d="M 37.109375 75.984375 
L 37.109375 68.5 
L 28.515625 68.5 
Q 23.6875 68.5 21.796875 66.546875 
Q 19.921875 64.59375 19.921875 59.515625 
L 19.921875 54.6875 
L 34.71875 54.6875 
L 34.71875 47.703125 
L 19.921875 47.703125 
L 19.921875 0 
L 10.890625 0 
L 10.890625 47.703125 
L 2.296875 47.703125 
L 2.296875 54.6875 
L 10.890625 54.6875 
L 10.890625 58.5 
Q 10.890625 67.625 15.140625 71.796875 
Q 19.390625 75.984375 28.609375 75.984375 
z
" id="DejaVuSans-102"/>
     <path d="M 10.6875 12.40625 
L 21 12.40625 
L 21 0 
L 10.6875 0 
z
" id="DejaVuSans-46"/>
     <path d="M 34.28125 27.484375 
Q 23.390625 27.484375 19.1875 25 
Q 14.984375 22.515625 14.984375 16.5 
Q 14.984375 11.71875 18.140625 8.90625 
Q 21.296875 6.109375 26.703125 6.109375 
Q 34.1875 6.109375 38.703125 11.40625 
Q 43.21875 16.703125 43.21875 25.484375 
L 43.21875 27.484375 
z
M 52.203125 31.203125 
L 52.203125 0 
L 43.21875 0 
L 43.21875 8.296875 
Q 40.140625 3.328125 35.546875 0.953125 
Q 30.953125 -1.421875 24.3125 -1.421875 
Q 15.921875 -1.421875 10.953125 3.296875 
Q 6 8.015625 6 15.921875 
Q 6 25.140625 12.171875 29.828125 
Q 18.359375 34.515625 30.609375 34.515625 
L 43.21875 34.515625 
L 43.21875 35.40625 
Q 43.21875 41.609375 39.140625 45 
Q 35.0625 48.390625 27.6875 48.390625 
Q 23 48.390625 18.546875 47.265625 
Q 14.109375 46.140625 10.015625 43.890625 
L 10.015625 52.203125 
Q 14.9375 54.109375 19.578125 55.046875 
Q 24.21875 56 28.609375 56 
Q 40.484375 56 46.34375 49.84375 
Q 52.203125 43.703125 52.203125 31.203125 
z
" id="DejaVuSans-97"/>
     <path d="M 48.6875 27.296875 
Q 48.6875 37.203125 44.609375 42.84375 
Q 40.53125 48.484375 33.40625 48.484375 
Q 26.265625 48.484375 22.1875 42.84375 
Q 18.109375 37.203125 18.109375 27.296875 
Q 18.109375 17.390625 22.1875 11.75 
Q 26.265625 6.109375 33.40625 6.109375 
Q 40.53125 6.109375 44.609375 11.75 
Q 48.6875 17.390625 48.6875 27.296875 
z
M 18.109375 46.390625 
Q 20.953125 51.265625 25.265625 53.625 
Q 29.59375 56 35.59375 56 
Q 45.5625 56 51.78125 48.09375 
Q 58.015625 40.1875 58.015625 27.296875 
Q 58.015625 14.40625 51.78125 6.484375 
Q 45.5625 -1.421875 35.59375 -1.421875 
Q 29.59375 -1.421875 25.265625 0.953125 
Q 20.953125 3.328125 18.109375 8.203125 
L 18.109375 0 
L 9.078125 0 
L 9.078125 75.984375 
L 18.109375 75.984375 
z
" id="DejaVuSans-98"/>
     <path d="M 32.171875 -5.078125 
Q 28.375 -14.84375 24.75 -17.8125 
Q 21.140625 -20.796875 15.09375 -20.796875 
L 7.90625 -20.796875 
L 7.90625 -13.28125 
L 13.1875 -13.28125 
Q 16.890625 -13.28125 18.9375 -11.515625 
Q 21 -9.765625 23.484375 -3.21875 
L 25.09375 0.875 
L 2.984375 54.6875 
L 12.5 54.6875 
L 29.59375 11.921875 
L 46.6875 54.6875 
L 56.203125 54.6875 
z
" id="DejaVuSans-121"/>
     <path d="M 9.8125 72.90625 
L 19.671875 72.90625 
L 19.671875 8.296875 
L 55.171875 8.296875 
L 55.171875 0 
L 9.8125 0 
z
" id="DejaVuSans-76"/>
     <path d="M 45.40625 46.390625 
L 45.40625 75.984375 
L 54.390625 75.984375 
L 54.390625 0 
L 45.40625 0 
L 45.40625 8.203125 
Q 42.578125 3.328125 38.25 0.953125 
Q 33.9375 -1.421875 27.875 -1.421875 
Q 17.96875 -1.421875 11.734375 6.484375 
Q 5.515625 14.40625 5.515625 27.296875 
Q 5.515625 40.1875 11.734375 48.09375 
Q 17.96875 56 27.875 56 
Q 33.9375 56 38.25 53.625 
Q 42.578125 51.265625 45.40625 46.390625 
z
M 14.796875 27.296875 
Q 14.796875 17.390625 18.875 11.75 
Q 22.953125 6.109375 30.078125 6.109375 
Q 37.203125 6.109375 41.296875 11.75 
Q 45.40625 17.390625 45.40625 27.296875 
Q 45.40625 37.203125 41.296875 42.84375 
Q 37.203125 48.484375 30.078125 48.484375 
Q 22.953125 48.484375 18.875 42.84375 
Q 14.796875 37.203125 14.796875 27.296875 
z
" id="DejaVuSans-100"/>
     <path d="M 4.890625 31.390625 
L 31.203125 31.390625 
L 31.203125 23.390625 
L 4.890625 23.390625 
z
" id="DejaVuSans-45"/>
     <path d="M 64.40625 67.28125 
L 64.40625 56.890625 
Q 59.421875 61.53125 53.78125 63.8125 
Q 48.140625 66.109375 41.796875 66.109375 
Q 29.296875 66.109375 22.65625 58.46875 
Q 16.015625 50.828125 16.015625 36.375 
Q 16.015625 21.96875 22.65625 14.328125 
Q 29.296875 6.6875 41.796875 6.6875 
Q 48.140625 6.6875 53.78125 8.984375 
Q 59.421875 11.28125 64.40625 15.921875 
L 64.40625 5.609375 
Q 59.234375 2.09375 53.4375 0.328125 
Q 47.65625 -1.421875 41.21875 -1.421875 
Q 24.65625 -1.421875 15.125 8.703125 
Q 5.609375 18.84375 5.609375 36.375 
Q 5.609375 53.953125 15.125 64.078125 
Q 24.65625 74.21875 41.21875 74.21875 
Q 47.75 74.21875 53.53125 72.484375 
Q 59.328125 70.75 64.40625 67.28125 
z
" id="DejaVuSans-67"/>
     <path d="M 2.984375 54.6875 
L 12.5 54.6875 
L 29.59375 8.796875 
L 46.6875 54.6875 
L 56.203125 54.6875 
L 35.6875 0 
L 23.484375 0 
z
" id="DejaVuSans-118"/>
     <path d="M 19.671875 34.8125 
L 19.671875 8.109375 
L 35.5 8.109375 
Q 43.453125 8.109375 47.28125 11.40625 
Q 51.125 14.703125 51.125 21.484375 
Q 51.125 28.328125 47.28125 31.5625 
Q 43.453125 34.8125 35.5 34.8125 
z
M 19.671875 64.796875 
L 19.671875 42.828125 
L 34.28125 42.828125 
Q 41.5 42.828125 45.03125 45.53125 
Q 48.578125 48.25 48.578125 53.8125 
Q 48.578125 59.328125 45.03125 62.0625 
Q 41.5 64.796875 34.28125 64.796875 
z
M 9.8125 72.90625 
L 35.015625 72.90625 
Q 46.296875 72.90625 52.390625 68.21875 
Q 58.5 63.53125 58.5 54.890625 
Q 58.5 48.1875 55.375 44.234375 
Q 52.25 40.28125 46.1875 39.3125 
Q 53.46875 37.75 57.5 32.78125 
Q 61.53125 27.828125 61.53125 20.40625 
Q 61.53125 10.640625 54.890625 5.3125 
Q 48.25 0 35.984375 0 
L 9.8125 0 
z
" id="DejaVuSans-66"/>
     <path d="M 9.078125 75.984375 
L 18.109375 75.984375 
L 18.109375 31.109375 
L 44.921875 54.6875 
L 56.390625 54.6875 
L 27.390625 29.109375 
L 57.625 0 
L 45.90625 0 
L 18.109375 26.703125 
L 18.109375 0 
L 9.078125 0 
z
" id="DejaVuSans-107"/>
     <path d="M 9.8125 72.90625 
L 51.703125 72.90625 
L 51.703125 64.59375 
L 19.671875 64.59375 
L 19.671875 43.109375 
L 48.578125 43.109375 
L 48.578125 34.8125 
L 19.671875 34.8125 
L 19.671875 0 
L 9.8125 0 
z
" id="DejaVuSans-70"/>
     <path d="M 25.390625 72.90625 
L 33.6875 72.90625 
L 8.296875 -9.28125 
L 0 -9.28125 
z
" id="DejaVuSans-47"/>
     <path d="M 39.40625 66.21875 
Q 28.65625 66.21875 22.328125 58.203125 
Q 16.015625 50.203125 16.015625 36.375 
Q 16.015625 22.609375 22.328125 14.59375 
Q 28.65625 6.59375 39.40625 6.59375 
Q 50.140625 6.59375 56.421875 14.59375 
Q 62.703125 22.609375 62.703125 36.375 
Q 62.703125 50.203125 56.421875 58.203125 
Q 50.140625 66.21875 39.40625 66.21875 
z
M 39.40625 74.21875 
Q 54.734375 74.21875 63.90625 63.9375 
Q 73.09375 53.65625 73.09375 36.375 
Q 73.09375 19.140625 63.90625 8.859375 
Q 54.734375 -1.421875 39.40625 -1.421875 
Q 24.03125 -1.421875 14.8125 8.828125 
Q 5.609375 19.09375 5.609375 36.375 
Q 5.609375 53.65625 14.8125 63.9375 
Q 24.03125 74.21875 39.40625 74.21875 
z
" id="DejaVuSans-79"/>
    </defs>
    <g transform="translate(63.045625 16.318125)scale(0.12 -0.12)">
     <use xlink:href="#DejaVuSans-80"/>
     <use x="56.677734" xlink:href="#DejaVuSans-101"/>
     <use x="118.201172" xlink:href="#DejaVuSans-114"/>
     <use x="159.314453" xlink:href="#DejaVuSans-102"/>
     <use x="187.269531" xlink:href="#DejaVuSans-46"/>
     <use x="219.056641" xlink:href="#DejaVuSans-32"/>
     <use x="250.84375" xlink:href="#DejaVuSans-80"/>
     <use x="307.521484" xlink:href="#DejaVuSans-111"/>
     <use x="368.703125" xlink:href="#DejaVuSans-114"/>
     <use x="409.816406" xlink:href="#DejaVuSans-116"/>
     <use x="449.025391" xlink:href="#DejaVuSans-97"/>
     <use x="510.304688" xlink:href="#DejaVuSans-98"/>
     <use x="573.78125" xlink:href="#DejaVuSans-105"/>
     <use x="601.564453" xlink:href="#DejaVuSans-108"/>
     <use x="629.347656" xlink:href="#DejaVuSans-105"/>
     <use x="657.130859" xlink:href="#DejaVuSans-116"/>
     <use x="696.339844" xlink:href="#DejaVuSans-121"/>
     <use x="755.519531" xlink:href="#DejaVuSans-32"/>
     <use x="787.306641" xlink:href="#DejaVuSans-111"/>
     <use x="848.488281" xlink:href="#DejaVuSans-102"/>
     <use x="883.693359" xlink:href="#DejaVuSans-32"/>
     <use x="915.480469" xlink:href="#DejaVuSans-76"/>
     <use x="971.193359" xlink:href="#DejaVuSans-105"/>
     <use x="998.976562" xlink:href="#DejaVuSans-100"/>
     <use x="1062.453125" xlink:href="#DejaVuSans-45"/>
     <use x="1098.537109" xlink:href="#DejaVuSans-67"/>
     <use x="1168.361328" xlink:href="#DejaVuSans-97"/>
     <use x="1229.640625" xlink:href="#DejaVuSans-118"/>
     <use x="1288.820312" xlink:href="#DejaVuSans-105"/>
     <use x="1316.603516" xlink:href="#DejaVuSans-116"/>
     <use x="1355.8125" xlink:href="#DejaVuSans-121"/>
     <use x="1414.992188" xlink:href="#DejaVuSans-32"/>
     <use x="1446.779297" xlink:href="#DejaVuSans-66"/>
     <use x="1515.382812" xlink:href="#DejaVuSans-101"/>
     <use x="1576.90625" xlink:href="#DejaVuSans-110"/>
     <use x="1640.285156" xlink:href="#DejaVuSans-99"/>
     <use x="1695.265625" xlink:href="#DejaVuSans-104"/>
     <use x="1758.644531" xlink:href="#DejaVuSans-109"/>
     <use x="1856.056641" xlink:href="#DejaVuSans-97"/>
     <use x="1917.335938" xlink:href="#DejaVuSans-114"/>
     <use x="1958.449219" xlink:href="#DejaVuSans-107"/>
     <use x="2016.359375" xlink:href="#DejaVuSans-32"/>
     <use x="2048.146484" xlink:href="#DejaVuSans-105"/>
     <use x="2075.929688" xlink:href="#DejaVuSans-110"/>
     <use x="2139.308594" xlink:href="#DejaVuSans-32"/>
     <use x="2171.095703" xlink:href="#DejaVuSans-70"/>
     <use x="2221.365234" xlink:href="#DejaVuSans-105"/>
     <use x="2249.148438" xlink:href="#DejaVuSans-114"/>
     <use x="2288.011719" xlink:href="#DejaVuSans-101"/>
     <use x="2349.535156" xlink:href="#DejaVuSans-100"/>
     <use x="2413.011719" xlink:href="#DejaVuSans-114"/>
     <use x="2454.125" xlink:href="#DejaVuSans-97"/>
     <use x="2515.404297" xlink:href="#DejaVuSans-107"/>
     <use x="2569.689453" xlink:href="#DejaVuSans-101"/>
     <use x="2631.212891" xlink:href="#DejaVuSans-47"/>
     <use x="2664.904297" xlink:href="#DejaVuSans-80"/>
     <use x="2725.207031" xlink:href="#DejaVuSans-121"/>
     <use x="2784.386719" xlink:href="#DejaVuSans-79"/>
     <use x="2863.097656" xlink:href="#DejaVuSans-80"/>
     <use x="2923.400391" xlink:href="#DejaVuSans-50"/>
    </g>
   </g>
   <g id="legend_1">
    <g id="patch_7">
     <path d="M 53.965625 149.968125 
L 357.073438 149.968125 
Q 359.073438 149.968125 359.073438 147.968125 
L 359.073438 29.318125 
Q 359.073438 27.318125 357.073438 27.318125 
L 53.965625 27.318125 
Q 51.965625 27.318125 51.965625 29.318125 
L 51.965625 147.968125 
Q 51.965625 149.968125 53.965625 149.968125 
z
" style="fill:#ffffff;stroke:#cccccc;stroke-linejoin:miter;"/>
    </g>
    <g id="line2d_30">
     <path d="M 55.965625 35.416562 
L 75.965625 35.416562 
" style="fill:none;stroke:#0000ff;stroke-linecap:square;stroke-width:1.5;"/>
    </g>
    <g id="line2d_31">
     <g>
      <use style="fill:#ffffff;stroke:#0000ff;stroke-linejoin:miter;" x="65.965625" xlink:href="#ma95644e982" y="35.416562"/>
     </g>
    </g>
    <g id="text_18">
     <!-- MUM:cpu_sandybridge -->
     <defs>
      <path d="M 8.6875 72.90625 
L 18.609375 72.90625 
L 18.609375 28.609375 
Q 18.609375 16.890625 22.84375 11.734375 
Q 27.09375 6.59375 36.625 6.59375 
Q 46.09375 6.59375 50.34375 11.734375 
Q 54.59375 16.890625 54.59375 28.609375 
L 54.59375 72.90625 
L 64.5 72.90625 
L 64.5 27.390625 
Q 64.5 13.140625 57.4375 5.859375 
Q 50.390625 -1.421875 36.625 -1.421875 
Q 22.796875 -1.421875 15.734375 5.859375 
Q 8.6875 13.140625 8.6875 27.390625 
z
" id="DejaVuSans-85"/>
      <path d="M 11.71875 12.40625 
L 22.015625 12.40625 
L 22.015625 0 
L 11.71875 0 
z
M 11.71875 51.703125 
L 22.015625 51.703125 
L 22.015625 39.3125 
L 11.71875 39.3125 
z
" id="DejaVuSans-58"/>
      <path d="M 18.109375 8.203125 
L 18.109375 -20.796875 
L 9.078125 -20.796875 
L 9.078125 54.6875 
L 18.109375 54.6875 
L 18.109375 46.390625 
Q 20.953125 51.265625 25.265625 53.625 
Q 29.59375 56 35.59375 56 
Q 45.5625 56 51.78125 48.09375 
Q 58.015625 40.1875 58.015625 27.296875 
Q 58.015625 14.40625 51.78125 6.484375 
Q 45.5625 -1.421875 35.59375 -1.421875 
Q 29.59375 -1.421875 25.265625 0.953125 
Q 20.953125 3.328125 18.109375 8.203125 
z
M 48.6875 27.296875 
Q 48.6875 37.203125 44.609375 42.84375 
Q 40.53125 48.484375 33.40625 48.484375 
Q 26.265625 48.484375 22.1875 42.84375 
Q 18.109375 37.203125 18.109375 27.296875 
Q 18.109375 17.390625 22.1875 11.75 
Q 26.265625 6.109375 33.40625 6.109375 
Q 40.53125 6.109375 44.609375 11.75 
Q 48.6875 17.390625 48.6875 27.296875 
z
" id="DejaVuSans-112"/>
      <path d="M 50.984375 -16.609375 
L 50.984375 -23.578125 
L -0.984375 -23.578125 
L -0.984375 -16.609375 
z
" id="DejaVuSans-95"/>
      <path d="M 45.40625 27.984375 
Q 45.40625 37.75 41.375 43.109375 
Q 37.359375 48.484375 30.078125 48.484375 
Q 22.859375 48.484375 18.828125 43.109375 
Q 14.796875 37.75 14.796875 27.984375 
Q 14.796875 18.265625 18.828125 12.890625 
Q 22.859375 7.515625 30.078125 7.515625 
Q 37.359375 7.515625 41.375 12.890625 
Q 45.40625 18.265625 45.40625 27.984375 
z
M 54.390625 6.78125 
Q 54.390625 -7.171875 48.1875 -13.984375 
Q 42 -20.796875 29.203125 -20.796875 
Q 24.46875 -20.796875 20.265625 -20.09375 
Q 16.0625 -19.390625 12.109375 -17.921875 
L 12.109375 -9.1875 
Q 16.0625 -11.328125 19.921875 -12.34375 
Q 23.78125 -13.375 27.78125 -13.375 
Q 36.625 -13.375 41.015625 -8.765625 
Q 45.40625 -4.15625 45.40625 5.171875 
L 45.40625 9.625 
Q 42.625 4.78125 38.28125 2.390625 
Q 33.9375 0 27.875 0 
Q 17.828125 0 11.671875 7.65625 
Q 5.515625 15.328125 5.515625 27.984375 
Q 5.515625 40.671875 11.671875 48.328125 
Q 17.828125 56 27.875 56 
Q 33.9375 56 38.28125 53.609375 
Q 42.625 51.21875 45.40625 46.390625 
L 45.40625 54.6875 
L 54.390625 54.6875 
z
" id="DejaVuSans-103"/>
     </defs>
     <g transform="translate(83.965625 38.916562)scale(0.1 -0.1)">
      <use xlink:href="#DejaVuSans-77"/>
      <use x="86.279297" xlink:href="#DejaVuSans-85"/>
      <use x="159.472656" xlink:href="#DejaVuSans-77"/>
      <use x="245.751953" xlink:href="#DejaVuSans-58"/>
      <use x="279.443359" xlink:href="#DejaVuSans-99"/>
      <use x="334.423828" xlink:href="#DejaVuSans-112"/>
      <use x="397.900391" xlink:href="#DejaVuSans-117"/>
      <use x="461.279297" xlink:href="#DejaVuSans-95"/>
      <use x="511.279297" xlink:href="#DejaVuSans-115"/>
      <use x="563.378906" xlink:href="#DejaVuSans-97"/>
      <use x="624.658203" xlink:href="#DejaVuSans-110"/>
      <use x="688.037109" xlink:href="#DejaVuSans-100"/>
      <use x="751.513672" xlink:href="#DejaVuSans-121"/>
      <use x="810.693359" xlink:href="#DejaVuSans-98"/>
      <use x="874.169922" xlink:href="#DejaVuSans-114"/>
      <use x="915.283203" xlink:href="#DejaVuSans-105"/>
      <use x="943.066406" xlink:href="#DejaVuSans-100"/>
      <use x="1006.542969" xlink:href="#DejaVuSans-103"/>
      <use x="1070.019531" xlink:href="#DejaVuSans-101"/>
     </g>
    </g>
    <g id="line2d_32">
     <path d="M 55.965625 50.372812 
L 75.965625 50.372812 
" style="fill:none;stroke:#0000ff;stroke-linecap:square;stroke-width:1.5;"/>
    </g>
    <g id="line2d_33">
     <g>
      <use style="fill:#ffffff;stroke:#0000ff;stroke-linejoin:miter;" x="65.965625" xlink:href="#m16ad7bbaf5" y="50.372812"/>
     </g>
    </g>
    <g id="text_19">
     <!-- MUM:cpu_broadwell -->
     <defs>
      <path d="M 4.203125 54.6875 
L 13.1875 54.6875 
L 24.421875 12.015625 
L 35.59375 54.6875 
L 46.1875 54.6875 
L 57.421875 12.015625 
L 68.609375 54.6875 
L 77.59375 54.6875 
L 63.28125 0 
L 52.6875 0 
L 40.921875 44.828125 
L 29.109375 0 
L 18.5 0 
z
" id="DejaVuSans-119"/>
     </defs>
     <g transform="translate(83.965625 53.872812)scale(0.1 -0.1)">
      <use xlink:href="#DejaVuSans-77"/>
      <use x="86.279297" xlink:href="#DejaVuSans-85"/>
      <use x="159.472656" xlink:href="#DejaVuSans-77"/>
      <use x="245.751953" xlink:href="#DejaVuSans-58"/>
      <use x="279.443359" xlink:href="#DejaVuSans-99"/>
      <use x="334.423828" xlink:href="#DejaVuSans-112"/>
      <use x="397.900391" xlink:href="#DejaVuSans-117"/>
      <use x="461.279297" xlink:href="#DejaVuSans-95"/>
      <use x="511.279297" xlink:href="#DejaVuSans-98"/>
      <use x="574.755859" xlink:href="#DejaVuSans-114"/>
      <use x="613.619141" xlink:href="#DejaVuSans-111"/>
      <use x="674.800781" xlink:href="#DejaVuSans-97"/>
      <use x="736.080078" xlink:href="#DejaVuSans-100"/>
      <use x="799.556641" xlink:href="#DejaVuSans-119"/>
      <use x="881.34375" xlink:href="#DejaVuSans-101"/>
      <use x="942.867188" xlink:href="#DejaVuSans-108"/>
      <use x="970.650391" xlink:href="#DejaVuSans-108"/>
     </g>
    </g>
    <g id="line2d_34">
     <path d="M 55.965625 65.329062 
L 75.965625 65.329062 
" style="fill:none;stroke:#0000ff;stroke-linecap:square;stroke-width:1.5;"/>
    </g>
    <g id="line2d_35">
     <g>
      <use style="fill:#ffffff;stroke:#0000ff;" x="65.965625" xlink:href="#m12b836de1d" y="65.329062"/>
     </g>
    </g>
    <g id="text_20">
     <!-- MUM:cpu_skylake -->
     <g transform="translate(83.965625 68.829062)scale(0.1 -0.1)">
      <use xlink:href="#DejaVuSans-77"/>
      <use x="86.279297" xlink:href="#DejaVuSans-85"/>
      <use x="159.472656" xlink:href="#DejaVuSans-77"/>
      <use x="245.751953" xlink:href="#DejaVuSans-58"/>
      <use x="279.443359" xlink:href="#DejaVuSans-99"/>
      <use x="334.423828" xlink:href="#DejaVuSans-112"/>
      <use x="397.900391" xlink:href="#DejaVuSans-117"/>
      <use x="461.279297" xlink:href="#DejaVuSans-95"/>
      <use x="511.279297" xlink:href="#DejaVuSans-115"/>
      <use x="563.378906" xlink:href="#DejaVuSans-107"/>
      <use x="617.664062" xlink:href="#DejaVuSans-121"/>
      <use x="676.84375" xlink:href="#DejaVuSans-108"/>
      <use x="704.626953" xlink:href="#DejaVuSans-97"/>
      <use x="765.90625" xlink:href="#DejaVuSans-107"/>
      <use x="820.191406" xlink:href="#DejaVuSans-101"/>
     </g>
    </g>
    <g id="line2d_36">
     <path d="M 55.965625 80.285312 
L 75.965625 80.285312 
" style="fill:none;stroke:#ff0000;stroke-linecap:square;stroke-width:1.5;"/>
    </g>
    <g id="line2d_37">
     <g>
      <use style="fill:#ffffff;stroke:#ff0000;stroke-linejoin:miter;" x="65.965625" xlink:href="#m6c0747161c" y="80.285312"/>
     </g>
    </g>
    <g id="text_21">
     <!-- PSX:cpu_sandybridge -->
     <defs>
      <path d="M 53.515625 70.515625 
L 53.515625 60.890625 
Q 47.90625 63.578125 42.921875 64.890625 
Q 37.9375 66.21875 33.296875 66.21875 
Q 25.25 66.21875 20.875 63.09375 
Q 16.5 59.96875 16.5 54.203125 
Q 16.5 49.359375 19.40625 46.890625 
Q 22.3125 44.4375 30.421875 42.921875 
L 36.375 41.703125 
Q 47.40625 39.59375 52.65625 34.296875 
Q 57.90625 29 57.90625 20.125 
Q 57.90625 9.515625 50.796875 4.046875 
Q 43.703125 -1.421875 29.984375 -1.421875 
Q 24.8125 -1.421875 18.96875 -0.25 
Q 13.140625 0.921875 6.890625 3.21875 
L 6.890625 13.375 
Q 12.890625 10.015625 18.65625 8.296875 
Q 24.421875 6.59375 29.984375 6.59375 
Q 38.421875 6.59375 43.015625 9.90625 
Q 47.609375 13.234375 47.609375 19.390625 
Q 47.609375 24.75 44.3125 27.78125 
Q 41.015625 30.8125 33.5 32.328125 
L 27.484375 33.5 
Q 16.453125 35.6875 11.515625 40.375 
Q 6.59375 45.0625 6.59375 53.421875 
Q 6.59375 63.09375 13.40625 68.65625 
Q 20.21875 74.21875 32.171875 74.21875 
Q 37.3125 74.21875 42.625 73.28125 
Q 47.953125 72.359375 53.515625 70.515625 
z
" id="DejaVuSans-83"/>
      <path d="M 6.296875 72.90625 
L 16.890625 72.90625 
L 35.015625 45.796875 
L 53.21875 72.90625 
L 63.8125 72.90625 
L 40.375 37.890625 
L 65.375 0 
L 54.78125 0 
L 34.28125 31 
L 13.625 0 
L 2.984375 0 
L 29 38.921875 
z
" id="DejaVuSans-88"/>
     </defs>
     <g transform="translate(83.965625 83.785312)scale(0.1 -0.1)">
      <use xlink:href="#DejaVuSans-80"/>
      <use x="60.302734" xlink:href="#DejaVuSans-83"/>
      <use x="123.779297" xlink:href="#DejaVuSans-88"/>
      <use x="192.285156" xlink:href="#DejaVuSans-58"/>
      <use x="225.976562" xlink:href="#DejaVuSans-99"/>
      <use x="280.957031" xlink:href="#DejaVuSans-112"/>
      <use x="344.433594" xlink:href="#DejaVuSans-117"/>
      <use x="407.8125" xlink:href="#DejaVuSans-95"/>
      <use x="457.8125" xlink:href="#DejaVuSans-115"/>
      <use x="509.912109" xlink:href="#DejaVuSans-97"/>
      <use x="571.191406" xlink:href="#DejaVuSans-110"/>
      <use x="634.570312" xlink:href="#DejaVuSans-100"/>
      <use x="698.046875" xlink:href="#DejaVuSans-121"/>
      <use x="757.226562" xlink:href="#DejaVuSans-98"/>
      <use x="820.703125" xlink:href="#DejaVuSans-114"/>
      <use x="861.816406" xlink:href="#DejaVuSans-105"/>
      <use x="889.599609" xlink:href="#DejaVuSans-100"/>
      <use x="953.076172" xlink:href="#DejaVuSans-103"/>
      <use x="1016.552734" xlink:href="#DejaVuSans-101"/>
     </g>
    </g>
    <g id="line2d_38">
     <path d="M 55.965625 95.241562 
L 75.965625 95.241562 
" style="fill:none;stroke:#ff0000;stroke-linecap:square;stroke-width:1.5;"/>
    </g>
    <g id="line2d_39">
     <g>
      <use style="fill:#ff0000;stroke:#ff0000;stroke-linejoin:miter;" x="65.965625" xlink:href="#m0699b541c8" y="95.241562"/>
     </g>
    </g>
    <g id="text_22">
     <!-- PSX:gpu_k40 -->
     <g transform="translate(83.965625 98.741562)scale(0.1 -0.1)">
      <use xlink:href="#DejaVuSans-80"/>
      <use x="60.302734" xlink:href="#DejaVuSans-83"/>
      <use x="123.779297" xlink:href="#DejaVuSans-88"/>
      <use x="192.285156" xlink:href="#DejaVuSans-58"/>
      <use x="225.976562" xlink:href="#DejaVuSans-103"/>
      <use x="289.453125" xlink:href="#DejaVuSans-112"/>
      <use x="352.929688" xlink:href="#DejaVuSans-117"/>
      <use x="416.308594" xlink:href="#DejaVuSans-95"/>
      <use x="466.308594" xlink:href="#DejaVuSans-107"/>
      <use x="524.21875" xlink:href="#DejaVuSans-52"/>
      <use x="587.841797" xlink:href="#DejaVuSans-48"/>
     </g>
    </g>
    <g id="line2d_40">
     <path d="M 55.965625 110.197812 
L 75.965625 110.197812 
" style="fill:none;stroke:#ff0000;stroke-linecap:square;stroke-width:1.5;"/>
    </g>
    <g id="line2d_41">
     <g>
      <use style="fill:#ffffff;stroke:#ff0000;stroke-linejoin:miter;" x="65.965625" xlink:href="#m288e2ea7f1" y="110.197812"/>
     </g>
    </g>
    <g id="text_23">
     <!-- PSX:cpu_broadwell -->
     <g transform="translate(83.965625 113.697812)scale(0.1 -0.1)">
      <use xlink:href="#DejaVuSans-80"/>
      <use x="60.302734" xlink:href="#DejaVuSans-83"/>
      <use x="123.779297" xlink:href="#DejaVuSans-88"/>
      <use x="192.285156" xlink:href="#DejaVuSans-58"/>
      <use x="225.976562" xlink:href="#DejaVuSans-99"/>
      <use x="280.957031" xlink:href="#DejaVuSans-112"/>
      <use x="344.433594" xlink:href="#DejaVuSans-117"/>
      <use x="407.8125" xlink:href="#DejaVuSans-95"/>
      <use x="457.8125" xlink:href="#DejaVuSans-98"/>
      <use x="521.289062" xlink:href="#DejaVuSans-114"/>
      <use x="560.152344" xlink:href="#DejaVuSans-111"/>
      <use x="621.333984" xlink:href="#DejaVuSans-97"/>
      <use x="682.613281" xlink:href="#DejaVuSans-100"/>
      <use x="746.089844" xlink:href="#DejaVuSans-119"/>
      <use x="827.876953" xlink:href="#DejaVuSans-101"/>
      <use x="889.400391" xlink:href="#DejaVuSans-108"/>
      <use x="917.183594" xlink:href="#DejaVuSans-108"/>
     </g>
    </g>
    <g id="line2d_42">
     <path d="M 55.965625 125.154062 
L 75.965625 125.154062 
" style="fill:none;stroke:#ff0000;stroke-linecap:square;stroke-width:1.5;"/>
    </g>
    <g id="line2d_43">
     <g>
      <use style="fill:#ff0000;stroke:#ff0000;stroke-linejoin:miter;" x="65.965625" xlink:href="#ma34b6daa4f" y="125.154062"/>
     </g>
    </g>
    <g id="text_24">
     <!-- PSX:gpu_p100 -->
     <g transform="translate(83.965625 128.654062)scale(0.1 -0.1)">
      <use xlink:href="#DejaVuSans-80"/>
      <use x="60.302734" xlink:href="#DejaVuSans-83"/>
      <use x="123.779297" xlink:href="#DejaVuSans-88"/>
      <use x="192.285156" xlink:href="#DejaVuSans-58"/>
      <use x="225.976562" xlink:href="#DejaVuSans-103"/>
      <use x="289.453125" xlink:href="#DejaVuSans-112"/>
      <use x="352.929688" xlink:href="#DejaVuSans-117"/>
      <use x="416.308594" xlink:href="#DejaVuSans-95"/>
      <use x="466.308594" xlink:href="#DejaVuSans-112"/>
      <use x="529.785156" xlink:href="#DejaVuSans-49"/>
      <use x="593.408203" xlink:href="#DejaVuSans-48"/>
      <use x="657.03125" xlink:href="#DejaVuSans-48"/>
     </g>
    </g>
    <g id="line2d_44">
     <path d="M 55.965625 140.110312 
L 75.965625 140.110312 
" style="fill:none;stroke:#ff0000;stroke-linecap:square;stroke-width:1.5;"/>
    </g>
    <g id="line2d_45">
     <g>
      <use style="fill:#ffffff;stroke:#ff0000;" x="65.965625" xlink:href="#m8ca2fe92d2" y="140.110312"/>
     </g>
    </g>
    <g id="text_25">
     <!-- PSX:cpu_skylake -->
     <g transform="translate(83.965625 143.610312)scale(0.1 -0.1)">
      <use xlink:href="#DejaVuSans-80"/>
      <use x="60.302734" xlink:href="#DejaVuSans-83"/>
      <use x="123.779297" xlink:href="#DejaVuSans-88"/>
      <use x="192.285156" xlink:href="#DejaVuSans-58"/>
      <use x="225.976562" xlink:href="#DejaVuSans-99"/>
      <use x="280.957031" xlink:href="#DejaVuSans-112"/>
      <use x="344.433594" xlink:href="#DejaVuSans-117"/>
      <use x="407.8125" xlink:href="#DejaVuSans-95"/>
      <use x="457.8125" xlink:href="#DejaVuSans-115"/>
      <use x="509.912109" xlink:href="#DejaVuSans-107"/>
      <use x="564.197266" xlink:href="#DejaVuSans-121"/>
      <use x="623.376953" xlink:href="#DejaVuSans-108"/>
      <use x="651.160156" xlink:href="#DejaVuSans-97"/>
      <use x="712.439453" xlink:href="#DejaVuSans-107"/>
      <use x="766.724609" xlink:href="#DejaVuSans-101"/>
     </g>
    </g>
    <g id="line2d_46">
     <path d="M 217.123438 35.416562 
L 237.123438 35.416562 
" style="fill:none;stroke:#ff0000;stroke-linecap:square;stroke-width:1.5;"/>
    </g>
    <g id="line2d_47">
     <g>
      <use style="fill:#ff0000;stroke:#ff0000;" x="227.123438" xlink:href="#m5237636da0" y="35.416562"/>
     </g>
    </g>
    <g id="text_26">
     <!-- PSX:gpu_v100 -->
     <g transform="translate(245.123438 38.916562)scale(0.1 -0.1)">
      <use xlink:href="#DejaVuSans-80"/>
      <use x="60.302734" xlink:href="#DejaVuSans-83"/>
      <use x="123.779297" xlink:href="#DejaVuSans-88"/>
      <use x="192.285156" xlink:href="#DejaVuSans-58"/>
      <use x="225.976562" xlink:href="#DejaVuSans-103"/>
      <use x="289.453125" xlink:href="#DejaVuSans-112"/>
      <use x="352.929688" xlink:href="#DejaVuSans-117"/>
      <use x="416.308594" xlink:href="#DejaVuSans-95"/>
      <use x="466.308594" xlink:href="#DejaVuSans-118"/>
      <use x="525.488281" xlink:href="#DejaVuSans-49"/>
      <use x="589.111328" xlink:href="#DejaVuSans-48"/>
      <use x="652.734375" xlink:href="#DejaVuSans-48"/>
     </g>
    </g>
    <g id="line2d_48">
     <path d="M 217.123438 50.372812 
L 237.123438 50.372812 
" style="fill:none;stroke:#008000;stroke-linecap:square;stroke-width:1.5;"/>
    </g>
    <g id="line2d_49">
     <g>
      <use style="fill:#ffffff;stroke:#008000;stroke-linejoin:miter;" x="227.123438" xlink:href="#mb0e3b4b976" y="50.372812"/>
     </g>
    </g>
    <g id="text_27">
     <!-- SUD:cpu_sandybridge -->
     <defs>
      <path d="M 19.671875 64.796875 
L 19.671875 8.109375 
L 31.59375 8.109375 
Q 46.6875 8.109375 53.6875 14.9375 
Q 60.6875 21.78125 60.6875 36.53125 
Q 60.6875 51.171875 53.6875 57.984375 
Q 46.6875 64.796875 31.59375 64.796875 
z
M 9.8125 72.90625 
L 30.078125 72.90625 
Q 51.265625 72.90625 61.171875 64.09375 
Q 71.09375 55.28125 71.09375 36.53125 
Q 71.09375 17.671875 61.125 8.828125 
Q 51.171875 0 30.078125 0 
L 9.8125 0 
z
" id="DejaVuSans-68"/>
     </defs>
     <g transform="translate(245.123438 53.872812)scale(0.1 -0.1)">
      <use xlink:href="#DejaVuSans-83"/>
      <use x="63.476562" xlink:href="#DejaVuSans-85"/>
      <use x="136.669922" xlink:href="#DejaVuSans-68"/>
      <use x="213.671875" xlink:href="#DejaVuSans-58"/>
      <use x="247.363281" xlink:href="#DejaVuSans-99"/>
      <use x="302.34375" xlink:href="#DejaVuSans-112"/>
      <use x="365.820312" xlink:href="#DejaVuSans-117"/>
      <use x="429.199219" xlink:href="#DejaVuSans-95"/>
      <use x="479.199219" xlink:href="#DejaVuSans-115"/>
      <use x="531.298828" xlink:href="#DejaVuSans-97"/>
      <use x="592.578125" xlink:href="#DejaVuSans-110"/>
      <use x="655.957031" xlink:href="#DejaVuSans-100"/>
      <use x="719.433594" xlink:href="#DejaVuSans-121"/>
      <use x="778.613281" xlink:href="#DejaVuSans-98"/>
      <use x="842.089844" xlink:href="#DejaVuSans-114"/>
      <use x="883.203125" xlink:href="#DejaVuSans-105"/>
      <use x="910.986328" xlink:href="#DejaVuSans-100"/>
      <use x="974.462891" xlink:href="#DejaVuSans-103"/>
      <use x="1037.939453" xlink:href="#DejaVuSans-101"/>
     </g>
    </g>
    <g id="line2d_50">
     <path d="M 217.123438 65.329062 
L 237.123438 65.329062 
" style="fill:none;stroke:#008000;stroke-linecap:square;stroke-width:1.5;"/>
    </g>
    <g id="line2d_51">
     <g>
      <use style="fill:#008000;stroke:#008000;stroke-linejoin:miter;" x="227.123438" xlink:href="#mdb14310632" y="65.329062"/>
     </g>
    </g>
    <g id="text_28">
     <!-- SUD:gpu_k40 -->
     <g transform="translate(245.123438 68.829062)scale(0.1 -0.1)">
      <use xlink:href="#DejaVuSans-83"/>
      <use x="63.476562" xlink:href="#DejaVuSans-85"/>
      <use x="136.669922" xlink:href="#DejaVuSans-68"/>
      <use x="213.671875" xlink:href="#DejaVuSans-58"/>
      <use x="247.363281" xlink:href="#DejaVuSans-103"/>
      <use x="310.839844" xlink:href="#DejaVuSans-112"/>
      <use x="374.316406" xlink:href="#DejaVuSans-117"/>
      <use x="437.695312" xlink:href="#DejaVuSans-95"/>
      <use x="487.695312" xlink:href="#DejaVuSans-107"/>
      <use x="545.605469" xlink:href="#DejaVuSans-52"/>
      <use x="609.228516" xlink:href="#DejaVuSans-48"/>
     </g>
    </g>
    <g id="line2d_52">
     <path d="M 217.123438 80.285312 
L 237.123438 80.285312 
" style="fill:none;stroke:#008000;stroke-linecap:square;stroke-width:1.5;"/>
    </g>
    <g id="line2d_53">
     <g>
      <use style="fill:#ffffff;stroke:#008000;stroke-linejoin:miter;" x="227.123438" xlink:href="#m9a6fd65312" y="80.285312"/>
     </g>
    </g>
    <g id="text_29">
     <!-- SUD:cpu_broadwell -->
     <g transform="translate(245.123438 83.785312)scale(0.1 -0.1)">
      <use xlink:href="#DejaVuSans-83"/>
      <use x="63.476562" xlink:href="#DejaVuSans-85"/>
      <use x="136.669922" xlink:href="#DejaVuSans-68"/>
      <use x="213.671875" xlink:href="#DejaVuSans-58"/>
      <use x="247.363281" xlink:href="#DejaVuSans-99"/>
      <use x="302.34375" xlink:href="#DejaVuSans-112"/>
      <use x="365.820312" xlink:href="#DejaVuSans-117"/>
      <use x="429.199219" xlink:href="#DejaVuSans-95"/>
      <use x="479.199219" xlink:href="#DejaVuSans-98"/>
      <use x="542.675781" xlink:href="#DejaVuSans-114"/>
      <use x="581.539062" xlink:href="#DejaVuSans-111"/>
      <use x="642.720703" xlink:href="#DejaVuSans-97"/>
      <use x="704" xlink:href="#DejaVuSans-100"/>
      <use x="767.476562" xlink:href="#DejaVuSans-119"/>
      <use x="849.263672" xlink:href="#DejaVuSans-101"/>
      <use x="910.787109" xlink:href="#DejaVuSans-108"/>
      <use x="938.570312" xlink:href="#DejaVuSans-108"/>
     </g>
    </g>
    <g id="line2d_54">
     <path d="M 217.123438 95.241562 
L 237.123438 95.241562 
" style="fill:none;stroke:#008000;stroke-linecap:square;stroke-width:1.5;"/>
    </g>
    <g id="line2d_55">
     <g>
      <use style="fill:#008000;stroke:#008000;stroke-linejoin:miter;" x="227.123438" xlink:href="#m6a8c1b3d89" y="95.241562"/>
     </g>
    </g>
    <g id="text_30">
     <!-- SUD:gpu_p100 -->
     <g transform="translate(245.123438 98.741562)scale(0.1 -0.1)">
      <use xlink:href="#DejaVuSans-83"/>
      <use x="63.476562" xlink:href="#DejaVuSans-85"/>
      <use x="136.669922" xlink:href="#DejaVuSans-68"/>
      <use x="213.671875" xlink:href="#DejaVuSans-58"/>
      <use x="247.363281" xlink:href="#DejaVuSans-103"/>
      <use x="310.839844" xlink:href="#DejaVuSans-112"/>
      <use x="374.316406" xlink:href="#DejaVuSans-117"/>
      <use x="437.695312" xlink:href="#DejaVuSans-95"/>
      <use x="487.695312" xlink:href="#DejaVuSans-112"/>
      <use x="551.171875" xlink:href="#DejaVuSans-49"/>
      <use x="614.794922" xlink:href="#DejaVuSans-48"/>
      <use x="678.417969" xlink:href="#DejaVuSans-48"/>
     </g>
    </g>
    <g id="line2d_56">
     <path d="M 217.123438 110.197812 
L 237.123438 110.197812 
" style="fill:none;stroke:#008000;stroke-linecap:square;stroke-width:1.5;"/>
    </g>
    <g id="line2d_57">
     <g>
      <use style="fill:#ffffff;stroke:#008000;" x="227.123438" xlink:href="#m8cc3e995fb" y="110.197812"/>
     </g>
    </g>
    <g id="text_31">
     <!-- SUD:cpu_skylake -->
     <g transform="translate(245.123438 113.697812)scale(0.1 -0.1)">
      <use xlink:href="#DejaVuSans-83"/>
      <use x="63.476562" xlink:href="#DejaVuSans-85"/>
      <use x="136.669922" xlink:href="#DejaVuSans-68"/>
      <use x="213.671875" xlink:href="#DejaVuSans-58"/>
      <use x="247.363281" xlink:href="#DejaVuSans-99"/>
      <use x="302.34375" xlink:href="#DejaVuSans-112"/>
      <use x="365.820312" xlink:href="#DejaVuSans-117"/>
      <use x="429.199219" xlink:href="#DejaVuSans-95"/>
      <use x="479.199219" xlink:href="#DejaVuSans-115"/>
      <use x="531.298828" xlink:href="#DejaVuSans-107"/>
      <use x="585.583984" xlink:href="#DejaVuSans-121"/>
      <use x="644.763672" xlink:href="#DejaVuSans-108"/>
      <use x="672.546875" xlink:href="#DejaVuSans-97"/>
      <use x="733.826172" xlink:href="#DejaVuSans-107"/>
      <use x="788.111328" xlink:href="#DejaVuSans-101"/>
     </g>
    </g>
    <g id="line2d_58">
     <path d="M 217.123438 125.154062 
L 237.123438 125.154062 
" style="fill:none;stroke:#008000;stroke-linecap:square;stroke-width:1.5;"/>
    </g>
    <g id="line2d_59">
     <g>
      <use style="fill:#008000;stroke:#008000;" x="227.123438" xlink:href="#m0d9d049cae" y="125.154062"/>
     </g>
    </g>
    <g id="text_32">
     <!-- SUD:gpu_v100 -->
     <g transform="translate(245.123438 128.654062)scale(0.1 -0.1)">
      <use xlink:href="#DejaVuSans-83"/>
      <use x="63.476562" xlink:href="#DejaVuSans-85"/>
      <use x="136.669922" xlink:href="#DejaVuSans-68"/>
      <use x="213.671875" xlink:href="#DejaVuSans-58"/>
      <use x="247.363281" xlink:href="#DejaVuSans-103"/>
      <use x="310.839844" xlink:href="#DejaVuSans-112"/>
      <use x="374.316406" xlink:href="#DejaVuSans-117"/>
      <use x="437.695312" xlink:href="#DejaVuSans-95"/>
      <use x="487.695312" xlink:href="#DejaVuSans-118"/>
      <use x="546.875" xlink:href="#DejaVuSans-49"/>
      <use x="610.498047" xlink:href="#DejaVuSans-48"/>
      <use x="674.121094" xlink:href="#DejaVuSans-48"/>
     </g>
    </g>
   </g>
  </g>
  <g id="axes_2">
   <g id="patch_8">
    <path d="M 46.965625 521.278125 
L 437.565625 521.278125 
L 437.565625 407.878125 
L 46.965625 407.878125 
z
" style="fill:#ffffff;"/>
   </g>
   <g id="matplotlib.axis_3">
    <g id="xtick_8">
     <g id="line2d_60">
      <g>
       <use style="stroke:#000000;stroke-width:0.8;" x="62.237017" xlink:href="#m16e4f42f99" y="521.278125"/>
      </g>
     </g>
     <g id="text_33">
      <!-- 0 -->
      <g transform="translate(59.055767 535.876562)scale(0.1 -0.1)">
       <use xlink:href="#DejaVuSans-48"/>
      </g>
     </g>
    </g>
    <g id="xtick_9">
     <g id="line2d_61">
      <g>
       <use style="stroke:#000000;stroke-width:0.8;" x="122.860875" xlink:href="#m16e4f42f99" y="521.278125"/>
      </g>
     </g>
     <g id="text_34">
      <!-- 100000 -->
      <g transform="translate(103.773375 535.876562)scale(0.1 -0.1)">
       <use xlink:href="#DejaVuSans-49"/>
       <use x="63.623047" xlink:href="#DejaVuSans-48"/>
       <use x="127.246094" xlink:href="#DejaVuSans-48"/>
       <use x="190.869141" xlink:href="#DejaVuSans-48"/>
       <use x="254.492188" xlink:href="#DejaVuSans-48"/>
       <use x="318.115234" xlink:href="#DejaVuSans-48"/>
      </g>
     </g>
    </g>
    <g id="xtick_10">
     <g id="line2d_62">
      <g>
       <use style="stroke:#000000;stroke-width:0.8;" x="183.484733" xlink:href="#m16e4f42f99" y="521.278125"/>
      </g>
     </g>
     <g id="text_35">
      <!-- 200000 -->
      <g transform="translate(164.397233 535.876562)scale(0.1 -0.1)">
       <use xlink:href="#DejaVuSans-50"/>
       <use x="63.623047" xlink:href="#DejaVuSans-48"/>
       <use x="127.246094" xlink:href="#DejaVuSans-48"/>
       <use x="190.869141" xlink:href="#DejaVuSans-48"/>
       <use x="254.492188" xlink:href="#DejaVuSans-48"/>
       <use x="318.115234" xlink:href="#DejaVuSans-48"/>
      </g>
     </g>
    </g>
    <g id="xtick_11">
     <g id="line2d_63">
      <g>
       <use style="stroke:#000000;stroke-width:0.8;" x="244.10859" xlink:href="#m16e4f42f99" y="521.278125"/>
      </g>
     </g>
     <g id="text_36">
      <!-- 300000 -->
      <g transform="translate(225.02109 535.876562)scale(0.1 -0.1)">
       <use xlink:href="#DejaVuSans-51"/>
       <use x="63.623047" xlink:href="#DejaVuSans-48"/>
       <use x="127.246094" xlink:href="#DejaVuSans-48"/>
       <use x="190.869141" xlink:href="#DejaVuSans-48"/>
       <use x="254.492188" xlink:href="#DejaVuSans-48"/>
       <use x="318.115234" xlink:href="#DejaVuSans-48"/>
      </g>
     </g>
    </g>
    <g id="xtick_12">
     <g id="line2d_64">
      <g>
       <use style="stroke:#000000;stroke-width:0.8;" x="304.732448" xlink:href="#m16e4f42f99" y="521.278125"/>
      </g>
     </g>
     <g id="text_37">
      <!-- 400000 -->
      <g transform="translate(285.644948 535.876562)scale(0.1 -0.1)">
       <use xlink:href="#DejaVuSans-52"/>
       <use x="63.623047" xlink:href="#DejaVuSans-48"/>
       <use x="127.246094" xlink:href="#DejaVuSans-48"/>
       <use x="190.869141" xlink:href="#DejaVuSans-48"/>
       <use x="254.492188" xlink:href="#DejaVuSans-48"/>
       <use x="318.115234" xlink:href="#DejaVuSans-48"/>
      </g>
     </g>
    </g>
    <g id="xtick_13">
     <g id="line2d_65">
      <g>
       <use style="stroke:#000000;stroke-width:0.8;" x="365.356306" xlink:href="#m16e4f42f99" y="521.278125"/>
      </g>
     </g>
     <g id="text_38">
      <!-- 500000 -->
      <g transform="translate(346.268806 535.876562)scale(0.1 -0.1)">
       <use xlink:href="#DejaVuSans-53"/>
       <use x="63.623047" xlink:href="#DejaVuSans-48"/>
       <use x="127.246094" xlink:href="#DejaVuSans-48"/>
       <use x="190.869141" xlink:href="#DejaVuSans-48"/>
       <use x="254.492188" xlink:href="#DejaVuSans-48"/>
       <use x="318.115234" xlink:href="#DejaVuSans-48"/>
      </g>
     </g>
    </g>
    <g id="xtick_14">
     <g id="line2d_66">
      <g>
       <use style="stroke:#000000;stroke-width:0.8;" x="425.980163" xlink:href="#m16e4f42f99" y="521.278125"/>
      </g>
     </g>
     <g id="text_39">
      <!-- 600000 -->
      <g transform="translate(406.892663 535.876562)scale(0.1 -0.1)">
       <use xlink:href="#DejaVuSans-54"/>
       <use x="63.623047" xlink:href="#DejaVuSans-48"/>
       <use x="127.246094" xlink:href="#DejaVuSans-48"/>
       <use x="190.869141" xlink:href="#DejaVuSans-48"/>
       <use x="254.492188" xlink:href="#DejaVuSans-48"/>
       <use x="318.115234" xlink:href="#DejaVuSans-48"/>
      </g>
     </g>
    </g>
    <g id="text_40">
     <!-- Mesh elements -->
     <g transform="translate(204.289844 549.554687)scale(0.1 -0.1)">
      <use xlink:href="#DejaVuSans-77"/>
      <use x="86.279297" xlink:href="#DejaVuSans-101"/>
      <use x="147.802734" xlink:href="#DejaVuSans-115"/>
      <use x="199.902344" xlink:href="#DejaVuSans-104"/>
      <use x="263.28125" xlink:href="#DejaVuSans-32"/>
      <use x="295.068359" xlink:href="#DejaVuSans-101"/>
      <use x="356.591797" xlink:href="#DejaVuSans-108"/>
      <use x="384.375" xlink:href="#DejaVuSans-101"/>
      <use x="445.898438" xlink:href="#DejaVuSans-109"/>
      <use x="543.310547" xlink:href="#DejaVuSans-101"/>
      <use x="604.833984" xlink:href="#DejaVuSans-110"/>
      <use x="668.212891" xlink:href="#DejaVuSans-116"/>
      <use x="707.421875" xlink:href="#DejaVuSans-115"/>
     </g>
    </g>
   </g>
   <g id="matplotlib.axis_4">
    <g id="ytick_8">
     <g id="line2d_67">
      <g>
       <use style="stroke:#000000;stroke-width:0.8;" x="46.965625" xlink:href="#m070087a10c" y="489.007988"/>
      </g>
     </g>
     <g id="text_41">
      <!-- 1.0 -->
      <g transform="translate(24.0625 492.807207)scale(0.1 -0.1)">
       <use xlink:href="#DejaVuSans-49"/>
       <use x="63.623047" xlink:href="#DejaVuSans-46"/>
       <use x="95.410156" xlink:href="#DejaVuSans-48"/>
      </g>
     </g>
    </g>
    <g id="ytick_9">
     <g id="line2d_68">
      <g>
       <use style="stroke:#000000;stroke-width:0.8;" x="46.965625" xlink:href="#m070087a10c" y="444.186668"/>
      </g>
     </g>
     <g id="text_42">
      <!-- 1.5 -->
      <g transform="translate(24.0625 447.985887)scale(0.1 -0.1)">
       <use xlink:href="#DejaVuSans-49"/>
       <use x="63.623047" xlink:href="#DejaVuSans-46"/>
       <use x="95.410156" xlink:href="#DejaVuSans-53"/>
      </g>
     </g>
    </g>
    <g id="text_43">
     <!-- Perf. Portability (PP) -->
     <g transform="translate(17.982813 513.873437)rotate(-90)scale(0.1 -0.1)">
      <use xlink:href="#DejaVuSans-80"/>
      <use x="56.677734" xlink:href="#DejaVuSans-101"/>
      <use x="118.201172" xlink:href="#DejaVuSans-114"/>
      <use x="159.314453" xlink:href="#DejaVuSans-102"/>
      <use x="187.269531" xlink:href="#DejaVuSans-46"/>
      <use x="219.056641" xlink:href="#DejaVuSans-32"/>
      <use x="250.84375" xlink:href="#DejaVuSans-80"/>
      <use x="307.521484" xlink:href="#DejaVuSans-111"/>
      <use x="368.703125" xlink:href="#DejaVuSans-114"/>
      <use x="409.816406" xlink:href="#DejaVuSans-116"/>
      <use x="449.025391" xlink:href="#DejaVuSans-97"/>
      <use x="510.304688" xlink:href="#DejaVuSans-98"/>
      <use x="573.78125" xlink:href="#DejaVuSans-105"/>
      <use x="601.564453" xlink:href="#DejaVuSans-108"/>
      <use x="629.347656" xlink:href="#DejaVuSans-105"/>
      <use x="657.130859" xlink:href="#DejaVuSans-116"/>
      <use x="696.339844" xlink:href="#DejaVuSans-121"/>
      <use x="755.519531" xlink:href="#DejaVuSans-32"/>
      <use x="787.306641" xlink:href="#DejaVuSans-40"/>
      <use x="826.320312" xlink:href="#DejaVuSans-80"/>
      <use x="886.623047" xlink:href="#DejaVuSans-80"/>
      <use x="946.925781" xlink:href="#DejaVuSans-41"/>
     </g>
    </g>
   </g>
   <g id="line2d_69">
    <path clip-path="url(#pbeca8c539c)" d="M 64.72017 516.12358 
L 72.16963 470.098272 
L 84.585396 470.222868 
L 101.967469 460.363312 
L 124.315848 425.808853 
L 151.630533 413.03267 
" style="fill:none;stroke:#1f77b4;stroke-linecap:square;stroke-width:1.5;"/>
   </g>
   <g id="patch_9">
    <path d="M 46.965625 521.278125 
L 46.965625 407.878125 
" style="fill:none;stroke:#000000;stroke-linecap:square;stroke-linejoin:miter;stroke-width:0.8;"/>
   </g>
   <g id="patch_10">
    <path d="M 437.565625 521.278125 
L 437.565625 407.878125 
" style="fill:none;stroke:#000000;stroke-linecap:square;stroke-linejoin:miter;stroke-width:0.8;"/>
   </g>
   <g id="patch_11">
    <path d="M 46.965625 521.278125 
L 437.565625 521.278125 
" style="fill:none;stroke:#000000;stroke-linecap:square;stroke-linejoin:miter;stroke-width:0.8;"/>
   </g>
   <g id="patch_12">
    <path d="M 46.965625 407.878125 
L 437.565625 407.878125 
" style="fill:none;stroke:#000000;stroke-linecap:square;stroke-linejoin:miter;stroke-width:0.8;"/>
   </g>
   <g id="legend_2">
    <g id="patch_13">
     <path d="M 256.640625 430.834375 
L 430.565625 430.834375 
Q 432.565625 430.834375 432.565625 428.834375 
L 432.565625 414.878125 
Q 432.565625 412.878125 430.565625 412.878125 
L 256.640625 412.878125 
Q 254.640625 412.878125 254.640625 414.878125 
L 254.640625 428.834375 
Q 254.640625 430.834375 256.640625 430.834375 
z
" style="fill:#ffffff;opacity:0.8;stroke:#cccccc;stroke-linejoin:miter;"/>
    </g>
    <g id="line2d_70">
     <path d="M 258.640625 420.976562 
L 278.640625 420.976562 
" style="fill:none;stroke:#1f77b4;stroke-linecap:square;stroke-width:1.5;"/>
    </g>
    <g id="line2d_71"/>
    <g id="text_44">
     <!-- PP (SuperLU_DIST vs PaStiX) -->
     <defs>
      <path d="M 9.8125 72.90625 
L 19.671875 72.90625 
L 19.671875 0 
L 9.8125 0 
z
" id="DejaVuSans-73"/>
     </defs>
     <g transform="translate(286.640625 424.476562)scale(0.1 -0.1)">
      <use xlink:href="#DejaVuSans-80"/>
      <use x="60.302734" xlink:href="#DejaVuSans-80"/>
      <use x="120.605469" xlink:href="#DejaVuSans-32"/>
      <use x="152.392578" xlink:href="#DejaVuSans-40"/>
      <use x="191.40625" xlink:href="#DejaVuSans-83"/>
      <use x="254.882812" xlink:href="#DejaVuSans-117"/>
      <use x="318.261719" xlink:href="#DejaVuSans-112"/>
      <use x="381.738281" xlink:href="#DejaVuSans-101"/>
      <use x="443.261719" xlink:href="#DejaVuSans-114"/>
      <use x="484.375" xlink:href="#DejaVuSans-76"/>
      <use x="535.087891" xlink:href="#DejaVuSans-85"/>
      <use x="608.28125" xlink:href="#DejaVuSans-95"/>
      <use x="658.28125" xlink:href="#DejaVuSans-68"/>
      <use x="735.283203" xlink:href="#DejaVuSans-73"/>
      <use x="764.775391" xlink:href="#DejaVuSans-83"/>
      <use x="828.251953" xlink:href="#DejaVuSans-84"/>
      <use x="889.335938" xlink:href="#DejaVuSans-32"/>
      <use x="921.123047" xlink:href="#DejaVuSans-118"/>
      <use x="980.302734" xlink:href="#DejaVuSans-115"/>
      <use x="1032.402344" xlink:href="#DejaVuSans-32"/>
      <use x="1064.189453" xlink:href="#DejaVuSans-80"/>
      <use x="1119.992188" xlink:href="#DejaVuSans-97"/>
      <use x="1181.271484" xlink:href="#DejaVuSans-83"/>
      <use x="1244.748047" xlink:href="#DejaVuSans-116"/>
      <use x="1283.957031" xlink:href="#DejaVuSans-105"/>
      <use x="1311.740234" xlink:href="#DejaVuSans-88"/>
      <use x="1380.246094" xlink:href="#DejaVuSans-41"/>
     </g>
    </g>
   </g>
  </g>
 </g>
 <defs>
  <clipPath id="p3130d743d0">
   <rect height="340.2" width="390.6" x="46.965625" y="22.318125"/>
  </clipPath>
  <clipPath id="pbeca8c539c">
   <rect height="113.4" width="390.6" x="46.965625" y="407.878125"/>
  </clipPath>
 </defs>
</svg>
